%TF.GenerationSoftware,KiCad,Pcbnew,9.0.6*%
%TF.CreationDate,2026-08-31T00:53:20+06:00*%
%TF.ProjectId,Walkie talkie,57616c6b-6965-4207-9461-6c6b69652e6b,3*%
%TF.SameCoordinates,Original*%
%TF.FileFunction,Legend,Top*%
%TF.FilePolarity,Positive*%
%FSLAX46Y46*%
G04 Gerber Fmt 4.6, Leading zero omitted, Abs format (unit mm)*
G04 Created by KiCad (PCBNEW 9.0.6) date 2026-08-31 00:53:20*
%MOMM*%
%LPD*%
G01*
G04 APERTURE LIST*
%ADD10C,0.600000*%
%ADD11C,0.200000*%
%ADD12C,0.150000*%
%ADD13C,0.100000*%
%ADD14C,0.152400*%
%ADD15C,0.127000*%
%ADD16C,0.120000*%
%ADD17C,0.203200*%
%ADD18C,0.050000*%
G04 APERTURE END LIST*
D10*
X106609021Y-121601657D02*
X106609021Y-118601657D01*
X108037592Y-121601657D02*
X108037592Y-119601657D01*
X108037592Y-119887371D02*
X108180449Y-119744514D01*
X108180449Y-119744514D02*
X108466164Y-119601657D01*
X108466164Y-119601657D02*
X108894735Y-119601657D01*
X108894735Y-119601657D02*
X109180449Y-119744514D01*
X109180449Y-119744514D02*
X109323307Y-120030228D01*
X109323307Y-120030228D02*
X109323307Y-121601657D01*
X109323307Y-120030228D02*
X109466164Y-119744514D01*
X109466164Y-119744514D02*
X109751878Y-119601657D01*
X109751878Y-119601657D02*
X110180449Y-119601657D01*
X110180449Y-119601657D02*
X110466164Y-119744514D01*
X110466164Y-119744514D02*
X110609021Y-120030228D01*
X110609021Y-120030228D02*
X110609021Y-121601657D01*
X112037592Y-121601657D02*
X112037592Y-119601657D01*
X112037592Y-120173085D02*
X112180449Y-119887371D01*
X112180449Y-119887371D02*
X112323307Y-119744514D01*
X112323307Y-119744514D02*
X112609021Y-119601657D01*
X112609021Y-119601657D02*
X112894735Y-119601657D01*
X115180450Y-121601657D02*
X115180450Y-120030228D01*
X115180450Y-120030228D02*
X115037592Y-119744514D01*
X115037592Y-119744514D02*
X114751878Y-119601657D01*
X114751878Y-119601657D02*
X114180450Y-119601657D01*
X114180450Y-119601657D02*
X113894735Y-119744514D01*
X115180450Y-121458800D02*
X114894735Y-121601657D01*
X114894735Y-121601657D02*
X114180450Y-121601657D01*
X114180450Y-121601657D02*
X113894735Y-121458800D01*
X113894735Y-121458800D02*
X113751878Y-121173085D01*
X113751878Y-121173085D02*
X113751878Y-120887371D01*
X113751878Y-120887371D02*
X113894735Y-120601657D01*
X113894735Y-120601657D02*
X114180450Y-120458800D01*
X114180450Y-120458800D02*
X114894735Y-120458800D01*
X114894735Y-120458800D02*
X115180450Y-120315942D01*
X116609021Y-119601657D02*
X116609021Y-121601657D01*
X116609021Y-119887371D02*
X116751878Y-119744514D01*
X116751878Y-119744514D02*
X117037593Y-119601657D01*
X117037593Y-119601657D02*
X117466164Y-119601657D01*
X117466164Y-119601657D02*
X117751878Y-119744514D01*
X117751878Y-119744514D02*
X117894736Y-120030228D01*
X117894736Y-120030228D02*
X117894736Y-121601657D01*
X119466164Y-118601657D02*
X119180450Y-119173085D01*
X120609021Y-121458800D02*
X120894735Y-121601657D01*
X120894735Y-121601657D02*
X121466164Y-121601657D01*
X121466164Y-121601657D02*
X121751878Y-121458800D01*
X121751878Y-121458800D02*
X121894735Y-121173085D01*
X121894735Y-121173085D02*
X121894735Y-121030228D01*
X121894735Y-121030228D02*
X121751878Y-120744514D01*
X121751878Y-120744514D02*
X121466164Y-120601657D01*
X121466164Y-120601657D02*
X121037593Y-120601657D01*
X121037593Y-120601657D02*
X120751878Y-120458800D01*
X120751878Y-120458800D02*
X120609021Y-120173085D01*
X120609021Y-120173085D02*
X120609021Y-120030228D01*
X120609021Y-120030228D02*
X120751878Y-119744514D01*
X120751878Y-119744514D02*
X121037593Y-119601657D01*
X121037593Y-119601657D02*
X121466164Y-119601657D01*
X121466164Y-119601657D02*
X121751878Y-119744514D01*
X125180449Y-118601657D02*
X125894735Y-121601657D01*
X125894735Y-121601657D02*
X126466163Y-119458800D01*
X126466163Y-119458800D02*
X127037592Y-121601657D01*
X127037592Y-121601657D02*
X127751878Y-118601657D01*
X130180449Y-121601657D02*
X130180449Y-120030228D01*
X130180449Y-120030228D02*
X130037591Y-119744514D01*
X130037591Y-119744514D02*
X129751877Y-119601657D01*
X129751877Y-119601657D02*
X129180449Y-119601657D01*
X129180449Y-119601657D02*
X128894734Y-119744514D01*
X130180449Y-121458800D02*
X129894734Y-121601657D01*
X129894734Y-121601657D02*
X129180449Y-121601657D01*
X129180449Y-121601657D02*
X128894734Y-121458800D01*
X128894734Y-121458800D02*
X128751877Y-121173085D01*
X128751877Y-121173085D02*
X128751877Y-120887371D01*
X128751877Y-120887371D02*
X128894734Y-120601657D01*
X128894734Y-120601657D02*
X129180449Y-120458800D01*
X129180449Y-120458800D02*
X129894734Y-120458800D01*
X129894734Y-120458800D02*
X130180449Y-120315942D01*
X132037592Y-121601657D02*
X131751877Y-121458800D01*
X131751877Y-121458800D02*
X131609020Y-121173085D01*
X131609020Y-121173085D02*
X131609020Y-118601657D01*
X133180449Y-121601657D02*
X133180449Y-118601657D01*
X133466164Y-120458800D02*
X134323306Y-121601657D01*
X134323306Y-119601657D02*
X133180449Y-120744514D01*
X135609020Y-121601657D02*
X135609020Y-119601657D01*
X135609020Y-118601657D02*
X135466163Y-118744514D01*
X135466163Y-118744514D02*
X135609020Y-118887371D01*
X135609020Y-118887371D02*
X135751877Y-118744514D01*
X135751877Y-118744514D02*
X135609020Y-118601657D01*
X135609020Y-118601657D02*
X135609020Y-118887371D01*
X138180448Y-121458800D02*
X137894734Y-121601657D01*
X137894734Y-121601657D02*
X137323306Y-121601657D01*
X137323306Y-121601657D02*
X137037591Y-121458800D01*
X137037591Y-121458800D02*
X136894734Y-121173085D01*
X136894734Y-121173085D02*
X136894734Y-120030228D01*
X136894734Y-120030228D02*
X137037591Y-119744514D01*
X137037591Y-119744514D02*
X137323306Y-119601657D01*
X137323306Y-119601657D02*
X137894734Y-119601657D01*
X137894734Y-119601657D02*
X138180448Y-119744514D01*
X138180448Y-119744514D02*
X138323306Y-120030228D01*
X138323306Y-120030228D02*
X138323306Y-120315942D01*
X138323306Y-120315942D02*
X136894734Y-120601657D01*
X139609020Y-120458800D02*
X141894735Y-120458800D01*
X142894735Y-118601657D02*
X144609021Y-118601657D01*
X143751878Y-121601657D02*
X143751878Y-118601657D01*
X146894735Y-121601657D02*
X146894735Y-120030228D01*
X146894735Y-120030228D02*
X146751877Y-119744514D01*
X146751877Y-119744514D02*
X146466163Y-119601657D01*
X146466163Y-119601657D02*
X145894735Y-119601657D01*
X145894735Y-119601657D02*
X145609020Y-119744514D01*
X146894735Y-121458800D02*
X146609020Y-121601657D01*
X146609020Y-121601657D02*
X145894735Y-121601657D01*
X145894735Y-121601657D02*
X145609020Y-121458800D01*
X145609020Y-121458800D02*
X145466163Y-121173085D01*
X145466163Y-121173085D02*
X145466163Y-120887371D01*
X145466163Y-120887371D02*
X145609020Y-120601657D01*
X145609020Y-120601657D02*
X145894735Y-120458800D01*
X145894735Y-120458800D02*
X146609020Y-120458800D01*
X146609020Y-120458800D02*
X146894735Y-120315942D01*
X148751878Y-121601657D02*
X148466163Y-121458800D01*
X148466163Y-121458800D02*
X148323306Y-121173085D01*
X148323306Y-121173085D02*
X148323306Y-118601657D01*
X149894735Y-121601657D02*
X149894735Y-118601657D01*
X150180450Y-120458800D02*
X151037592Y-121601657D01*
X151037592Y-119601657D02*
X149894735Y-120744514D01*
X152323306Y-121601657D02*
X152323306Y-119601657D01*
X152323306Y-118601657D02*
X152180449Y-118744514D01*
X152180449Y-118744514D02*
X152323306Y-118887371D01*
X152323306Y-118887371D02*
X152466163Y-118744514D01*
X152466163Y-118744514D02*
X152323306Y-118601657D01*
X152323306Y-118601657D02*
X152323306Y-118887371D01*
X154894734Y-121458800D02*
X154609020Y-121601657D01*
X154609020Y-121601657D02*
X154037592Y-121601657D01*
X154037592Y-121601657D02*
X153751877Y-121458800D01*
X153751877Y-121458800D02*
X153609020Y-121173085D01*
X153609020Y-121173085D02*
X153609020Y-120030228D01*
X153609020Y-120030228D02*
X153751877Y-119744514D01*
X153751877Y-119744514D02*
X154037592Y-119601657D01*
X154037592Y-119601657D02*
X154609020Y-119601657D01*
X154609020Y-119601657D02*
X154894734Y-119744514D01*
X154894734Y-119744514D02*
X155037592Y-120030228D01*
X155037592Y-120030228D02*
X155037592Y-120315942D01*
X155037592Y-120315942D02*
X153609020Y-120601657D01*
D11*
X70369673Y-116257275D02*
X70369673Y-115257275D01*
X70369673Y-115257275D02*
X70607768Y-115257275D01*
X70607768Y-115257275D02*
X70750625Y-115304894D01*
X70750625Y-115304894D02*
X70845863Y-115400132D01*
X70845863Y-115400132D02*
X70893482Y-115495370D01*
X70893482Y-115495370D02*
X70941101Y-115685846D01*
X70941101Y-115685846D02*
X70941101Y-115828703D01*
X70941101Y-115828703D02*
X70893482Y-116019179D01*
X70893482Y-116019179D02*
X70845863Y-116114417D01*
X70845863Y-116114417D02*
X70750625Y-116209656D01*
X70750625Y-116209656D02*
X70607768Y-116257275D01*
X70607768Y-116257275D02*
X70369673Y-116257275D01*
X71560149Y-115257275D02*
X71750625Y-115257275D01*
X71750625Y-115257275D02*
X71845863Y-115304894D01*
X71845863Y-115304894D02*
X71941101Y-115400132D01*
X71941101Y-115400132D02*
X71988720Y-115590608D01*
X71988720Y-115590608D02*
X71988720Y-115923941D01*
X71988720Y-115923941D02*
X71941101Y-116114417D01*
X71941101Y-116114417D02*
X71845863Y-116209656D01*
X71845863Y-116209656D02*
X71750625Y-116257275D01*
X71750625Y-116257275D02*
X71560149Y-116257275D01*
X71560149Y-116257275D02*
X71464911Y-116209656D01*
X71464911Y-116209656D02*
X71369673Y-116114417D01*
X71369673Y-116114417D02*
X71322054Y-115923941D01*
X71322054Y-115923941D02*
X71322054Y-115590608D01*
X71322054Y-115590608D02*
X71369673Y-115400132D01*
X71369673Y-115400132D02*
X71464911Y-115304894D01*
X71464911Y-115304894D02*
X71560149Y-115257275D01*
X72417292Y-115257275D02*
X72417292Y-116066798D01*
X72417292Y-116066798D02*
X72464911Y-116162036D01*
X72464911Y-116162036D02*
X72512530Y-116209656D01*
X72512530Y-116209656D02*
X72607768Y-116257275D01*
X72607768Y-116257275D02*
X72798244Y-116257275D01*
X72798244Y-116257275D02*
X72893482Y-116209656D01*
X72893482Y-116209656D02*
X72941101Y-116162036D01*
X72941101Y-116162036D02*
X72988720Y-116066798D01*
X72988720Y-116066798D02*
X72988720Y-115257275D01*
X73798244Y-115733465D02*
X73941101Y-115781084D01*
X73941101Y-115781084D02*
X73988720Y-115828703D01*
X73988720Y-115828703D02*
X74036339Y-115923941D01*
X74036339Y-115923941D02*
X74036339Y-116066798D01*
X74036339Y-116066798D02*
X73988720Y-116162036D01*
X73988720Y-116162036D02*
X73941101Y-116209656D01*
X73941101Y-116209656D02*
X73845863Y-116257275D01*
X73845863Y-116257275D02*
X73464911Y-116257275D01*
X73464911Y-116257275D02*
X73464911Y-115257275D01*
X73464911Y-115257275D02*
X73798244Y-115257275D01*
X73798244Y-115257275D02*
X73893482Y-115304894D01*
X73893482Y-115304894D02*
X73941101Y-115352513D01*
X73941101Y-115352513D02*
X73988720Y-115447751D01*
X73988720Y-115447751D02*
X73988720Y-115542989D01*
X73988720Y-115542989D02*
X73941101Y-115638227D01*
X73941101Y-115638227D02*
X73893482Y-115685846D01*
X73893482Y-115685846D02*
X73798244Y-115733465D01*
X73798244Y-115733465D02*
X73464911Y-115733465D01*
X74941101Y-116257275D02*
X74464911Y-116257275D01*
X74464911Y-116257275D02*
X74464911Y-115257275D01*
X75274435Y-115733465D02*
X75607768Y-115733465D01*
X75750625Y-116257275D02*
X75274435Y-116257275D01*
X75274435Y-116257275D02*
X75274435Y-115257275D01*
X75274435Y-115257275D02*
X75750625Y-115257275D01*
X77512530Y-116162036D02*
X77464911Y-116209656D01*
X77464911Y-116209656D02*
X77322054Y-116257275D01*
X77322054Y-116257275D02*
X77226816Y-116257275D01*
X77226816Y-116257275D02*
X77083959Y-116209656D01*
X77083959Y-116209656D02*
X76988721Y-116114417D01*
X76988721Y-116114417D02*
X76941102Y-116019179D01*
X76941102Y-116019179D02*
X76893483Y-115828703D01*
X76893483Y-115828703D02*
X76893483Y-115685846D01*
X76893483Y-115685846D02*
X76941102Y-115495370D01*
X76941102Y-115495370D02*
X76988721Y-115400132D01*
X76988721Y-115400132D02*
X77083959Y-115304894D01*
X77083959Y-115304894D02*
X77226816Y-115257275D01*
X77226816Y-115257275D02*
X77322054Y-115257275D01*
X77322054Y-115257275D02*
X77464911Y-115304894D01*
X77464911Y-115304894D02*
X77512530Y-115352513D01*
X77941102Y-116257275D02*
X77941102Y-115257275D01*
X77941102Y-115733465D02*
X78512530Y-115733465D01*
X78512530Y-116257275D02*
X78512530Y-115257275D01*
X78988721Y-115733465D02*
X79322054Y-115733465D01*
X79464911Y-116257275D02*
X78988721Y-116257275D01*
X78988721Y-116257275D02*
X78988721Y-115257275D01*
X78988721Y-115257275D02*
X79464911Y-115257275D01*
X80464911Y-116162036D02*
X80417292Y-116209656D01*
X80417292Y-116209656D02*
X80274435Y-116257275D01*
X80274435Y-116257275D02*
X80179197Y-116257275D01*
X80179197Y-116257275D02*
X80036340Y-116209656D01*
X80036340Y-116209656D02*
X79941102Y-116114417D01*
X79941102Y-116114417D02*
X79893483Y-116019179D01*
X79893483Y-116019179D02*
X79845864Y-115828703D01*
X79845864Y-115828703D02*
X79845864Y-115685846D01*
X79845864Y-115685846D02*
X79893483Y-115495370D01*
X79893483Y-115495370D02*
X79941102Y-115400132D01*
X79941102Y-115400132D02*
X80036340Y-115304894D01*
X80036340Y-115304894D02*
X80179197Y-115257275D01*
X80179197Y-115257275D02*
X80274435Y-115257275D01*
X80274435Y-115257275D02*
X80417292Y-115304894D01*
X80417292Y-115304894D02*
X80464911Y-115352513D01*
X80893483Y-116257275D02*
X80893483Y-115257275D01*
X81464911Y-116257275D02*
X81036340Y-115685846D01*
X81464911Y-115257275D02*
X80893483Y-115828703D01*
X82512531Y-115257275D02*
X83083959Y-115257275D01*
X82798245Y-116257275D02*
X82798245Y-115257275D01*
X83417293Y-116257275D02*
X83417293Y-115257275D01*
X83417293Y-115733465D02*
X83988721Y-115733465D01*
X83988721Y-116257275D02*
X83988721Y-115257275D01*
X84464912Y-115733465D02*
X84798245Y-115733465D01*
X84941102Y-116257275D02*
X84464912Y-116257275D01*
X84464912Y-116257275D02*
X84464912Y-115257275D01*
X84464912Y-115257275D02*
X84941102Y-115257275D01*
X86131579Y-116257275D02*
X86131579Y-115257275D01*
X86131579Y-115257275D02*
X86464912Y-115971560D01*
X86464912Y-115971560D02*
X86798245Y-115257275D01*
X86798245Y-115257275D02*
X86798245Y-116257275D01*
X87274436Y-116257275D02*
X87274436Y-115257275D01*
X88322054Y-116162036D02*
X88274435Y-116209656D01*
X88274435Y-116209656D02*
X88131578Y-116257275D01*
X88131578Y-116257275D02*
X88036340Y-116257275D01*
X88036340Y-116257275D02*
X87893483Y-116209656D01*
X87893483Y-116209656D02*
X87798245Y-116114417D01*
X87798245Y-116114417D02*
X87750626Y-116019179D01*
X87750626Y-116019179D02*
X87703007Y-115828703D01*
X87703007Y-115828703D02*
X87703007Y-115685846D01*
X87703007Y-115685846D02*
X87750626Y-115495370D01*
X87750626Y-115495370D02*
X87798245Y-115400132D01*
X87798245Y-115400132D02*
X87893483Y-115304894D01*
X87893483Y-115304894D02*
X88036340Y-115257275D01*
X88036340Y-115257275D02*
X88131578Y-115257275D01*
X88131578Y-115257275D02*
X88274435Y-115304894D01*
X88274435Y-115304894D02*
X88322054Y-115352513D01*
X89703007Y-115257275D02*
X89893483Y-115257275D01*
X89893483Y-115257275D02*
X89988721Y-115304894D01*
X89988721Y-115304894D02*
X90083959Y-115400132D01*
X90083959Y-115400132D02*
X90131578Y-115590608D01*
X90131578Y-115590608D02*
X90131578Y-115923941D01*
X90131578Y-115923941D02*
X90083959Y-116114417D01*
X90083959Y-116114417D02*
X89988721Y-116209656D01*
X89988721Y-116209656D02*
X89893483Y-116257275D01*
X89893483Y-116257275D02*
X89703007Y-116257275D01*
X89703007Y-116257275D02*
X89607769Y-116209656D01*
X89607769Y-116209656D02*
X89512531Y-116114417D01*
X89512531Y-116114417D02*
X89464912Y-115923941D01*
X89464912Y-115923941D02*
X89464912Y-115590608D01*
X89464912Y-115590608D02*
X89512531Y-115400132D01*
X89512531Y-115400132D02*
X89607769Y-115304894D01*
X89607769Y-115304894D02*
X89703007Y-115257275D01*
X91131578Y-116257275D02*
X90798245Y-115781084D01*
X90560150Y-116257275D02*
X90560150Y-115257275D01*
X90560150Y-115257275D02*
X90941102Y-115257275D01*
X90941102Y-115257275D02*
X91036340Y-115304894D01*
X91036340Y-115304894D02*
X91083959Y-115352513D01*
X91083959Y-115352513D02*
X91131578Y-115447751D01*
X91131578Y-115447751D02*
X91131578Y-115590608D01*
X91131578Y-115590608D02*
X91083959Y-115685846D01*
X91083959Y-115685846D02*
X91036340Y-115733465D01*
X91036340Y-115733465D02*
X90941102Y-115781084D01*
X90941102Y-115781084D02*
X90560150Y-115781084D01*
X91560150Y-116257275D02*
X91560150Y-115257275D01*
X92036340Y-115733465D02*
X92369673Y-115733465D01*
X92512530Y-116257275D02*
X92036340Y-116257275D01*
X92036340Y-116257275D02*
X92036340Y-115257275D01*
X92036340Y-115257275D02*
X92512530Y-115257275D01*
X92941102Y-116257275D02*
X92941102Y-115257275D01*
X92941102Y-115257275D02*
X93512530Y-116257275D01*
X93512530Y-116257275D02*
X93512530Y-115257275D01*
X93845864Y-115257275D02*
X94417292Y-115257275D01*
X94131578Y-116257275D02*
X94131578Y-115257275D01*
X94703007Y-115971560D02*
X95179197Y-115971560D01*
X94607769Y-116257275D02*
X94941102Y-115257275D01*
X94941102Y-115257275D02*
X95274435Y-116257275D01*
X95464912Y-115257275D02*
X96036340Y-115257275D01*
X95750626Y-116257275D02*
X95750626Y-115257275D01*
X96369674Y-116257275D02*
X96369674Y-115257275D01*
X97036340Y-115257275D02*
X97226816Y-115257275D01*
X97226816Y-115257275D02*
X97322054Y-115304894D01*
X97322054Y-115304894D02*
X97417292Y-115400132D01*
X97417292Y-115400132D02*
X97464911Y-115590608D01*
X97464911Y-115590608D02*
X97464911Y-115923941D01*
X97464911Y-115923941D02*
X97417292Y-116114417D01*
X97417292Y-116114417D02*
X97322054Y-116209656D01*
X97322054Y-116209656D02*
X97226816Y-116257275D01*
X97226816Y-116257275D02*
X97036340Y-116257275D01*
X97036340Y-116257275D02*
X96941102Y-116209656D01*
X96941102Y-116209656D02*
X96845864Y-116114417D01*
X96845864Y-116114417D02*
X96798245Y-115923941D01*
X96798245Y-115923941D02*
X96798245Y-115590608D01*
X96798245Y-115590608D02*
X96845864Y-115400132D01*
X96845864Y-115400132D02*
X96941102Y-115304894D01*
X96941102Y-115304894D02*
X97036340Y-115257275D01*
X97893483Y-116257275D02*
X97893483Y-115257275D01*
X97893483Y-115257275D02*
X98464911Y-116257275D01*
X98464911Y-116257275D02*
X98464911Y-115257275D01*
X98941102Y-116162036D02*
X98988721Y-116209656D01*
X98988721Y-116209656D02*
X98941102Y-116257275D01*
X98941102Y-116257275D02*
X98893483Y-116209656D01*
X98893483Y-116209656D02*
X98941102Y-116162036D01*
X98941102Y-116162036D02*
X98941102Y-116257275D01*
X70226816Y-116867219D02*
X70798244Y-116867219D01*
X70512530Y-117867219D02*
X70512530Y-116867219D01*
X71131578Y-117867219D02*
X71131578Y-116867219D01*
X71131578Y-117343409D02*
X71703006Y-117343409D01*
X71703006Y-117867219D02*
X71703006Y-116867219D01*
X72179197Y-117343409D02*
X72512530Y-117343409D01*
X72655387Y-117867219D02*
X72179197Y-117867219D01*
X72179197Y-117867219D02*
X72179197Y-116867219D01*
X72179197Y-116867219D02*
X72655387Y-116867219D01*
X73845864Y-117867219D02*
X73845864Y-116867219D01*
X73845864Y-116867219D02*
X74179197Y-117581504D01*
X74179197Y-117581504D02*
X74512530Y-116867219D01*
X74512530Y-116867219D02*
X74512530Y-117867219D01*
X74988721Y-117867219D02*
X74988721Y-116867219D01*
X76036339Y-117771980D02*
X75988720Y-117819600D01*
X75988720Y-117819600D02*
X75845863Y-117867219D01*
X75845863Y-117867219D02*
X75750625Y-117867219D01*
X75750625Y-117867219D02*
X75607768Y-117819600D01*
X75607768Y-117819600D02*
X75512530Y-117724361D01*
X75512530Y-117724361D02*
X75464911Y-117629123D01*
X75464911Y-117629123D02*
X75417292Y-117438647D01*
X75417292Y-117438647D02*
X75417292Y-117295790D01*
X75417292Y-117295790D02*
X75464911Y-117105314D01*
X75464911Y-117105314D02*
X75512530Y-117010076D01*
X75512530Y-117010076D02*
X75607768Y-116914838D01*
X75607768Y-116914838D02*
X75750625Y-116867219D01*
X75750625Y-116867219D02*
X75845863Y-116867219D01*
X75845863Y-116867219D02*
X75988720Y-116914838D01*
X75988720Y-116914838D02*
X76036339Y-116962457D01*
X77226816Y-117867219D02*
X77226816Y-116867219D01*
X77655387Y-117819600D02*
X77798244Y-117867219D01*
X77798244Y-117867219D02*
X78036339Y-117867219D01*
X78036339Y-117867219D02*
X78131577Y-117819600D01*
X78131577Y-117819600D02*
X78179196Y-117771980D01*
X78179196Y-117771980D02*
X78226815Y-117676742D01*
X78226815Y-117676742D02*
X78226815Y-117581504D01*
X78226815Y-117581504D02*
X78179196Y-117486266D01*
X78179196Y-117486266D02*
X78131577Y-117438647D01*
X78131577Y-117438647D02*
X78036339Y-117391028D01*
X78036339Y-117391028D02*
X77845863Y-117343409D01*
X77845863Y-117343409D02*
X77750625Y-117295790D01*
X77750625Y-117295790D02*
X77703006Y-117248171D01*
X77703006Y-117248171D02*
X77655387Y-117152933D01*
X77655387Y-117152933D02*
X77655387Y-117057695D01*
X77655387Y-117057695D02*
X77703006Y-116962457D01*
X77703006Y-116962457D02*
X77750625Y-116914838D01*
X77750625Y-116914838D02*
X77845863Y-116867219D01*
X77845863Y-116867219D02*
X78083958Y-116867219D01*
X78083958Y-116867219D02*
X78226815Y-116914838D01*
X79417292Y-116867219D02*
X79417292Y-117676742D01*
X79417292Y-117676742D02*
X79464911Y-117771980D01*
X79464911Y-117771980D02*
X79512530Y-117819600D01*
X79512530Y-117819600D02*
X79607768Y-117867219D01*
X79607768Y-117867219D02*
X79798244Y-117867219D01*
X79798244Y-117867219D02*
X79893482Y-117819600D01*
X79893482Y-117819600D02*
X79941101Y-117771980D01*
X79941101Y-117771980D02*
X79988720Y-117676742D01*
X79988720Y-117676742D02*
X79988720Y-116867219D01*
X80464911Y-117867219D02*
X80464911Y-116867219D01*
X80464911Y-116867219D02*
X80845863Y-116867219D01*
X80845863Y-116867219D02*
X80941101Y-116914838D01*
X80941101Y-116914838D02*
X80988720Y-116962457D01*
X80988720Y-116962457D02*
X81036339Y-117057695D01*
X81036339Y-117057695D02*
X81036339Y-117200552D01*
X81036339Y-117200552D02*
X80988720Y-117295790D01*
X80988720Y-117295790D02*
X80941101Y-117343409D01*
X80941101Y-117343409D02*
X80845863Y-117391028D01*
X80845863Y-117391028D02*
X80464911Y-117391028D01*
X81417292Y-117819600D02*
X81560149Y-117867219D01*
X81560149Y-117867219D02*
X81798244Y-117867219D01*
X81798244Y-117867219D02*
X81893482Y-117819600D01*
X81893482Y-117819600D02*
X81941101Y-117771980D01*
X81941101Y-117771980D02*
X81988720Y-117676742D01*
X81988720Y-117676742D02*
X81988720Y-117581504D01*
X81988720Y-117581504D02*
X81941101Y-117486266D01*
X81941101Y-117486266D02*
X81893482Y-117438647D01*
X81893482Y-117438647D02*
X81798244Y-117391028D01*
X81798244Y-117391028D02*
X81607768Y-117343409D01*
X81607768Y-117343409D02*
X81512530Y-117295790D01*
X81512530Y-117295790D02*
X81464911Y-117248171D01*
X81464911Y-117248171D02*
X81417292Y-117152933D01*
X81417292Y-117152933D02*
X81417292Y-117057695D01*
X81417292Y-117057695D02*
X81464911Y-116962457D01*
X81464911Y-116962457D02*
X81512530Y-116914838D01*
X81512530Y-116914838D02*
X81607768Y-116867219D01*
X81607768Y-116867219D02*
X81845863Y-116867219D01*
X81845863Y-116867219D02*
X81988720Y-116914838D01*
X82417292Y-117867219D02*
X82417292Y-116867219D01*
X82893482Y-117867219D02*
X82893482Y-116867219D01*
X82893482Y-116867219D02*
X83131577Y-116867219D01*
X83131577Y-116867219D02*
X83274434Y-116914838D01*
X83274434Y-116914838D02*
X83369672Y-117010076D01*
X83369672Y-117010076D02*
X83417291Y-117105314D01*
X83417291Y-117105314D02*
X83464910Y-117295790D01*
X83464910Y-117295790D02*
X83464910Y-117438647D01*
X83464910Y-117438647D02*
X83417291Y-117629123D01*
X83417291Y-117629123D02*
X83369672Y-117724361D01*
X83369672Y-117724361D02*
X83274434Y-117819600D01*
X83274434Y-117819600D02*
X83131577Y-117867219D01*
X83131577Y-117867219D02*
X82893482Y-117867219D01*
X83893482Y-117343409D02*
X84226815Y-117343409D01*
X84369672Y-117867219D02*
X83893482Y-117867219D01*
X83893482Y-117867219D02*
X83893482Y-116867219D01*
X83893482Y-116867219D02*
X84369672Y-116867219D01*
X85560149Y-117867219D02*
X85560149Y-116867219D01*
X85560149Y-116867219D02*
X85798244Y-116867219D01*
X85798244Y-116867219D02*
X85941101Y-116914838D01*
X85941101Y-116914838D02*
X86036339Y-117010076D01*
X86036339Y-117010076D02*
X86083958Y-117105314D01*
X86083958Y-117105314D02*
X86131577Y-117295790D01*
X86131577Y-117295790D02*
X86131577Y-117438647D01*
X86131577Y-117438647D02*
X86083958Y-117629123D01*
X86083958Y-117629123D02*
X86036339Y-117724361D01*
X86036339Y-117724361D02*
X85941101Y-117819600D01*
X85941101Y-117819600D02*
X85798244Y-117867219D01*
X85798244Y-117867219D02*
X85560149Y-117867219D01*
X86750625Y-116867219D02*
X86941101Y-116867219D01*
X86941101Y-116867219D02*
X87036339Y-116914838D01*
X87036339Y-116914838D02*
X87131577Y-117010076D01*
X87131577Y-117010076D02*
X87179196Y-117200552D01*
X87179196Y-117200552D02*
X87179196Y-117533885D01*
X87179196Y-117533885D02*
X87131577Y-117724361D01*
X87131577Y-117724361D02*
X87036339Y-117819600D01*
X87036339Y-117819600D02*
X86941101Y-117867219D01*
X86941101Y-117867219D02*
X86750625Y-117867219D01*
X86750625Y-117867219D02*
X86655387Y-117819600D01*
X86655387Y-117819600D02*
X86560149Y-117724361D01*
X86560149Y-117724361D02*
X86512530Y-117533885D01*
X86512530Y-117533885D02*
X86512530Y-117200552D01*
X86512530Y-117200552D02*
X86560149Y-117010076D01*
X86560149Y-117010076D02*
X86655387Y-116914838D01*
X86655387Y-116914838D02*
X86750625Y-116867219D01*
X87512530Y-116867219D02*
X87750625Y-117867219D01*
X87750625Y-117867219D02*
X87941101Y-117152933D01*
X87941101Y-117152933D02*
X88131577Y-117867219D01*
X88131577Y-117867219D02*
X88369673Y-116867219D01*
X88750625Y-117867219D02*
X88750625Y-116867219D01*
X88750625Y-116867219D02*
X89322053Y-117867219D01*
X89322053Y-117867219D02*
X89322053Y-116867219D01*
X90750625Y-116867219D02*
X90941101Y-116867219D01*
X90941101Y-116867219D02*
X91036339Y-116914838D01*
X91036339Y-116914838D02*
X91131577Y-117010076D01*
X91131577Y-117010076D02*
X91179196Y-117200552D01*
X91179196Y-117200552D02*
X91179196Y-117533885D01*
X91179196Y-117533885D02*
X91131577Y-117724361D01*
X91131577Y-117724361D02*
X91036339Y-117819600D01*
X91036339Y-117819600D02*
X90941101Y-117867219D01*
X90941101Y-117867219D02*
X90750625Y-117867219D01*
X90750625Y-117867219D02*
X90655387Y-117819600D01*
X90655387Y-117819600D02*
X90560149Y-117724361D01*
X90560149Y-117724361D02*
X90512530Y-117533885D01*
X90512530Y-117533885D02*
X90512530Y-117200552D01*
X90512530Y-117200552D02*
X90560149Y-117010076D01*
X90560149Y-117010076D02*
X90655387Y-116914838D01*
X90655387Y-116914838D02*
X90750625Y-116867219D01*
X91607768Y-117867219D02*
X91607768Y-116867219D01*
X91607768Y-116867219D02*
X92179196Y-117867219D01*
X92179196Y-117867219D02*
X92179196Y-116867219D01*
X93274435Y-116867219D02*
X93845863Y-116867219D01*
X93560149Y-117867219D02*
X93560149Y-116867219D01*
X94179197Y-117867219D02*
X94179197Y-116867219D01*
X94179197Y-117343409D02*
X94750625Y-117343409D01*
X94750625Y-117867219D02*
X94750625Y-116867219D01*
X95226816Y-117343409D02*
X95560149Y-117343409D01*
X95703006Y-117867219D02*
X95226816Y-117867219D01*
X95226816Y-117867219D02*
X95226816Y-116867219D01*
X95226816Y-116867219D02*
X95703006Y-116867219D01*
X96893483Y-117867219D02*
X96893483Y-116867219D01*
X96893483Y-116867219D02*
X97274435Y-116867219D01*
X97274435Y-116867219D02*
X97369673Y-116914838D01*
X97369673Y-116914838D02*
X97417292Y-116962457D01*
X97417292Y-116962457D02*
X97464911Y-117057695D01*
X97464911Y-117057695D02*
X97464911Y-117200552D01*
X97464911Y-117200552D02*
X97417292Y-117295790D01*
X97417292Y-117295790D02*
X97369673Y-117343409D01*
X97369673Y-117343409D02*
X97274435Y-117391028D01*
X97274435Y-117391028D02*
X96893483Y-117391028D01*
X98464911Y-117771980D02*
X98417292Y-117819600D01*
X98417292Y-117819600D02*
X98274435Y-117867219D01*
X98274435Y-117867219D02*
X98179197Y-117867219D01*
X98179197Y-117867219D02*
X98036340Y-117819600D01*
X98036340Y-117819600D02*
X97941102Y-117724361D01*
X97941102Y-117724361D02*
X97893483Y-117629123D01*
X97893483Y-117629123D02*
X97845864Y-117438647D01*
X97845864Y-117438647D02*
X97845864Y-117295790D01*
X97845864Y-117295790D02*
X97893483Y-117105314D01*
X97893483Y-117105314D02*
X97941102Y-117010076D01*
X97941102Y-117010076D02*
X98036340Y-116914838D01*
X98036340Y-116914838D02*
X98179197Y-116867219D01*
X98179197Y-116867219D02*
X98274435Y-116867219D01*
X98274435Y-116867219D02*
X98417292Y-116914838D01*
X98417292Y-116914838D02*
X98464911Y-116962457D01*
X99226816Y-117343409D02*
X99369673Y-117391028D01*
X99369673Y-117391028D02*
X99417292Y-117438647D01*
X99417292Y-117438647D02*
X99464911Y-117533885D01*
X99464911Y-117533885D02*
X99464911Y-117676742D01*
X99464911Y-117676742D02*
X99417292Y-117771980D01*
X99417292Y-117771980D02*
X99369673Y-117819600D01*
X99369673Y-117819600D02*
X99274435Y-117867219D01*
X99274435Y-117867219D02*
X98893483Y-117867219D01*
X98893483Y-117867219D02*
X98893483Y-116867219D01*
X98893483Y-116867219D02*
X99226816Y-116867219D01*
X99226816Y-116867219D02*
X99322054Y-116914838D01*
X99322054Y-116914838D02*
X99369673Y-116962457D01*
X99369673Y-116962457D02*
X99417292Y-117057695D01*
X99417292Y-117057695D02*
X99417292Y-117152933D01*
X99417292Y-117152933D02*
X99369673Y-117248171D01*
X99369673Y-117248171D02*
X99322054Y-117295790D01*
X99322054Y-117295790D02*
X99226816Y-117343409D01*
X99226816Y-117343409D02*
X98893483Y-117343409D01*
D12*
X68093095Y-76558319D02*
X68093095Y-77367842D01*
X68093095Y-77367842D02*
X68140714Y-77463080D01*
X68140714Y-77463080D02*
X68188333Y-77510700D01*
X68188333Y-77510700D02*
X68283571Y-77558319D01*
X68283571Y-77558319D02*
X68474047Y-77558319D01*
X68474047Y-77558319D02*
X68569285Y-77510700D01*
X68569285Y-77510700D02*
X68616904Y-77463080D01*
X68616904Y-77463080D02*
X68664523Y-77367842D01*
X68664523Y-77367842D02*
X68664523Y-76558319D01*
X69664523Y-77558319D02*
X69093095Y-77558319D01*
X69378809Y-77558319D02*
X69378809Y-76558319D01*
X69378809Y-76558319D02*
X69283571Y-76701176D01*
X69283571Y-76701176D02*
X69188333Y-76796414D01*
X69188333Y-76796414D02*
X69093095Y-76844033D01*
X99854819Y-72433976D02*
X99854819Y-73005404D01*
X99854819Y-72719690D02*
X98854819Y-72719690D01*
X98854819Y-72719690D02*
X98997676Y-72814928D01*
X98997676Y-72814928D02*
X99092914Y-72910166D01*
X99092914Y-72910166D02*
X99140533Y-73005404D01*
X99854819Y-71481595D02*
X99854819Y-72053023D01*
X99854819Y-71767309D02*
X98854819Y-71767309D01*
X98854819Y-71767309D02*
X98997676Y-71862547D01*
X98997676Y-71862547D02*
X99092914Y-71957785D01*
X99092914Y-71957785D02*
X99140533Y-72053023D01*
X101976667Y-93925700D02*
X102119524Y-93973319D01*
X102119524Y-93973319D02*
X102357619Y-93973319D01*
X102357619Y-93973319D02*
X102452857Y-93925700D01*
X102452857Y-93925700D02*
X102500476Y-93878080D01*
X102500476Y-93878080D02*
X102548095Y-93782842D01*
X102548095Y-93782842D02*
X102548095Y-93687604D01*
X102548095Y-93687604D02*
X102500476Y-93592366D01*
X102500476Y-93592366D02*
X102452857Y-93544747D01*
X102452857Y-93544747D02*
X102357619Y-93497128D01*
X102357619Y-93497128D02*
X102167143Y-93449509D01*
X102167143Y-93449509D02*
X102071905Y-93401890D01*
X102071905Y-93401890D02*
X102024286Y-93354271D01*
X102024286Y-93354271D02*
X101976667Y-93259033D01*
X101976667Y-93259033D02*
X101976667Y-93163795D01*
X101976667Y-93163795D02*
X102024286Y-93068557D01*
X102024286Y-93068557D02*
X102071905Y-93020938D01*
X102071905Y-93020938D02*
X102167143Y-92973319D01*
X102167143Y-92973319D02*
X102405238Y-92973319D01*
X102405238Y-92973319D02*
X102548095Y-93020938D01*
X102881429Y-92973319D02*
X103119524Y-93973319D01*
X103119524Y-93973319D02*
X103310000Y-93259033D01*
X103310000Y-93259033D02*
X103500476Y-93973319D01*
X103500476Y-93973319D02*
X103738572Y-92973319D01*
X104643333Y-93973319D02*
X104071905Y-93973319D01*
X104357619Y-93973319D02*
X104357619Y-92973319D01*
X104357619Y-92973319D02*
X104262381Y-93116176D01*
X104262381Y-93116176D02*
X104167143Y-93211414D01*
X104167143Y-93211414D02*
X104071905Y-93259033D01*
D13*
X49942580Y-87100642D02*
X49942580Y-86624452D01*
X49942580Y-86624452D02*
X50942580Y-86624452D01*
X49990200Y-87386357D02*
X49942580Y-87529214D01*
X49942580Y-87529214D02*
X49942580Y-87767309D01*
X49942580Y-87767309D02*
X49990200Y-87862547D01*
X49990200Y-87862547D02*
X50037819Y-87910166D01*
X50037819Y-87910166D02*
X50133057Y-87957785D01*
X50133057Y-87957785D02*
X50228295Y-87957785D01*
X50228295Y-87957785D02*
X50323533Y-87910166D01*
X50323533Y-87910166D02*
X50371152Y-87862547D01*
X50371152Y-87862547D02*
X50418771Y-87767309D01*
X50418771Y-87767309D02*
X50466390Y-87576833D01*
X50466390Y-87576833D02*
X50514009Y-87481595D01*
X50514009Y-87481595D02*
X50561628Y-87433976D01*
X50561628Y-87433976D02*
X50656866Y-87386357D01*
X50656866Y-87386357D02*
X50752104Y-87386357D01*
X50752104Y-87386357D02*
X50847342Y-87433976D01*
X50847342Y-87433976D02*
X50894961Y-87481595D01*
X50894961Y-87481595D02*
X50942580Y-87576833D01*
X50942580Y-87576833D02*
X50942580Y-87814928D01*
X50942580Y-87814928D02*
X50894961Y-87957785D01*
X49942580Y-88910166D02*
X49942580Y-88338738D01*
X49942580Y-88624452D02*
X50942580Y-88624452D01*
X50942580Y-88624452D02*
X50799723Y-88529214D01*
X50799723Y-88529214D02*
X50704485Y-88433976D01*
X50704485Y-88433976D02*
X50656866Y-88338738D01*
D12*
X71554819Y-38905404D02*
X71554819Y-38333976D01*
X72554819Y-38619690D02*
X71554819Y-38619690D01*
X72554819Y-38000642D02*
X71554819Y-38000642D01*
X71554819Y-38000642D02*
X71554819Y-37619690D01*
X71554819Y-37619690D02*
X71602438Y-37524452D01*
X71602438Y-37524452D02*
X71650057Y-37476833D01*
X71650057Y-37476833D02*
X71745295Y-37429214D01*
X71745295Y-37429214D02*
X71888152Y-37429214D01*
X71888152Y-37429214D02*
X71983390Y-37476833D01*
X71983390Y-37476833D02*
X72031009Y-37524452D01*
X72031009Y-37524452D02*
X72078628Y-37619690D01*
X72078628Y-37619690D02*
X72078628Y-38000642D01*
X72554819Y-36476833D02*
X72554819Y-37048261D01*
X72554819Y-36762547D02*
X71554819Y-36762547D01*
X71554819Y-36762547D02*
X71697676Y-36857785D01*
X71697676Y-36857785D02*
X71792914Y-36953023D01*
X71792914Y-36953023D02*
X71840533Y-37048261D01*
X81338095Y-25098319D02*
X81338095Y-25907842D01*
X81338095Y-25907842D02*
X81385714Y-26003080D01*
X81385714Y-26003080D02*
X81433333Y-26050700D01*
X81433333Y-26050700D02*
X81528571Y-26098319D01*
X81528571Y-26098319D02*
X81719047Y-26098319D01*
X81719047Y-26098319D02*
X81814285Y-26050700D01*
X81814285Y-26050700D02*
X81861904Y-26003080D01*
X81861904Y-26003080D02*
X81909523Y-25907842D01*
X81909523Y-25907842D02*
X81909523Y-25098319D01*
X82338095Y-26050700D02*
X82480952Y-26098319D01*
X82480952Y-26098319D02*
X82719047Y-26098319D01*
X82719047Y-26098319D02*
X82814285Y-26050700D01*
X82814285Y-26050700D02*
X82861904Y-26003080D01*
X82861904Y-26003080D02*
X82909523Y-25907842D01*
X82909523Y-25907842D02*
X82909523Y-25812604D01*
X82909523Y-25812604D02*
X82861904Y-25717366D01*
X82861904Y-25717366D02*
X82814285Y-25669747D01*
X82814285Y-25669747D02*
X82719047Y-25622128D01*
X82719047Y-25622128D02*
X82528571Y-25574509D01*
X82528571Y-25574509D02*
X82433333Y-25526890D01*
X82433333Y-25526890D02*
X82385714Y-25479271D01*
X82385714Y-25479271D02*
X82338095Y-25384033D01*
X82338095Y-25384033D02*
X82338095Y-25288795D01*
X82338095Y-25288795D02*
X82385714Y-25193557D01*
X82385714Y-25193557D02*
X82433333Y-25145938D01*
X82433333Y-25145938D02*
X82528571Y-25098319D01*
X82528571Y-25098319D02*
X82766666Y-25098319D01*
X82766666Y-25098319D02*
X82909523Y-25145938D01*
X83671428Y-25574509D02*
X83814285Y-25622128D01*
X83814285Y-25622128D02*
X83861904Y-25669747D01*
X83861904Y-25669747D02*
X83909523Y-25764985D01*
X83909523Y-25764985D02*
X83909523Y-25907842D01*
X83909523Y-25907842D02*
X83861904Y-26003080D01*
X83861904Y-26003080D02*
X83814285Y-26050700D01*
X83814285Y-26050700D02*
X83719047Y-26098319D01*
X83719047Y-26098319D02*
X83338095Y-26098319D01*
X83338095Y-26098319D02*
X83338095Y-25098319D01*
X83338095Y-25098319D02*
X83671428Y-25098319D01*
X83671428Y-25098319D02*
X83766666Y-25145938D01*
X83766666Y-25145938D02*
X83814285Y-25193557D01*
X83814285Y-25193557D02*
X83861904Y-25288795D01*
X83861904Y-25288795D02*
X83861904Y-25384033D01*
X83861904Y-25384033D02*
X83814285Y-25479271D01*
X83814285Y-25479271D02*
X83766666Y-25526890D01*
X83766666Y-25526890D02*
X83671428Y-25574509D01*
X83671428Y-25574509D02*
X83338095Y-25574509D01*
X78931009Y-46291118D02*
X78978628Y-46148261D01*
X78978628Y-46148261D02*
X79026247Y-46100642D01*
X79026247Y-46100642D02*
X79121485Y-46053023D01*
X79121485Y-46053023D02*
X79264342Y-46053023D01*
X79264342Y-46053023D02*
X79359580Y-46100642D01*
X79359580Y-46100642D02*
X79407200Y-46148261D01*
X79407200Y-46148261D02*
X79454819Y-46243499D01*
X79454819Y-46243499D02*
X79454819Y-46624451D01*
X79454819Y-46624451D02*
X78454819Y-46624451D01*
X78454819Y-46624451D02*
X78454819Y-46291118D01*
X78454819Y-46291118D02*
X78502438Y-46195880D01*
X78502438Y-46195880D02*
X78550057Y-46148261D01*
X78550057Y-46148261D02*
X78645295Y-46100642D01*
X78645295Y-46100642D02*
X78740533Y-46100642D01*
X78740533Y-46100642D02*
X78835771Y-46148261D01*
X78835771Y-46148261D02*
X78883390Y-46195880D01*
X78883390Y-46195880D02*
X78931009Y-46291118D01*
X78931009Y-46291118D02*
X78931009Y-46624451D01*
X79073866Y-45624451D02*
X79073866Y-44862547D01*
X82731009Y-43386358D02*
X82778628Y-43243501D01*
X82778628Y-43243501D02*
X82826247Y-43195882D01*
X82826247Y-43195882D02*
X82921485Y-43148263D01*
X82921485Y-43148263D02*
X83064342Y-43148263D01*
X83064342Y-43148263D02*
X83159580Y-43195882D01*
X83159580Y-43195882D02*
X83207200Y-43243501D01*
X83207200Y-43243501D02*
X83254819Y-43338739D01*
X83254819Y-43338739D02*
X83254819Y-43719691D01*
X83254819Y-43719691D02*
X82254819Y-43719691D01*
X82254819Y-43719691D02*
X82254819Y-43386358D01*
X82254819Y-43386358D02*
X82302438Y-43291120D01*
X82302438Y-43291120D02*
X82350057Y-43243501D01*
X82350057Y-43243501D02*
X82445295Y-43195882D01*
X82445295Y-43195882D02*
X82540533Y-43195882D01*
X82540533Y-43195882D02*
X82635771Y-43243501D01*
X82635771Y-43243501D02*
X82683390Y-43291120D01*
X82683390Y-43291120D02*
X82731009Y-43386358D01*
X82731009Y-43386358D02*
X82731009Y-43719691D01*
X83254819Y-42291120D02*
X82731009Y-42291120D01*
X82731009Y-42291120D02*
X82635771Y-42338739D01*
X82635771Y-42338739D02*
X82588152Y-42433977D01*
X82588152Y-42433977D02*
X82588152Y-42624453D01*
X82588152Y-42624453D02*
X82635771Y-42719691D01*
X83207200Y-42291120D02*
X83254819Y-42386358D01*
X83254819Y-42386358D02*
X83254819Y-42624453D01*
X83254819Y-42624453D02*
X83207200Y-42719691D01*
X83207200Y-42719691D02*
X83111961Y-42767310D01*
X83111961Y-42767310D02*
X83016723Y-42767310D01*
X83016723Y-42767310D02*
X82921485Y-42719691D01*
X82921485Y-42719691D02*
X82873866Y-42624453D01*
X82873866Y-42624453D02*
X82873866Y-42386358D01*
X82873866Y-42386358D02*
X82826247Y-42291120D01*
X82588152Y-41957786D02*
X82588152Y-41576834D01*
X82254819Y-41814929D02*
X83111961Y-41814929D01*
X83111961Y-41814929D02*
X83207200Y-41767310D01*
X83207200Y-41767310D02*
X83254819Y-41672072D01*
X83254819Y-41672072D02*
X83254819Y-41576834D01*
X82588152Y-41386357D02*
X82588152Y-41005405D01*
X82254819Y-41243500D02*
X83111961Y-41243500D01*
X83111961Y-41243500D02*
X83207200Y-41195881D01*
X83207200Y-41195881D02*
X83254819Y-41100643D01*
X83254819Y-41100643D02*
X83254819Y-41005405D01*
X83207200Y-40291119D02*
X83254819Y-40386357D01*
X83254819Y-40386357D02*
X83254819Y-40576833D01*
X83254819Y-40576833D02*
X83207200Y-40672071D01*
X83207200Y-40672071D02*
X83111961Y-40719690D01*
X83111961Y-40719690D02*
X82731009Y-40719690D01*
X82731009Y-40719690D02*
X82635771Y-40672071D01*
X82635771Y-40672071D02*
X82588152Y-40576833D01*
X82588152Y-40576833D02*
X82588152Y-40386357D01*
X82588152Y-40386357D02*
X82635771Y-40291119D01*
X82635771Y-40291119D02*
X82731009Y-40243500D01*
X82731009Y-40243500D02*
X82826247Y-40243500D01*
X82826247Y-40243500D02*
X82921485Y-40719690D01*
X83254819Y-39814928D02*
X82588152Y-39814928D01*
X82778628Y-39814928D02*
X82683390Y-39767309D01*
X82683390Y-39767309D02*
X82635771Y-39719690D01*
X82635771Y-39719690D02*
X82588152Y-39624452D01*
X82588152Y-39624452D02*
X82588152Y-39529214D01*
X82588152Y-39291118D02*
X83254819Y-39053023D01*
X82588152Y-38814928D02*
X83254819Y-39053023D01*
X83254819Y-39053023D02*
X83492914Y-39148261D01*
X83492914Y-39148261D02*
X83540533Y-39195880D01*
X83540533Y-39195880D02*
X83588152Y-39291118D01*
X83159580Y-37100642D02*
X83207200Y-37148261D01*
X83207200Y-37148261D02*
X83254819Y-37291118D01*
X83254819Y-37291118D02*
X83254819Y-37386356D01*
X83254819Y-37386356D02*
X83207200Y-37529213D01*
X83207200Y-37529213D02*
X83111961Y-37624451D01*
X83111961Y-37624451D02*
X83016723Y-37672070D01*
X83016723Y-37672070D02*
X82826247Y-37719689D01*
X82826247Y-37719689D02*
X82683390Y-37719689D01*
X82683390Y-37719689D02*
X82492914Y-37672070D01*
X82492914Y-37672070D02*
X82397676Y-37624451D01*
X82397676Y-37624451D02*
X82302438Y-37529213D01*
X82302438Y-37529213D02*
X82254819Y-37386356D01*
X82254819Y-37386356D02*
X82254819Y-37291118D01*
X82254819Y-37291118D02*
X82302438Y-37148261D01*
X82302438Y-37148261D02*
X82350057Y-37100642D01*
X83254819Y-36672070D02*
X82254819Y-36672070D01*
X83254819Y-36243499D02*
X82731009Y-36243499D01*
X82731009Y-36243499D02*
X82635771Y-36291118D01*
X82635771Y-36291118D02*
X82588152Y-36386356D01*
X82588152Y-36386356D02*
X82588152Y-36529213D01*
X82588152Y-36529213D02*
X82635771Y-36624451D01*
X82635771Y-36624451D02*
X82683390Y-36672070D01*
X83254819Y-35338737D02*
X82731009Y-35338737D01*
X82731009Y-35338737D02*
X82635771Y-35386356D01*
X82635771Y-35386356D02*
X82588152Y-35481594D01*
X82588152Y-35481594D02*
X82588152Y-35672070D01*
X82588152Y-35672070D02*
X82635771Y-35767308D01*
X83207200Y-35338737D02*
X83254819Y-35433975D01*
X83254819Y-35433975D02*
X83254819Y-35672070D01*
X83254819Y-35672070D02*
X83207200Y-35767308D01*
X83207200Y-35767308D02*
X83111961Y-35814927D01*
X83111961Y-35814927D02*
X83016723Y-35814927D01*
X83016723Y-35814927D02*
X82921485Y-35767308D01*
X82921485Y-35767308D02*
X82873866Y-35672070D01*
X82873866Y-35672070D02*
X82873866Y-35433975D01*
X82873866Y-35433975D02*
X82826247Y-35338737D01*
X83254819Y-34862546D02*
X82588152Y-34862546D01*
X82778628Y-34862546D02*
X82683390Y-34814927D01*
X82683390Y-34814927D02*
X82635771Y-34767308D01*
X82635771Y-34767308D02*
X82588152Y-34672070D01*
X82588152Y-34672070D02*
X82588152Y-34576832D01*
X82588152Y-33814927D02*
X83397676Y-33814927D01*
X83397676Y-33814927D02*
X83492914Y-33862546D01*
X83492914Y-33862546D02*
X83540533Y-33910165D01*
X83540533Y-33910165D02*
X83588152Y-34005403D01*
X83588152Y-34005403D02*
X83588152Y-34148260D01*
X83588152Y-34148260D02*
X83540533Y-34243498D01*
X83207200Y-33814927D02*
X83254819Y-33910165D01*
X83254819Y-33910165D02*
X83254819Y-34100641D01*
X83254819Y-34100641D02*
X83207200Y-34195879D01*
X83207200Y-34195879D02*
X83159580Y-34243498D01*
X83159580Y-34243498D02*
X83064342Y-34291117D01*
X83064342Y-34291117D02*
X82778628Y-34291117D01*
X82778628Y-34291117D02*
X82683390Y-34243498D01*
X82683390Y-34243498D02*
X82635771Y-34195879D01*
X82635771Y-34195879D02*
X82588152Y-34100641D01*
X82588152Y-34100641D02*
X82588152Y-33910165D01*
X82588152Y-33910165D02*
X82635771Y-33814927D01*
X83207200Y-32957784D02*
X83254819Y-33053022D01*
X83254819Y-33053022D02*
X83254819Y-33243498D01*
X83254819Y-33243498D02*
X83207200Y-33338736D01*
X83207200Y-33338736D02*
X83111961Y-33386355D01*
X83111961Y-33386355D02*
X82731009Y-33386355D01*
X82731009Y-33386355D02*
X82635771Y-33338736D01*
X82635771Y-33338736D02*
X82588152Y-33243498D01*
X82588152Y-33243498D02*
X82588152Y-33053022D01*
X82588152Y-33053022D02*
X82635771Y-32957784D01*
X82635771Y-32957784D02*
X82731009Y-32910165D01*
X82731009Y-32910165D02*
X82826247Y-32910165D01*
X82826247Y-32910165D02*
X82921485Y-33386355D01*
X83254819Y-32481593D02*
X82588152Y-32481593D01*
X82778628Y-32481593D02*
X82683390Y-32433974D01*
X82683390Y-32433974D02*
X82635771Y-32386355D01*
X82635771Y-32386355D02*
X82588152Y-32291117D01*
X82588152Y-32291117D02*
X82588152Y-32195879D01*
X83254819Y-30576831D02*
X83254819Y-31148259D01*
X83254819Y-30862545D02*
X82254819Y-30862545D01*
X82254819Y-30862545D02*
X82397676Y-30957783D01*
X82397676Y-30957783D02*
X82492914Y-31053021D01*
X82492914Y-31053021D02*
X82540533Y-31148259D01*
X82969104Y-30195878D02*
X82969104Y-29719688D01*
X83254819Y-30291116D02*
X82254819Y-29957783D01*
X82254819Y-29957783D02*
X83254819Y-29624450D01*
X89554819Y-46395880D02*
X89554819Y-46205404D01*
X89554819Y-46205404D02*
X89602438Y-46110166D01*
X89602438Y-46110166D02*
X89697676Y-46014928D01*
X89697676Y-46014928D02*
X89888152Y-45967309D01*
X89888152Y-45967309D02*
X90221485Y-45967309D01*
X90221485Y-45967309D02*
X90411961Y-46014928D01*
X90411961Y-46014928D02*
X90507200Y-46110166D01*
X90507200Y-46110166D02*
X90554819Y-46205404D01*
X90554819Y-46205404D02*
X90554819Y-46395880D01*
X90554819Y-46395880D02*
X90507200Y-46491118D01*
X90507200Y-46491118D02*
X90411961Y-46586356D01*
X90411961Y-46586356D02*
X90221485Y-46633975D01*
X90221485Y-46633975D02*
X89888152Y-46633975D01*
X89888152Y-46633975D02*
X89697676Y-46586356D01*
X89697676Y-46586356D02*
X89602438Y-46491118D01*
X89602438Y-46491118D02*
X89554819Y-46395880D01*
X89888152Y-45110166D02*
X90554819Y-45110166D01*
X89888152Y-45538737D02*
X90411961Y-45538737D01*
X90411961Y-45538737D02*
X90507200Y-45491118D01*
X90507200Y-45491118D02*
X90554819Y-45395880D01*
X90554819Y-45395880D02*
X90554819Y-45253023D01*
X90554819Y-45253023D02*
X90507200Y-45157785D01*
X90507200Y-45157785D02*
X90459580Y-45110166D01*
X89888152Y-44776832D02*
X89888152Y-44395880D01*
X89554819Y-44633975D02*
X90411961Y-44633975D01*
X90411961Y-44633975D02*
X90507200Y-44586356D01*
X90507200Y-44586356D02*
X90554819Y-44491118D01*
X90554819Y-44491118D02*
X90554819Y-44395880D01*
X90173866Y-44062546D02*
X90173866Y-43300642D01*
X90554819Y-43681594D02*
X89792914Y-43681594D01*
X90173866Y-28324451D02*
X90173866Y-27562547D01*
X90554819Y-27943499D02*
X89792914Y-27943499D01*
X74954819Y-46395880D02*
X74954819Y-46205404D01*
X74954819Y-46205404D02*
X75002438Y-46110166D01*
X75002438Y-46110166D02*
X75097676Y-46014928D01*
X75097676Y-46014928D02*
X75288152Y-45967309D01*
X75288152Y-45967309D02*
X75621485Y-45967309D01*
X75621485Y-45967309D02*
X75811961Y-46014928D01*
X75811961Y-46014928D02*
X75907200Y-46110166D01*
X75907200Y-46110166D02*
X75954819Y-46205404D01*
X75954819Y-46205404D02*
X75954819Y-46395880D01*
X75954819Y-46395880D02*
X75907200Y-46491118D01*
X75907200Y-46491118D02*
X75811961Y-46586356D01*
X75811961Y-46586356D02*
X75621485Y-46633975D01*
X75621485Y-46633975D02*
X75288152Y-46633975D01*
X75288152Y-46633975D02*
X75097676Y-46586356D01*
X75097676Y-46586356D02*
X75002438Y-46491118D01*
X75002438Y-46491118D02*
X74954819Y-46395880D01*
X75288152Y-45110166D02*
X75954819Y-45110166D01*
X75288152Y-45538737D02*
X75811961Y-45538737D01*
X75811961Y-45538737D02*
X75907200Y-45491118D01*
X75907200Y-45491118D02*
X75954819Y-45395880D01*
X75954819Y-45395880D02*
X75954819Y-45253023D01*
X75954819Y-45253023D02*
X75907200Y-45157785D01*
X75907200Y-45157785D02*
X75859580Y-45110166D01*
X75288152Y-44776832D02*
X75288152Y-44395880D01*
X74954819Y-44633975D02*
X75811961Y-44633975D01*
X75811961Y-44633975D02*
X75907200Y-44586356D01*
X75907200Y-44586356D02*
X75954819Y-44491118D01*
X75954819Y-44491118D02*
X75954819Y-44395880D01*
X75573866Y-44062546D02*
X75573866Y-43300642D01*
X87054819Y-25886357D02*
X87054819Y-26362547D01*
X87054819Y-26362547D02*
X87531009Y-26410166D01*
X87531009Y-26410166D02*
X87483390Y-26362547D01*
X87483390Y-26362547D02*
X87435771Y-26267309D01*
X87435771Y-26267309D02*
X87435771Y-26029214D01*
X87435771Y-26029214D02*
X87483390Y-25933976D01*
X87483390Y-25933976D02*
X87531009Y-25886357D01*
X87531009Y-25886357D02*
X87626247Y-25838738D01*
X87626247Y-25838738D02*
X87864342Y-25838738D01*
X87864342Y-25838738D02*
X87959580Y-25886357D01*
X87959580Y-25886357D02*
X88007200Y-25933976D01*
X88007200Y-25933976D02*
X88054819Y-26029214D01*
X88054819Y-26029214D02*
X88054819Y-26267309D01*
X88054819Y-26267309D02*
X88007200Y-26362547D01*
X88007200Y-26362547D02*
X87959580Y-26410166D01*
X87388152Y-25505404D02*
X88054819Y-25267309D01*
X88054819Y-25267309D02*
X87388152Y-25029214D01*
X74973866Y-28424451D02*
X74973866Y-27662547D01*
X77502438Y-26605404D02*
X77454819Y-26700642D01*
X77454819Y-26700642D02*
X77454819Y-26843499D01*
X77454819Y-26843499D02*
X77502438Y-26986356D01*
X77502438Y-26986356D02*
X77597676Y-27081594D01*
X77597676Y-27081594D02*
X77692914Y-27129213D01*
X77692914Y-27129213D02*
X77883390Y-27176832D01*
X77883390Y-27176832D02*
X78026247Y-27176832D01*
X78026247Y-27176832D02*
X78216723Y-27129213D01*
X78216723Y-27129213D02*
X78311961Y-27081594D01*
X78311961Y-27081594D02*
X78407200Y-26986356D01*
X78407200Y-26986356D02*
X78454819Y-26843499D01*
X78454819Y-26843499D02*
X78454819Y-26748261D01*
X78454819Y-26748261D02*
X78407200Y-26605404D01*
X78407200Y-26605404D02*
X78359580Y-26557785D01*
X78359580Y-26557785D02*
X78026247Y-26557785D01*
X78026247Y-26557785D02*
X78026247Y-26748261D01*
X78454819Y-26129213D02*
X77454819Y-26129213D01*
X77454819Y-26129213D02*
X78454819Y-25557785D01*
X78454819Y-25557785D02*
X77454819Y-25557785D01*
X78454819Y-25081594D02*
X77454819Y-25081594D01*
X77454819Y-25081594D02*
X77454819Y-24843499D01*
X77454819Y-24843499D02*
X77502438Y-24700642D01*
X77502438Y-24700642D02*
X77597676Y-24605404D01*
X77597676Y-24605404D02*
X77692914Y-24557785D01*
X77692914Y-24557785D02*
X77883390Y-24510166D01*
X77883390Y-24510166D02*
X78026247Y-24510166D01*
X78026247Y-24510166D02*
X78216723Y-24557785D01*
X78216723Y-24557785D02*
X78311961Y-24605404D01*
X78311961Y-24605404D02*
X78407200Y-24700642D01*
X78407200Y-24700642D02*
X78454819Y-24843499D01*
X78454819Y-24843499D02*
X78454819Y-25081594D01*
X86531009Y-46291118D02*
X86578628Y-46148261D01*
X86578628Y-46148261D02*
X86626247Y-46100642D01*
X86626247Y-46100642D02*
X86721485Y-46053023D01*
X86721485Y-46053023D02*
X86864342Y-46053023D01*
X86864342Y-46053023D02*
X86959580Y-46100642D01*
X86959580Y-46100642D02*
X87007200Y-46148261D01*
X87007200Y-46148261D02*
X87054819Y-46243499D01*
X87054819Y-46243499D02*
X87054819Y-46624451D01*
X87054819Y-46624451D02*
X86054819Y-46624451D01*
X86054819Y-46624451D02*
X86054819Y-46291118D01*
X86054819Y-46291118D02*
X86102438Y-46195880D01*
X86102438Y-46195880D02*
X86150057Y-46148261D01*
X86150057Y-46148261D02*
X86245295Y-46100642D01*
X86245295Y-46100642D02*
X86340533Y-46100642D01*
X86340533Y-46100642D02*
X86435771Y-46148261D01*
X86435771Y-46148261D02*
X86483390Y-46195880D01*
X86483390Y-46195880D02*
X86531009Y-46291118D01*
X86531009Y-46291118D02*
X86531009Y-46624451D01*
X86673866Y-45624451D02*
X86673866Y-44862547D01*
X87054819Y-45243499D02*
X86292914Y-45243499D01*
X64833333Y-98103080D02*
X64785714Y-98150700D01*
X64785714Y-98150700D02*
X64642857Y-98198319D01*
X64642857Y-98198319D02*
X64547619Y-98198319D01*
X64547619Y-98198319D02*
X64404762Y-98150700D01*
X64404762Y-98150700D02*
X64309524Y-98055461D01*
X64309524Y-98055461D02*
X64261905Y-97960223D01*
X64261905Y-97960223D02*
X64214286Y-97769747D01*
X64214286Y-97769747D02*
X64214286Y-97626890D01*
X64214286Y-97626890D02*
X64261905Y-97436414D01*
X64261905Y-97436414D02*
X64309524Y-97341176D01*
X64309524Y-97341176D02*
X64404762Y-97245938D01*
X64404762Y-97245938D02*
X64547619Y-97198319D01*
X64547619Y-97198319D02*
X64642857Y-97198319D01*
X64642857Y-97198319D02*
X64785714Y-97245938D01*
X64785714Y-97245938D02*
X64833333Y-97293557D01*
X65214286Y-97293557D02*
X65261905Y-97245938D01*
X65261905Y-97245938D02*
X65357143Y-97198319D01*
X65357143Y-97198319D02*
X65595238Y-97198319D01*
X65595238Y-97198319D02*
X65690476Y-97245938D01*
X65690476Y-97245938D02*
X65738095Y-97293557D01*
X65738095Y-97293557D02*
X65785714Y-97388795D01*
X65785714Y-97388795D02*
X65785714Y-97484033D01*
X65785714Y-97484033D02*
X65738095Y-97626890D01*
X65738095Y-97626890D02*
X65166667Y-98198319D01*
X65166667Y-98198319D02*
X65785714Y-98198319D01*
X56833333Y-98103080D02*
X56785714Y-98150700D01*
X56785714Y-98150700D02*
X56642857Y-98198319D01*
X56642857Y-98198319D02*
X56547619Y-98198319D01*
X56547619Y-98198319D02*
X56404762Y-98150700D01*
X56404762Y-98150700D02*
X56309524Y-98055461D01*
X56309524Y-98055461D02*
X56261905Y-97960223D01*
X56261905Y-97960223D02*
X56214286Y-97769747D01*
X56214286Y-97769747D02*
X56214286Y-97626890D01*
X56214286Y-97626890D02*
X56261905Y-97436414D01*
X56261905Y-97436414D02*
X56309524Y-97341176D01*
X56309524Y-97341176D02*
X56404762Y-97245938D01*
X56404762Y-97245938D02*
X56547619Y-97198319D01*
X56547619Y-97198319D02*
X56642857Y-97198319D01*
X56642857Y-97198319D02*
X56785714Y-97245938D01*
X56785714Y-97245938D02*
X56833333Y-97293557D01*
X57785714Y-98198319D02*
X57214286Y-98198319D01*
X57500000Y-98198319D02*
X57500000Y-97198319D01*
X57500000Y-97198319D02*
X57404762Y-97341176D01*
X57404762Y-97341176D02*
X57309524Y-97436414D01*
X57309524Y-97436414D02*
X57214286Y-97484033D01*
X110531009Y-64785714D02*
X110578628Y-64642857D01*
X110578628Y-64642857D02*
X110626247Y-64595238D01*
X110626247Y-64595238D02*
X110721485Y-64547619D01*
X110721485Y-64547619D02*
X110864342Y-64547619D01*
X110864342Y-64547619D02*
X110959580Y-64595238D01*
X110959580Y-64595238D02*
X111007200Y-64642857D01*
X111007200Y-64642857D02*
X111054819Y-64738095D01*
X111054819Y-64738095D02*
X111054819Y-65119047D01*
X111054819Y-65119047D02*
X110054819Y-65119047D01*
X110054819Y-65119047D02*
X110054819Y-64785714D01*
X110054819Y-64785714D02*
X110102438Y-64690476D01*
X110102438Y-64690476D02*
X110150057Y-64642857D01*
X110150057Y-64642857D02*
X110245295Y-64595238D01*
X110245295Y-64595238D02*
X110340533Y-64595238D01*
X110340533Y-64595238D02*
X110435771Y-64642857D01*
X110435771Y-64642857D02*
X110483390Y-64690476D01*
X110483390Y-64690476D02*
X110531009Y-64785714D01*
X110531009Y-64785714D02*
X110531009Y-65119047D01*
X110054819Y-64261904D02*
X110054819Y-63690476D01*
X111054819Y-63976190D02*
X110054819Y-63976190D01*
X111054819Y-62833333D02*
X111054819Y-63404761D01*
X111054819Y-63119047D02*
X110054819Y-63119047D01*
X110054819Y-63119047D02*
X110197676Y-63214285D01*
X110197676Y-63214285D02*
X110292914Y-63309523D01*
X110292914Y-63309523D02*
X110340533Y-63404761D01*
X122787200Y-106092857D02*
X122787200Y-103807143D01*
X123930057Y-104950000D02*
X121644342Y-104950000D01*
X59501819Y-88585404D02*
X60311342Y-88585404D01*
X60311342Y-88585404D02*
X60406580Y-88537785D01*
X60406580Y-88537785D02*
X60454200Y-88490166D01*
X60454200Y-88490166D02*
X60501819Y-88394928D01*
X60501819Y-88394928D02*
X60501819Y-88204452D01*
X60501819Y-88204452D02*
X60454200Y-88109214D01*
X60454200Y-88109214D02*
X60406580Y-88061595D01*
X60406580Y-88061595D02*
X60311342Y-88013976D01*
X60311342Y-88013976D02*
X59501819Y-88013976D01*
X59501819Y-87633023D02*
X59501819Y-87013976D01*
X59501819Y-87013976D02*
X59882771Y-87347309D01*
X59882771Y-87347309D02*
X59882771Y-87204452D01*
X59882771Y-87204452D02*
X59930390Y-87109214D01*
X59930390Y-87109214D02*
X59978009Y-87061595D01*
X59978009Y-87061595D02*
X60073247Y-87013976D01*
X60073247Y-87013976D02*
X60311342Y-87013976D01*
X60311342Y-87013976D02*
X60406580Y-87061595D01*
X60406580Y-87061595D02*
X60454200Y-87109214D01*
X60454200Y-87109214D02*
X60501819Y-87204452D01*
X60501819Y-87204452D02*
X60501819Y-87490166D01*
X60501819Y-87490166D02*
X60454200Y-87585404D01*
X60454200Y-87585404D02*
X60406580Y-87633023D01*
D14*
X69171231Y-94174966D02*
X69212355Y-94051594D01*
X69212355Y-94051594D02*
X69253479Y-94010471D01*
X69253479Y-94010471D02*
X69335727Y-93969347D01*
X69335727Y-93969347D02*
X69459098Y-93969347D01*
X69459098Y-93969347D02*
X69541346Y-94010471D01*
X69541346Y-94010471D02*
X69582470Y-94051594D01*
X69582470Y-94051594D02*
X69623593Y-94133842D01*
X69623593Y-94133842D02*
X69623593Y-94462832D01*
X69623593Y-94462832D02*
X68759993Y-94462832D01*
X68759993Y-94462832D02*
X68759993Y-94174966D01*
X68759993Y-94174966D02*
X68801117Y-94092718D01*
X68801117Y-94092718D02*
X68842241Y-94051594D01*
X68842241Y-94051594D02*
X68924489Y-94010471D01*
X68924489Y-94010471D02*
X69006736Y-94010471D01*
X69006736Y-94010471D02*
X69088984Y-94051594D01*
X69088984Y-94051594D02*
X69130108Y-94092718D01*
X69130108Y-94092718D02*
X69171231Y-94174966D01*
X69171231Y-94174966D02*
X69171231Y-94462832D01*
X69541346Y-93105747D02*
X69582470Y-93146871D01*
X69582470Y-93146871D02*
X69623593Y-93270242D01*
X69623593Y-93270242D02*
X69623593Y-93352490D01*
X69623593Y-93352490D02*
X69582470Y-93475861D01*
X69582470Y-93475861D02*
X69500222Y-93558109D01*
X69500222Y-93558109D02*
X69417974Y-93599232D01*
X69417974Y-93599232D02*
X69253479Y-93640356D01*
X69253479Y-93640356D02*
X69130108Y-93640356D01*
X69130108Y-93640356D02*
X68965612Y-93599232D01*
X68965612Y-93599232D02*
X68883365Y-93558109D01*
X68883365Y-93558109D02*
X68801117Y-93475861D01*
X68801117Y-93475861D02*
X68759993Y-93352490D01*
X68759993Y-93352490D02*
X68759993Y-93270242D01*
X68759993Y-93270242D02*
X68801117Y-93146871D01*
X68801117Y-93146871D02*
X68842241Y-93105747D01*
X69623593Y-92324394D02*
X69623593Y-92735632D01*
X69623593Y-92735632D02*
X68759993Y-92735632D01*
X69623593Y-92036527D02*
X68759993Y-92036527D01*
X69623593Y-91543042D02*
X69130108Y-91913156D01*
X68759993Y-91543042D02*
X69253479Y-92036527D01*
X65082470Y-86209042D02*
X65123593Y-86085671D01*
X65123593Y-86085671D02*
X65123593Y-85880052D01*
X65123593Y-85880052D02*
X65082470Y-85797804D01*
X65082470Y-85797804D02*
X65041346Y-85756680D01*
X65041346Y-85756680D02*
X64959098Y-85715557D01*
X64959098Y-85715557D02*
X64876850Y-85715557D01*
X64876850Y-85715557D02*
X64794603Y-85756680D01*
X64794603Y-85756680D02*
X64753479Y-85797804D01*
X64753479Y-85797804D02*
X64712355Y-85880052D01*
X64712355Y-85880052D02*
X64671231Y-86044547D01*
X64671231Y-86044547D02*
X64630108Y-86126795D01*
X64630108Y-86126795D02*
X64588984Y-86167918D01*
X64588984Y-86167918D02*
X64506736Y-86209042D01*
X64506736Y-86209042D02*
X64424489Y-86209042D01*
X64424489Y-86209042D02*
X64342241Y-86167918D01*
X64342241Y-86167918D02*
X64301117Y-86126795D01*
X64301117Y-86126795D02*
X64259993Y-86044547D01*
X64259993Y-86044547D02*
X64259993Y-85838928D01*
X64259993Y-85838928D02*
X64301117Y-85715557D01*
X65123593Y-85345442D02*
X64259993Y-85345442D01*
X64259993Y-85345442D02*
X64259993Y-85139823D01*
X64259993Y-85139823D02*
X64301117Y-85016452D01*
X64301117Y-85016452D02*
X64383365Y-84934204D01*
X64383365Y-84934204D02*
X64465612Y-84893081D01*
X64465612Y-84893081D02*
X64630108Y-84851957D01*
X64630108Y-84851957D02*
X64753479Y-84851957D01*
X64753479Y-84851957D02*
X64917974Y-84893081D01*
X64917974Y-84893081D02*
X65000222Y-84934204D01*
X65000222Y-84934204D02*
X65082470Y-85016452D01*
X65082470Y-85016452D02*
X65123593Y-85139823D01*
X65123593Y-85139823D02*
X65123593Y-85345442D01*
X65123593Y-95651794D02*
X65123593Y-96063032D01*
X65123593Y-96063032D02*
X64259993Y-96063032D01*
X65123593Y-94870442D02*
X64712355Y-95158308D01*
X65123593Y-95363927D02*
X64259993Y-95363927D01*
X64259993Y-95363927D02*
X64259993Y-95034937D01*
X64259993Y-95034937D02*
X64301117Y-94952689D01*
X64301117Y-94952689D02*
X64342241Y-94911566D01*
X64342241Y-94911566D02*
X64424489Y-94870442D01*
X64424489Y-94870442D02*
X64547860Y-94870442D01*
X64547860Y-94870442D02*
X64630108Y-94911566D01*
X64630108Y-94911566D02*
X64671231Y-94952689D01*
X64671231Y-94952689D02*
X64712355Y-95034937D01*
X64712355Y-95034937D02*
X64712355Y-95363927D01*
X65041346Y-94006842D02*
X65082470Y-94047966D01*
X65082470Y-94047966D02*
X65123593Y-94171337D01*
X65123593Y-94171337D02*
X65123593Y-94253585D01*
X65123593Y-94253585D02*
X65082470Y-94376956D01*
X65082470Y-94376956D02*
X65000222Y-94459204D01*
X65000222Y-94459204D02*
X64917974Y-94500327D01*
X64917974Y-94500327D02*
X64753479Y-94541451D01*
X64753479Y-94541451D02*
X64630108Y-94541451D01*
X64630108Y-94541451D02*
X64465612Y-94500327D01*
X64465612Y-94500327D02*
X64383365Y-94459204D01*
X64383365Y-94459204D02*
X64301117Y-94376956D01*
X64301117Y-94376956D02*
X64259993Y-94253585D01*
X64259993Y-94253585D02*
X64259993Y-94171337D01*
X64259993Y-94171337D02*
X64301117Y-94047966D01*
X64301117Y-94047966D02*
X64342241Y-94006842D01*
X68801117Y-83521481D02*
X68759993Y-83603728D01*
X68759993Y-83603728D02*
X68759993Y-83727100D01*
X68759993Y-83727100D02*
X68801117Y-83850471D01*
X68801117Y-83850471D02*
X68883365Y-83932719D01*
X68883365Y-83932719D02*
X68965612Y-83973842D01*
X68965612Y-83973842D02*
X69130108Y-84014966D01*
X69130108Y-84014966D02*
X69253479Y-84014966D01*
X69253479Y-84014966D02*
X69417974Y-83973842D01*
X69417974Y-83973842D02*
X69500222Y-83932719D01*
X69500222Y-83932719D02*
X69582470Y-83850471D01*
X69582470Y-83850471D02*
X69623593Y-83727100D01*
X69623593Y-83727100D02*
X69623593Y-83644852D01*
X69623593Y-83644852D02*
X69582470Y-83521481D01*
X69582470Y-83521481D02*
X69541346Y-83480357D01*
X69541346Y-83480357D02*
X69253479Y-83480357D01*
X69253479Y-83480357D02*
X69253479Y-83644852D01*
X69623593Y-83110242D02*
X68759993Y-83110242D01*
X68759993Y-83110242D02*
X69623593Y-82616757D01*
X69623593Y-82616757D02*
X68759993Y-82616757D01*
X69623593Y-82205518D02*
X68759993Y-82205518D01*
X68759993Y-82205518D02*
X68759993Y-81999899D01*
X68759993Y-81999899D02*
X68801117Y-81876528D01*
X68801117Y-81876528D02*
X68883365Y-81794280D01*
X68883365Y-81794280D02*
X68965612Y-81753157D01*
X68965612Y-81753157D02*
X69130108Y-81712033D01*
X69130108Y-81712033D02*
X69253479Y-81712033D01*
X69253479Y-81712033D02*
X69417974Y-81753157D01*
X69417974Y-81753157D02*
X69500222Y-81794280D01*
X69500222Y-81794280D02*
X69582470Y-81876528D01*
X69582470Y-81876528D02*
X69623593Y-81999899D01*
X69623593Y-81999899D02*
X69623593Y-82205518D01*
X65123593Y-91240661D02*
X64259993Y-91240661D01*
X64259993Y-91240661D02*
X64259993Y-91035042D01*
X64259993Y-91035042D02*
X64301117Y-90911671D01*
X64301117Y-90911671D02*
X64383365Y-90829423D01*
X64383365Y-90829423D02*
X64465612Y-90788300D01*
X64465612Y-90788300D02*
X64630108Y-90747176D01*
X64630108Y-90747176D02*
X64753479Y-90747176D01*
X64753479Y-90747176D02*
X64917974Y-90788300D01*
X64917974Y-90788300D02*
X65000222Y-90829423D01*
X65000222Y-90829423D02*
X65082470Y-90911671D01*
X65082470Y-90911671D02*
X65123593Y-91035042D01*
X65123593Y-91035042D02*
X65123593Y-91240661D01*
X65123593Y-90377061D02*
X64259993Y-90377061D01*
X65123593Y-89965823D02*
X64259993Y-89965823D01*
X64259993Y-89965823D02*
X65123593Y-89472338D01*
X65123593Y-89472338D02*
X64259993Y-89472338D01*
X68801117Y-88745414D02*
X68759993Y-88827661D01*
X68759993Y-88827661D02*
X68759993Y-88951033D01*
X68759993Y-88951033D02*
X68801117Y-89074404D01*
X68801117Y-89074404D02*
X68883365Y-89156652D01*
X68883365Y-89156652D02*
X68965612Y-89197775D01*
X68965612Y-89197775D02*
X69130108Y-89238899D01*
X69130108Y-89238899D02*
X69253479Y-89238899D01*
X69253479Y-89238899D02*
X69417974Y-89197775D01*
X69417974Y-89197775D02*
X69500222Y-89156652D01*
X69500222Y-89156652D02*
X69582470Y-89074404D01*
X69582470Y-89074404D02*
X69623593Y-88951033D01*
X69623593Y-88951033D02*
X69623593Y-88868785D01*
X69623593Y-88868785D02*
X69582470Y-88745414D01*
X69582470Y-88745414D02*
X69541346Y-88704290D01*
X69541346Y-88704290D02*
X69253479Y-88704290D01*
X69253479Y-88704290D02*
X69253479Y-88868785D01*
X69376850Y-88375299D02*
X69376850Y-87964061D01*
X69623593Y-88457547D02*
X68759993Y-88169680D01*
X68759993Y-88169680D02*
X69623593Y-87881814D01*
X69623593Y-87593946D02*
X68759993Y-87593946D01*
X69623593Y-87182708D02*
X68759993Y-87182708D01*
X68759993Y-87182708D02*
X69623593Y-86689223D01*
X69623593Y-86689223D02*
X68759993Y-86689223D01*
X64259993Y-81080661D02*
X65123593Y-80792794D01*
X65123593Y-80792794D02*
X64259993Y-80504928D01*
X65123593Y-80217060D02*
X64547860Y-80217060D01*
X64259993Y-80217060D02*
X64301117Y-80258184D01*
X64301117Y-80258184D02*
X64342241Y-80217060D01*
X64342241Y-80217060D02*
X64301117Y-80175937D01*
X64301117Y-80175937D02*
X64259993Y-80217060D01*
X64259993Y-80217060D02*
X64342241Y-80217060D01*
X64547860Y-79805822D02*
X65123593Y-79805822D01*
X64630108Y-79805822D02*
X64588984Y-79764699D01*
X64588984Y-79764699D02*
X64547860Y-79682451D01*
X64547860Y-79682451D02*
X64547860Y-79559080D01*
X64547860Y-79559080D02*
X64588984Y-79476832D01*
X64588984Y-79476832D02*
X64671231Y-79435708D01*
X64671231Y-79435708D02*
X65123593Y-79435708D01*
D12*
X90054819Y-38905404D02*
X90054819Y-38333976D01*
X91054819Y-38619690D02*
X90054819Y-38619690D01*
X91054819Y-38000642D02*
X90054819Y-38000642D01*
X90054819Y-38000642D02*
X90054819Y-37619690D01*
X90054819Y-37619690D02*
X90102438Y-37524452D01*
X90102438Y-37524452D02*
X90150057Y-37476833D01*
X90150057Y-37476833D02*
X90245295Y-37429214D01*
X90245295Y-37429214D02*
X90388152Y-37429214D01*
X90388152Y-37429214D02*
X90483390Y-37476833D01*
X90483390Y-37476833D02*
X90531009Y-37524452D01*
X90531009Y-37524452D02*
X90578628Y-37619690D01*
X90578628Y-37619690D02*
X90578628Y-38000642D01*
X90150057Y-37048261D02*
X90102438Y-37000642D01*
X90102438Y-37000642D02*
X90054819Y-36905404D01*
X90054819Y-36905404D02*
X90054819Y-36667309D01*
X90054819Y-36667309D02*
X90102438Y-36572071D01*
X90102438Y-36572071D02*
X90150057Y-36524452D01*
X90150057Y-36524452D02*
X90245295Y-36476833D01*
X90245295Y-36476833D02*
X90340533Y-36476833D01*
X90340533Y-36476833D02*
X90483390Y-36524452D01*
X90483390Y-36524452D02*
X91054819Y-37095880D01*
X91054819Y-37095880D02*
X91054819Y-36476833D01*
X101231009Y-43386358D02*
X101278628Y-43243501D01*
X101278628Y-43243501D02*
X101326247Y-43195882D01*
X101326247Y-43195882D02*
X101421485Y-43148263D01*
X101421485Y-43148263D02*
X101564342Y-43148263D01*
X101564342Y-43148263D02*
X101659580Y-43195882D01*
X101659580Y-43195882D02*
X101707200Y-43243501D01*
X101707200Y-43243501D02*
X101754819Y-43338739D01*
X101754819Y-43338739D02*
X101754819Y-43719691D01*
X101754819Y-43719691D02*
X100754819Y-43719691D01*
X100754819Y-43719691D02*
X100754819Y-43386358D01*
X100754819Y-43386358D02*
X100802438Y-43291120D01*
X100802438Y-43291120D02*
X100850057Y-43243501D01*
X100850057Y-43243501D02*
X100945295Y-43195882D01*
X100945295Y-43195882D02*
X101040533Y-43195882D01*
X101040533Y-43195882D02*
X101135771Y-43243501D01*
X101135771Y-43243501D02*
X101183390Y-43291120D01*
X101183390Y-43291120D02*
X101231009Y-43386358D01*
X101231009Y-43386358D02*
X101231009Y-43719691D01*
X101754819Y-42291120D02*
X101231009Y-42291120D01*
X101231009Y-42291120D02*
X101135771Y-42338739D01*
X101135771Y-42338739D02*
X101088152Y-42433977D01*
X101088152Y-42433977D02*
X101088152Y-42624453D01*
X101088152Y-42624453D02*
X101135771Y-42719691D01*
X101707200Y-42291120D02*
X101754819Y-42386358D01*
X101754819Y-42386358D02*
X101754819Y-42624453D01*
X101754819Y-42624453D02*
X101707200Y-42719691D01*
X101707200Y-42719691D02*
X101611961Y-42767310D01*
X101611961Y-42767310D02*
X101516723Y-42767310D01*
X101516723Y-42767310D02*
X101421485Y-42719691D01*
X101421485Y-42719691D02*
X101373866Y-42624453D01*
X101373866Y-42624453D02*
X101373866Y-42386358D01*
X101373866Y-42386358D02*
X101326247Y-42291120D01*
X101088152Y-41957786D02*
X101088152Y-41576834D01*
X100754819Y-41814929D02*
X101611961Y-41814929D01*
X101611961Y-41814929D02*
X101707200Y-41767310D01*
X101707200Y-41767310D02*
X101754819Y-41672072D01*
X101754819Y-41672072D02*
X101754819Y-41576834D01*
X101088152Y-41386357D02*
X101088152Y-41005405D01*
X100754819Y-41243500D02*
X101611961Y-41243500D01*
X101611961Y-41243500D02*
X101707200Y-41195881D01*
X101707200Y-41195881D02*
X101754819Y-41100643D01*
X101754819Y-41100643D02*
X101754819Y-41005405D01*
X101707200Y-40291119D02*
X101754819Y-40386357D01*
X101754819Y-40386357D02*
X101754819Y-40576833D01*
X101754819Y-40576833D02*
X101707200Y-40672071D01*
X101707200Y-40672071D02*
X101611961Y-40719690D01*
X101611961Y-40719690D02*
X101231009Y-40719690D01*
X101231009Y-40719690D02*
X101135771Y-40672071D01*
X101135771Y-40672071D02*
X101088152Y-40576833D01*
X101088152Y-40576833D02*
X101088152Y-40386357D01*
X101088152Y-40386357D02*
X101135771Y-40291119D01*
X101135771Y-40291119D02*
X101231009Y-40243500D01*
X101231009Y-40243500D02*
X101326247Y-40243500D01*
X101326247Y-40243500D02*
X101421485Y-40719690D01*
X101754819Y-39814928D02*
X101088152Y-39814928D01*
X101278628Y-39814928D02*
X101183390Y-39767309D01*
X101183390Y-39767309D02*
X101135771Y-39719690D01*
X101135771Y-39719690D02*
X101088152Y-39624452D01*
X101088152Y-39624452D02*
X101088152Y-39529214D01*
X101088152Y-39291118D02*
X101754819Y-39053023D01*
X101088152Y-38814928D02*
X101754819Y-39053023D01*
X101754819Y-39053023D02*
X101992914Y-39148261D01*
X101992914Y-39148261D02*
X102040533Y-39195880D01*
X102040533Y-39195880D02*
X102088152Y-39291118D01*
X101659580Y-37100642D02*
X101707200Y-37148261D01*
X101707200Y-37148261D02*
X101754819Y-37291118D01*
X101754819Y-37291118D02*
X101754819Y-37386356D01*
X101754819Y-37386356D02*
X101707200Y-37529213D01*
X101707200Y-37529213D02*
X101611961Y-37624451D01*
X101611961Y-37624451D02*
X101516723Y-37672070D01*
X101516723Y-37672070D02*
X101326247Y-37719689D01*
X101326247Y-37719689D02*
X101183390Y-37719689D01*
X101183390Y-37719689D02*
X100992914Y-37672070D01*
X100992914Y-37672070D02*
X100897676Y-37624451D01*
X100897676Y-37624451D02*
X100802438Y-37529213D01*
X100802438Y-37529213D02*
X100754819Y-37386356D01*
X100754819Y-37386356D02*
X100754819Y-37291118D01*
X100754819Y-37291118D02*
X100802438Y-37148261D01*
X100802438Y-37148261D02*
X100850057Y-37100642D01*
X101754819Y-36672070D02*
X100754819Y-36672070D01*
X101754819Y-36243499D02*
X101231009Y-36243499D01*
X101231009Y-36243499D02*
X101135771Y-36291118D01*
X101135771Y-36291118D02*
X101088152Y-36386356D01*
X101088152Y-36386356D02*
X101088152Y-36529213D01*
X101088152Y-36529213D02*
X101135771Y-36624451D01*
X101135771Y-36624451D02*
X101183390Y-36672070D01*
X101754819Y-35338737D02*
X101231009Y-35338737D01*
X101231009Y-35338737D02*
X101135771Y-35386356D01*
X101135771Y-35386356D02*
X101088152Y-35481594D01*
X101088152Y-35481594D02*
X101088152Y-35672070D01*
X101088152Y-35672070D02*
X101135771Y-35767308D01*
X101707200Y-35338737D02*
X101754819Y-35433975D01*
X101754819Y-35433975D02*
X101754819Y-35672070D01*
X101754819Y-35672070D02*
X101707200Y-35767308D01*
X101707200Y-35767308D02*
X101611961Y-35814927D01*
X101611961Y-35814927D02*
X101516723Y-35814927D01*
X101516723Y-35814927D02*
X101421485Y-35767308D01*
X101421485Y-35767308D02*
X101373866Y-35672070D01*
X101373866Y-35672070D02*
X101373866Y-35433975D01*
X101373866Y-35433975D02*
X101326247Y-35338737D01*
X101754819Y-34862546D02*
X101088152Y-34862546D01*
X101278628Y-34862546D02*
X101183390Y-34814927D01*
X101183390Y-34814927D02*
X101135771Y-34767308D01*
X101135771Y-34767308D02*
X101088152Y-34672070D01*
X101088152Y-34672070D02*
X101088152Y-34576832D01*
X101088152Y-33814927D02*
X101897676Y-33814927D01*
X101897676Y-33814927D02*
X101992914Y-33862546D01*
X101992914Y-33862546D02*
X102040533Y-33910165D01*
X102040533Y-33910165D02*
X102088152Y-34005403D01*
X102088152Y-34005403D02*
X102088152Y-34148260D01*
X102088152Y-34148260D02*
X102040533Y-34243498D01*
X101707200Y-33814927D02*
X101754819Y-33910165D01*
X101754819Y-33910165D02*
X101754819Y-34100641D01*
X101754819Y-34100641D02*
X101707200Y-34195879D01*
X101707200Y-34195879D02*
X101659580Y-34243498D01*
X101659580Y-34243498D02*
X101564342Y-34291117D01*
X101564342Y-34291117D02*
X101278628Y-34291117D01*
X101278628Y-34291117D02*
X101183390Y-34243498D01*
X101183390Y-34243498D02*
X101135771Y-34195879D01*
X101135771Y-34195879D02*
X101088152Y-34100641D01*
X101088152Y-34100641D02*
X101088152Y-33910165D01*
X101088152Y-33910165D02*
X101135771Y-33814927D01*
X101707200Y-32957784D02*
X101754819Y-33053022D01*
X101754819Y-33053022D02*
X101754819Y-33243498D01*
X101754819Y-33243498D02*
X101707200Y-33338736D01*
X101707200Y-33338736D02*
X101611961Y-33386355D01*
X101611961Y-33386355D02*
X101231009Y-33386355D01*
X101231009Y-33386355D02*
X101135771Y-33338736D01*
X101135771Y-33338736D02*
X101088152Y-33243498D01*
X101088152Y-33243498D02*
X101088152Y-33053022D01*
X101088152Y-33053022D02*
X101135771Y-32957784D01*
X101135771Y-32957784D02*
X101231009Y-32910165D01*
X101231009Y-32910165D02*
X101326247Y-32910165D01*
X101326247Y-32910165D02*
X101421485Y-33386355D01*
X101754819Y-32481593D02*
X101088152Y-32481593D01*
X101278628Y-32481593D02*
X101183390Y-32433974D01*
X101183390Y-32433974D02*
X101135771Y-32386355D01*
X101135771Y-32386355D02*
X101088152Y-32291117D01*
X101088152Y-32291117D02*
X101088152Y-32195879D01*
X101754819Y-30576831D02*
X101754819Y-31148259D01*
X101754819Y-30862545D02*
X100754819Y-30862545D01*
X100754819Y-30862545D02*
X100897676Y-30957783D01*
X100897676Y-30957783D02*
X100992914Y-31053021D01*
X100992914Y-31053021D02*
X101040533Y-31148259D01*
X101469104Y-30195878D02*
X101469104Y-29719688D01*
X101754819Y-30291116D02*
X100754819Y-29957783D01*
X100754819Y-29957783D02*
X101754819Y-29624450D01*
X97431009Y-46291118D02*
X97478628Y-46148261D01*
X97478628Y-46148261D02*
X97526247Y-46100642D01*
X97526247Y-46100642D02*
X97621485Y-46053023D01*
X97621485Y-46053023D02*
X97764342Y-46053023D01*
X97764342Y-46053023D02*
X97859580Y-46100642D01*
X97859580Y-46100642D02*
X97907200Y-46148261D01*
X97907200Y-46148261D02*
X97954819Y-46243499D01*
X97954819Y-46243499D02*
X97954819Y-46624451D01*
X97954819Y-46624451D02*
X96954819Y-46624451D01*
X96954819Y-46624451D02*
X96954819Y-46291118D01*
X96954819Y-46291118D02*
X97002438Y-46195880D01*
X97002438Y-46195880D02*
X97050057Y-46148261D01*
X97050057Y-46148261D02*
X97145295Y-46100642D01*
X97145295Y-46100642D02*
X97240533Y-46100642D01*
X97240533Y-46100642D02*
X97335771Y-46148261D01*
X97335771Y-46148261D02*
X97383390Y-46195880D01*
X97383390Y-46195880D02*
X97431009Y-46291118D01*
X97431009Y-46291118D02*
X97431009Y-46624451D01*
X97573866Y-45624451D02*
X97573866Y-44862547D01*
X105031009Y-46291118D02*
X105078628Y-46148261D01*
X105078628Y-46148261D02*
X105126247Y-46100642D01*
X105126247Y-46100642D02*
X105221485Y-46053023D01*
X105221485Y-46053023D02*
X105364342Y-46053023D01*
X105364342Y-46053023D02*
X105459580Y-46100642D01*
X105459580Y-46100642D02*
X105507200Y-46148261D01*
X105507200Y-46148261D02*
X105554819Y-46243499D01*
X105554819Y-46243499D02*
X105554819Y-46624451D01*
X105554819Y-46624451D02*
X104554819Y-46624451D01*
X104554819Y-46624451D02*
X104554819Y-46291118D01*
X104554819Y-46291118D02*
X104602438Y-46195880D01*
X104602438Y-46195880D02*
X104650057Y-46148261D01*
X104650057Y-46148261D02*
X104745295Y-46100642D01*
X104745295Y-46100642D02*
X104840533Y-46100642D01*
X104840533Y-46100642D02*
X104935771Y-46148261D01*
X104935771Y-46148261D02*
X104983390Y-46195880D01*
X104983390Y-46195880D02*
X105031009Y-46291118D01*
X105031009Y-46291118D02*
X105031009Y-46624451D01*
X105173866Y-45624451D02*
X105173866Y-44862547D01*
X105554819Y-45243499D02*
X104792914Y-45243499D01*
X93454819Y-46395880D02*
X93454819Y-46205404D01*
X93454819Y-46205404D02*
X93502438Y-46110166D01*
X93502438Y-46110166D02*
X93597676Y-46014928D01*
X93597676Y-46014928D02*
X93788152Y-45967309D01*
X93788152Y-45967309D02*
X94121485Y-45967309D01*
X94121485Y-45967309D02*
X94311961Y-46014928D01*
X94311961Y-46014928D02*
X94407200Y-46110166D01*
X94407200Y-46110166D02*
X94454819Y-46205404D01*
X94454819Y-46205404D02*
X94454819Y-46395880D01*
X94454819Y-46395880D02*
X94407200Y-46491118D01*
X94407200Y-46491118D02*
X94311961Y-46586356D01*
X94311961Y-46586356D02*
X94121485Y-46633975D01*
X94121485Y-46633975D02*
X93788152Y-46633975D01*
X93788152Y-46633975D02*
X93597676Y-46586356D01*
X93597676Y-46586356D02*
X93502438Y-46491118D01*
X93502438Y-46491118D02*
X93454819Y-46395880D01*
X93788152Y-45110166D02*
X94454819Y-45110166D01*
X93788152Y-45538737D02*
X94311961Y-45538737D01*
X94311961Y-45538737D02*
X94407200Y-45491118D01*
X94407200Y-45491118D02*
X94454819Y-45395880D01*
X94454819Y-45395880D02*
X94454819Y-45253023D01*
X94454819Y-45253023D02*
X94407200Y-45157785D01*
X94407200Y-45157785D02*
X94359580Y-45110166D01*
X93788152Y-44776832D02*
X93788152Y-44395880D01*
X93454819Y-44633975D02*
X94311961Y-44633975D01*
X94311961Y-44633975D02*
X94407200Y-44586356D01*
X94407200Y-44586356D02*
X94454819Y-44491118D01*
X94454819Y-44491118D02*
X94454819Y-44395880D01*
X94073866Y-44062546D02*
X94073866Y-43300642D01*
X93473866Y-28424451D02*
X93473866Y-27662547D01*
X99838095Y-25098319D02*
X99838095Y-25907842D01*
X99838095Y-25907842D02*
X99885714Y-26003080D01*
X99885714Y-26003080D02*
X99933333Y-26050700D01*
X99933333Y-26050700D02*
X100028571Y-26098319D01*
X100028571Y-26098319D02*
X100219047Y-26098319D01*
X100219047Y-26098319D02*
X100314285Y-26050700D01*
X100314285Y-26050700D02*
X100361904Y-26003080D01*
X100361904Y-26003080D02*
X100409523Y-25907842D01*
X100409523Y-25907842D02*
X100409523Y-25098319D01*
X100838095Y-26050700D02*
X100980952Y-26098319D01*
X100980952Y-26098319D02*
X101219047Y-26098319D01*
X101219047Y-26098319D02*
X101314285Y-26050700D01*
X101314285Y-26050700D02*
X101361904Y-26003080D01*
X101361904Y-26003080D02*
X101409523Y-25907842D01*
X101409523Y-25907842D02*
X101409523Y-25812604D01*
X101409523Y-25812604D02*
X101361904Y-25717366D01*
X101361904Y-25717366D02*
X101314285Y-25669747D01*
X101314285Y-25669747D02*
X101219047Y-25622128D01*
X101219047Y-25622128D02*
X101028571Y-25574509D01*
X101028571Y-25574509D02*
X100933333Y-25526890D01*
X100933333Y-25526890D02*
X100885714Y-25479271D01*
X100885714Y-25479271D02*
X100838095Y-25384033D01*
X100838095Y-25384033D02*
X100838095Y-25288795D01*
X100838095Y-25288795D02*
X100885714Y-25193557D01*
X100885714Y-25193557D02*
X100933333Y-25145938D01*
X100933333Y-25145938D02*
X101028571Y-25098319D01*
X101028571Y-25098319D02*
X101266666Y-25098319D01*
X101266666Y-25098319D02*
X101409523Y-25145938D01*
X102171428Y-25574509D02*
X102314285Y-25622128D01*
X102314285Y-25622128D02*
X102361904Y-25669747D01*
X102361904Y-25669747D02*
X102409523Y-25764985D01*
X102409523Y-25764985D02*
X102409523Y-25907842D01*
X102409523Y-25907842D02*
X102361904Y-26003080D01*
X102361904Y-26003080D02*
X102314285Y-26050700D01*
X102314285Y-26050700D02*
X102219047Y-26098319D01*
X102219047Y-26098319D02*
X101838095Y-26098319D01*
X101838095Y-26098319D02*
X101838095Y-25098319D01*
X101838095Y-25098319D02*
X102171428Y-25098319D01*
X102171428Y-25098319D02*
X102266666Y-25145938D01*
X102266666Y-25145938D02*
X102314285Y-25193557D01*
X102314285Y-25193557D02*
X102361904Y-25288795D01*
X102361904Y-25288795D02*
X102361904Y-25384033D01*
X102361904Y-25384033D02*
X102314285Y-25479271D01*
X102314285Y-25479271D02*
X102266666Y-25526890D01*
X102266666Y-25526890D02*
X102171428Y-25574509D01*
X102171428Y-25574509D02*
X101838095Y-25574509D01*
X96002438Y-26605404D02*
X95954819Y-26700642D01*
X95954819Y-26700642D02*
X95954819Y-26843499D01*
X95954819Y-26843499D02*
X96002438Y-26986356D01*
X96002438Y-26986356D02*
X96097676Y-27081594D01*
X96097676Y-27081594D02*
X96192914Y-27129213D01*
X96192914Y-27129213D02*
X96383390Y-27176832D01*
X96383390Y-27176832D02*
X96526247Y-27176832D01*
X96526247Y-27176832D02*
X96716723Y-27129213D01*
X96716723Y-27129213D02*
X96811961Y-27081594D01*
X96811961Y-27081594D02*
X96907200Y-26986356D01*
X96907200Y-26986356D02*
X96954819Y-26843499D01*
X96954819Y-26843499D02*
X96954819Y-26748261D01*
X96954819Y-26748261D02*
X96907200Y-26605404D01*
X96907200Y-26605404D02*
X96859580Y-26557785D01*
X96859580Y-26557785D02*
X96526247Y-26557785D01*
X96526247Y-26557785D02*
X96526247Y-26748261D01*
X96954819Y-26129213D02*
X95954819Y-26129213D01*
X95954819Y-26129213D02*
X96954819Y-25557785D01*
X96954819Y-25557785D02*
X95954819Y-25557785D01*
X96954819Y-25081594D02*
X95954819Y-25081594D01*
X95954819Y-25081594D02*
X95954819Y-24843499D01*
X95954819Y-24843499D02*
X96002438Y-24700642D01*
X96002438Y-24700642D02*
X96097676Y-24605404D01*
X96097676Y-24605404D02*
X96192914Y-24557785D01*
X96192914Y-24557785D02*
X96383390Y-24510166D01*
X96383390Y-24510166D02*
X96526247Y-24510166D01*
X96526247Y-24510166D02*
X96716723Y-24557785D01*
X96716723Y-24557785D02*
X96811961Y-24605404D01*
X96811961Y-24605404D02*
X96907200Y-24700642D01*
X96907200Y-24700642D02*
X96954819Y-24843499D01*
X96954819Y-24843499D02*
X96954819Y-25081594D01*
X108054819Y-46395880D02*
X108054819Y-46205404D01*
X108054819Y-46205404D02*
X108102438Y-46110166D01*
X108102438Y-46110166D02*
X108197676Y-46014928D01*
X108197676Y-46014928D02*
X108388152Y-45967309D01*
X108388152Y-45967309D02*
X108721485Y-45967309D01*
X108721485Y-45967309D02*
X108911961Y-46014928D01*
X108911961Y-46014928D02*
X109007200Y-46110166D01*
X109007200Y-46110166D02*
X109054819Y-46205404D01*
X109054819Y-46205404D02*
X109054819Y-46395880D01*
X109054819Y-46395880D02*
X109007200Y-46491118D01*
X109007200Y-46491118D02*
X108911961Y-46586356D01*
X108911961Y-46586356D02*
X108721485Y-46633975D01*
X108721485Y-46633975D02*
X108388152Y-46633975D01*
X108388152Y-46633975D02*
X108197676Y-46586356D01*
X108197676Y-46586356D02*
X108102438Y-46491118D01*
X108102438Y-46491118D02*
X108054819Y-46395880D01*
X108388152Y-45110166D02*
X109054819Y-45110166D01*
X108388152Y-45538737D02*
X108911961Y-45538737D01*
X108911961Y-45538737D02*
X109007200Y-45491118D01*
X109007200Y-45491118D02*
X109054819Y-45395880D01*
X109054819Y-45395880D02*
X109054819Y-45253023D01*
X109054819Y-45253023D02*
X109007200Y-45157785D01*
X109007200Y-45157785D02*
X108959580Y-45110166D01*
X108388152Y-44776832D02*
X108388152Y-44395880D01*
X108054819Y-44633975D02*
X108911961Y-44633975D01*
X108911961Y-44633975D02*
X109007200Y-44586356D01*
X109007200Y-44586356D02*
X109054819Y-44491118D01*
X109054819Y-44491118D02*
X109054819Y-44395880D01*
X108673866Y-44062546D02*
X108673866Y-43300642D01*
X109054819Y-43681594D02*
X108292914Y-43681594D01*
X105554819Y-25886357D02*
X105554819Y-26362547D01*
X105554819Y-26362547D02*
X106031009Y-26410166D01*
X106031009Y-26410166D02*
X105983390Y-26362547D01*
X105983390Y-26362547D02*
X105935771Y-26267309D01*
X105935771Y-26267309D02*
X105935771Y-26029214D01*
X105935771Y-26029214D02*
X105983390Y-25933976D01*
X105983390Y-25933976D02*
X106031009Y-25886357D01*
X106031009Y-25886357D02*
X106126247Y-25838738D01*
X106126247Y-25838738D02*
X106364342Y-25838738D01*
X106364342Y-25838738D02*
X106459580Y-25886357D01*
X106459580Y-25886357D02*
X106507200Y-25933976D01*
X106507200Y-25933976D02*
X106554819Y-26029214D01*
X106554819Y-26029214D02*
X106554819Y-26267309D01*
X106554819Y-26267309D02*
X106507200Y-26362547D01*
X106507200Y-26362547D02*
X106459580Y-26410166D01*
X105888152Y-25505404D02*
X106554819Y-25267309D01*
X106554819Y-25267309D02*
X105888152Y-25029214D01*
X108673866Y-28324451D02*
X108673866Y-27562547D01*
X109054819Y-27943499D02*
X108292914Y-27943499D01*
X81854819Y-73214285D02*
X81854819Y-73785713D01*
X81854819Y-73499999D02*
X80854819Y-73499999D01*
X80854819Y-73499999D02*
X80997676Y-73595237D01*
X80997676Y-73595237D02*
X81092914Y-73690475D01*
X81092914Y-73690475D02*
X81140533Y-73785713D01*
X133981009Y-64785714D02*
X134028628Y-64642857D01*
X134028628Y-64642857D02*
X134076247Y-64595238D01*
X134076247Y-64595238D02*
X134171485Y-64547619D01*
X134171485Y-64547619D02*
X134314342Y-64547619D01*
X134314342Y-64547619D02*
X134409580Y-64595238D01*
X134409580Y-64595238D02*
X134457200Y-64642857D01*
X134457200Y-64642857D02*
X134504819Y-64738095D01*
X134504819Y-64738095D02*
X134504819Y-65119047D01*
X134504819Y-65119047D02*
X133504819Y-65119047D01*
X133504819Y-65119047D02*
X133504819Y-64785714D01*
X133504819Y-64785714D02*
X133552438Y-64690476D01*
X133552438Y-64690476D02*
X133600057Y-64642857D01*
X133600057Y-64642857D02*
X133695295Y-64595238D01*
X133695295Y-64595238D02*
X133790533Y-64595238D01*
X133790533Y-64595238D02*
X133885771Y-64642857D01*
X133885771Y-64642857D02*
X133933390Y-64690476D01*
X133933390Y-64690476D02*
X133981009Y-64785714D01*
X133981009Y-64785714D02*
X133981009Y-65119047D01*
X133504819Y-64261904D02*
X133504819Y-63690476D01*
X134504819Y-63976190D02*
X133504819Y-63976190D01*
X133600057Y-63404761D02*
X133552438Y-63357142D01*
X133552438Y-63357142D02*
X133504819Y-63261904D01*
X133504819Y-63261904D02*
X133504819Y-63023809D01*
X133504819Y-63023809D02*
X133552438Y-62928571D01*
X133552438Y-62928571D02*
X133600057Y-62880952D01*
X133600057Y-62880952D02*
X133695295Y-62833333D01*
X133695295Y-62833333D02*
X133790533Y-62833333D01*
X133790533Y-62833333D02*
X133933390Y-62880952D01*
X133933390Y-62880952D02*
X134504819Y-63452380D01*
X134504819Y-63452380D02*
X134504819Y-62833333D01*
X146237200Y-106092857D02*
X146237200Y-103807143D01*
X147380057Y-104950000D02*
X145094342Y-104950000D01*
D13*
X84309523Y-123786080D02*
X84309523Y-124786080D01*
X84309523Y-124786080D02*
X83976190Y-124071795D01*
X83976190Y-124071795D02*
X83642857Y-124786080D01*
X83642857Y-124786080D02*
X83642857Y-123786080D01*
X82642857Y-123786080D02*
X83214285Y-123786080D01*
X82928571Y-123786080D02*
X82928571Y-124786080D01*
X82928571Y-124786080D02*
X83023809Y-124643223D01*
X83023809Y-124643223D02*
X83119047Y-124547985D01*
X83119047Y-124547985D02*
X83214285Y-124500366D01*
X91308306Y-110243461D02*
X91403544Y-110291080D01*
X91403544Y-110291080D02*
X91546401Y-110291080D01*
X91546401Y-110291080D02*
X91689258Y-110243461D01*
X91689258Y-110243461D02*
X91784496Y-110148223D01*
X91784496Y-110148223D02*
X91832115Y-110052985D01*
X91832115Y-110052985D02*
X91879734Y-109862509D01*
X91879734Y-109862509D02*
X91879734Y-109719652D01*
X91879734Y-109719652D02*
X91832115Y-109529176D01*
X91832115Y-109529176D02*
X91784496Y-109433938D01*
X91784496Y-109433938D02*
X91689258Y-109338700D01*
X91689258Y-109338700D02*
X91546401Y-109291080D01*
X91546401Y-109291080D02*
X91451163Y-109291080D01*
X91451163Y-109291080D02*
X91308306Y-109338700D01*
X91308306Y-109338700D02*
X91260687Y-109386319D01*
X91260687Y-109386319D02*
X91260687Y-109719652D01*
X91260687Y-109719652D02*
X91451163Y-109719652D01*
X90832115Y-109291080D02*
X90832115Y-110291080D01*
X90832115Y-110291080D02*
X90260687Y-109291080D01*
X90260687Y-109291080D02*
X90260687Y-110291080D01*
X89784496Y-109291080D02*
X89784496Y-110291080D01*
X89784496Y-110291080D02*
X89546401Y-110291080D01*
X89546401Y-110291080D02*
X89403544Y-110243461D01*
X89403544Y-110243461D02*
X89308306Y-110148223D01*
X89308306Y-110148223D02*
X89260687Y-110052985D01*
X89260687Y-110052985D02*
X89213068Y-109862509D01*
X89213068Y-109862509D02*
X89213068Y-109719652D01*
X89213068Y-109719652D02*
X89260687Y-109529176D01*
X89260687Y-109529176D02*
X89308306Y-109433938D01*
X89308306Y-109433938D02*
X89403544Y-109338700D01*
X89403544Y-109338700D02*
X89546401Y-109291080D01*
X89546401Y-109291080D02*
X89784496Y-109291080D01*
X78163734Y-104258700D02*
X78020877Y-104211080D01*
X78020877Y-104211080D02*
X77782782Y-104211080D01*
X77782782Y-104211080D02*
X77687544Y-104258700D01*
X77687544Y-104258700D02*
X77639925Y-104306319D01*
X77639925Y-104306319D02*
X77592306Y-104401557D01*
X77592306Y-104401557D02*
X77592306Y-104496795D01*
X77592306Y-104496795D02*
X77639925Y-104592033D01*
X77639925Y-104592033D02*
X77687544Y-104639652D01*
X77687544Y-104639652D02*
X77782782Y-104687271D01*
X77782782Y-104687271D02*
X77973258Y-104734890D01*
X77973258Y-104734890D02*
X78068496Y-104782509D01*
X78068496Y-104782509D02*
X78116115Y-104830128D01*
X78116115Y-104830128D02*
X78163734Y-104925366D01*
X78163734Y-104925366D02*
X78163734Y-105020604D01*
X78163734Y-105020604D02*
X78116115Y-105115842D01*
X78116115Y-105115842D02*
X78068496Y-105163461D01*
X78068496Y-105163461D02*
X77973258Y-105211080D01*
X77973258Y-105211080D02*
X77735163Y-105211080D01*
X77735163Y-105211080D02*
X77592306Y-105163461D01*
X76592306Y-104306319D02*
X76639925Y-104258700D01*
X76639925Y-104258700D02*
X76782782Y-104211080D01*
X76782782Y-104211080D02*
X76878020Y-104211080D01*
X76878020Y-104211080D02*
X77020877Y-104258700D01*
X77020877Y-104258700D02*
X77116115Y-104353938D01*
X77116115Y-104353938D02*
X77163734Y-104449176D01*
X77163734Y-104449176D02*
X77211353Y-104639652D01*
X77211353Y-104639652D02*
X77211353Y-104782509D01*
X77211353Y-104782509D02*
X77163734Y-104972985D01*
X77163734Y-104972985D02*
X77116115Y-105068223D01*
X77116115Y-105068223D02*
X77020877Y-105163461D01*
X77020877Y-105163461D02*
X76878020Y-105211080D01*
X76878020Y-105211080D02*
X76782782Y-105211080D01*
X76782782Y-105211080D02*
X76639925Y-105163461D01*
X76639925Y-105163461D02*
X76592306Y-105115842D01*
X76163734Y-104211080D02*
X76163734Y-105211080D01*
X75592306Y-104211080D02*
X76020877Y-104782509D01*
X75592306Y-105211080D02*
X76163734Y-104639652D01*
X78211353Y-107751080D02*
X77973258Y-106751080D01*
X77973258Y-106751080D02*
X77782782Y-107465366D01*
X77782782Y-107465366D02*
X77592306Y-106751080D01*
X77592306Y-106751080D02*
X77354211Y-107751080D01*
X77020877Y-106798700D02*
X76878020Y-106751080D01*
X76878020Y-106751080D02*
X76639925Y-106751080D01*
X76639925Y-106751080D02*
X76544687Y-106798700D01*
X76544687Y-106798700D02*
X76497068Y-106846319D01*
X76497068Y-106846319D02*
X76449449Y-106941557D01*
X76449449Y-106941557D02*
X76449449Y-107036795D01*
X76449449Y-107036795D02*
X76497068Y-107132033D01*
X76497068Y-107132033D02*
X76544687Y-107179652D01*
X76544687Y-107179652D02*
X76639925Y-107227271D01*
X76639925Y-107227271D02*
X76830401Y-107274890D01*
X76830401Y-107274890D02*
X76925639Y-107322509D01*
X76925639Y-107322509D02*
X76973258Y-107370128D01*
X76973258Y-107370128D02*
X77020877Y-107465366D01*
X77020877Y-107465366D02*
X77020877Y-107560604D01*
X77020877Y-107560604D02*
X76973258Y-107655842D01*
X76973258Y-107655842D02*
X76925639Y-107703461D01*
X76925639Y-107703461D02*
X76830401Y-107751080D01*
X76830401Y-107751080D02*
X76592306Y-107751080D01*
X76592306Y-107751080D02*
X76449449Y-107703461D01*
X91974972Y-107751080D02*
X91641639Y-106751080D01*
X91641639Y-106751080D02*
X91308306Y-107751080D01*
X90974972Y-106751080D02*
X90974972Y-107751080D01*
X90974972Y-107751080D02*
X90736877Y-107751080D01*
X90736877Y-107751080D02*
X90594020Y-107703461D01*
X90594020Y-107703461D02*
X90498782Y-107608223D01*
X90498782Y-107608223D02*
X90451163Y-107512985D01*
X90451163Y-107512985D02*
X90403544Y-107322509D01*
X90403544Y-107322509D02*
X90403544Y-107179652D01*
X90403544Y-107179652D02*
X90451163Y-106989176D01*
X90451163Y-106989176D02*
X90498782Y-106893938D01*
X90498782Y-106893938D02*
X90594020Y-106798700D01*
X90594020Y-106798700D02*
X90736877Y-106751080D01*
X90736877Y-106751080D02*
X90974972Y-106751080D01*
X89974972Y-106751080D02*
X89974972Y-107751080D01*
X89974972Y-107751080D02*
X89736877Y-107751080D01*
X89736877Y-107751080D02*
X89594020Y-107703461D01*
X89594020Y-107703461D02*
X89498782Y-107608223D01*
X89498782Y-107608223D02*
X89451163Y-107512985D01*
X89451163Y-107512985D02*
X89403544Y-107322509D01*
X89403544Y-107322509D02*
X89403544Y-107179652D01*
X89403544Y-107179652D02*
X89451163Y-106989176D01*
X89451163Y-106989176D02*
X89498782Y-106893938D01*
X89498782Y-106893938D02*
X89594020Y-106798700D01*
X89594020Y-106798700D02*
X89736877Y-106751080D01*
X89736877Y-106751080D02*
X89974972Y-106751080D01*
X77639925Y-109291080D02*
X78116115Y-109291080D01*
X78116115Y-109291080D02*
X78116115Y-110291080D01*
X76592306Y-110338700D02*
X77449448Y-109052985D01*
X75687544Y-109291080D02*
X76020877Y-109767271D01*
X76258972Y-109291080D02*
X76258972Y-110291080D01*
X76258972Y-110291080D02*
X75878020Y-110291080D01*
X75878020Y-110291080D02*
X75782782Y-110243461D01*
X75782782Y-110243461D02*
X75735163Y-110195842D01*
X75735163Y-110195842D02*
X75687544Y-110100604D01*
X75687544Y-110100604D02*
X75687544Y-109957747D01*
X75687544Y-109957747D02*
X75735163Y-109862509D01*
X75735163Y-109862509D02*
X75782782Y-109814890D01*
X75782782Y-109814890D02*
X75878020Y-109767271D01*
X75878020Y-109767271D02*
X76258972Y-109767271D01*
X90863734Y-104258700D02*
X90720877Y-104211080D01*
X90720877Y-104211080D02*
X90482782Y-104211080D01*
X90482782Y-104211080D02*
X90387544Y-104258700D01*
X90387544Y-104258700D02*
X90339925Y-104306319D01*
X90339925Y-104306319D02*
X90292306Y-104401557D01*
X90292306Y-104401557D02*
X90292306Y-104496795D01*
X90292306Y-104496795D02*
X90339925Y-104592033D01*
X90339925Y-104592033D02*
X90387544Y-104639652D01*
X90387544Y-104639652D02*
X90482782Y-104687271D01*
X90482782Y-104687271D02*
X90673258Y-104734890D01*
X90673258Y-104734890D02*
X90768496Y-104782509D01*
X90768496Y-104782509D02*
X90816115Y-104830128D01*
X90816115Y-104830128D02*
X90863734Y-104925366D01*
X90863734Y-104925366D02*
X90863734Y-105020604D01*
X90863734Y-105020604D02*
X90816115Y-105115842D01*
X90816115Y-105115842D02*
X90768496Y-105163461D01*
X90768496Y-105163461D02*
X90673258Y-105211080D01*
X90673258Y-105211080D02*
X90435163Y-105211080D01*
X90435163Y-105211080D02*
X90292306Y-105163461D01*
X89863734Y-104211080D02*
X89863734Y-105211080D01*
X89863734Y-105211080D02*
X89625639Y-105211080D01*
X89625639Y-105211080D02*
X89482782Y-105163461D01*
X89482782Y-105163461D02*
X89387544Y-105068223D01*
X89387544Y-105068223D02*
X89339925Y-104972985D01*
X89339925Y-104972985D02*
X89292306Y-104782509D01*
X89292306Y-104782509D02*
X89292306Y-104639652D01*
X89292306Y-104639652D02*
X89339925Y-104449176D01*
X89339925Y-104449176D02*
X89387544Y-104353938D01*
X89387544Y-104353938D02*
X89482782Y-104258700D01*
X89482782Y-104258700D02*
X89625639Y-104211080D01*
X89625639Y-104211080D02*
X89863734Y-104211080D01*
D12*
X102226667Y-102075700D02*
X102369524Y-102123319D01*
X102369524Y-102123319D02*
X102607619Y-102123319D01*
X102607619Y-102123319D02*
X102702857Y-102075700D01*
X102702857Y-102075700D02*
X102750476Y-102028080D01*
X102750476Y-102028080D02*
X102798095Y-101932842D01*
X102798095Y-101932842D02*
X102798095Y-101837604D01*
X102798095Y-101837604D02*
X102750476Y-101742366D01*
X102750476Y-101742366D02*
X102702857Y-101694747D01*
X102702857Y-101694747D02*
X102607619Y-101647128D01*
X102607619Y-101647128D02*
X102417143Y-101599509D01*
X102417143Y-101599509D02*
X102321905Y-101551890D01*
X102321905Y-101551890D02*
X102274286Y-101504271D01*
X102274286Y-101504271D02*
X102226667Y-101409033D01*
X102226667Y-101409033D02*
X102226667Y-101313795D01*
X102226667Y-101313795D02*
X102274286Y-101218557D01*
X102274286Y-101218557D02*
X102321905Y-101170938D01*
X102321905Y-101170938D02*
X102417143Y-101123319D01*
X102417143Y-101123319D02*
X102655238Y-101123319D01*
X102655238Y-101123319D02*
X102798095Y-101170938D01*
X103131429Y-101123319D02*
X103369524Y-102123319D01*
X103369524Y-102123319D02*
X103560000Y-101409033D01*
X103560000Y-101409033D02*
X103750476Y-102123319D01*
X103750476Y-102123319D02*
X103988572Y-101123319D01*
X104321905Y-101218557D02*
X104369524Y-101170938D01*
X104369524Y-101170938D02*
X104464762Y-101123319D01*
X104464762Y-101123319D02*
X104702857Y-101123319D01*
X104702857Y-101123319D02*
X104798095Y-101170938D01*
X104798095Y-101170938D02*
X104845714Y-101218557D01*
X104845714Y-101218557D02*
X104893333Y-101313795D01*
X104893333Y-101313795D02*
X104893333Y-101409033D01*
X104893333Y-101409033D02*
X104845714Y-101551890D01*
X104845714Y-101551890D02*
X104274286Y-102123319D01*
X104274286Y-102123319D02*
X104893333Y-102123319D01*
X102226667Y-108075700D02*
X102369524Y-108123319D01*
X102369524Y-108123319D02*
X102607619Y-108123319D01*
X102607619Y-108123319D02*
X102702857Y-108075700D01*
X102702857Y-108075700D02*
X102750476Y-108028080D01*
X102750476Y-108028080D02*
X102798095Y-107932842D01*
X102798095Y-107932842D02*
X102798095Y-107837604D01*
X102798095Y-107837604D02*
X102750476Y-107742366D01*
X102750476Y-107742366D02*
X102702857Y-107694747D01*
X102702857Y-107694747D02*
X102607619Y-107647128D01*
X102607619Y-107647128D02*
X102417143Y-107599509D01*
X102417143Y-107599509D02*
X102321905Y-107551890D01*
X102321905Y-107551890D02*
X102274286Y-107504271D01*
X102274286Y-107504271D02*
X102226667Y-107409033D01*
X102226667Y-107409033D02*
X102226667Y-107313795D01*
X102226667Y-107313795D02*
X102274286Y-107218557D01*
X102274286Y-107218557D02*
X102321905Y-107170938D01*
X102321905Y-107170938D02*
X102417143Y-107123319D01*
X102417143Y-107123319D02*
X102655238Y-107123319D01*
X102655238Y-107123319D02*
X102798095Y-107170938D01*
X103131429Y-107123319D02*
X103369524Y-108123319D01*
X103369524Y-108123319D02*
X103560000Y-107409033D01*
X103560000Y-107409033D02*
X103750476Y-108123319D01*
X103750476Y-108123319D02*
X103988572Y-107123319D01*
X104274286Y-107123319D02*
X104893333Y-107123319D01*
X104893333Y-107123319D02*
X104560000Y-107504271D01*
X104560000Y-107504271D02*
X104702857Y-107504271D01*
X104702857Y-107504271D02*
X104798095Y-107551890D01*
X104798095Y-107551890D02*
X104845714Y-107599509D01*
X104845714Y-107599509D02*
X104893333Y-107694747D01*
X104893333Y-107694747D02*
X104893333Y-107932842D01*
X104893333Y-107932842D02*
X104845714Y-108028080D01*
X104845714Y-108028080D02*
X104798095Y-108075700D01*
X104798095Y-108075700D02*
X104702857Y-108123319D01*
X104702857Y-108123319D02*
X104417143Y-108123319D01*
X104417143Y-108123319D02*
X104321905Y-108075700D01*
X104321905Y-108075700D02*
X104274286Y-108028080D01*
D15*
%TO.C,U1*%
X43270000Y-24268500D02*
X71780000Y-24268500D01*
X43270000Y-75218500D02*
X43270000Y-24268500D01*
X43270000Y-75218500D02*
X43270000Y-24268500D01*
X48720000Y-24268500D02*
X43270000Y-24268500D01*
X54000000Y-75218500D02*
X43270000Y-75218500D01*
X60711000Y-75218500D02*
X54000000Y-75218500D01*
X66410000Y-24268500D02*
X48720000Y-24268500D01*
X71780000Y-24268500D02*
X66410000Y-24268500D01*
X71780000Y-24268500D02*
X71780000Y-75218500D01*
X71780000Y-24268500D02*
X71780000Y-75218500D01*
X71780000Y-75218500D02*
X43270000Y-75218500D01*
X71780000Y-75218500D02*
X60711000Y-75218500D01*
D11*
X72450000Y-65258500D02*
G75*
G02*
X72250000Y-65258500I-100000J0D01*
G01*
X72250000Y-65258500D02*
G75*
G02*
X72450000Y-65258500I100000J0D01*
G01*
D16*
%TO.C,11*%
X91900000Y-54943500D02*
X91900000Y-89943500D01*
X91900000Y-89943500D02*
X92900000Y-90943500D01*
X92900000Y-53943500D02*
X91900000Y-54943500D01*
X92900000Y-53943500D02*
X107900000Y-53943500D01*
X92900000Y-90943500D02*
X107900000Y-90943500D01*
X107900000Y-53943500D02*
X108900000Y-54943500D01*
X107900000Y-90943500D02*
X108900000Y-89943500D01*
X108900000Y-54943500D02*
X108900000Y-89943500D01*
%TO.C,SW1*%
X99810000Y-97018500D02*
X99810000Y-98518500D01*
X101060000Y-101018500D02*
X105560000Y-101018500D01*
X105560000Y-94518500D02*
X101060000Y-94518500D01*
X106810000Y-98518500D02*
X106810000Y-97018500D01*
%TO.C,LS1*%
D13*
X45400000Y-85743500D02*
X43400000Y-85743500D01*
X43400000Y-89743500D01*
X45400000Y-89743500D01*
X45400000Y-85743500D01*
D12*
%TO.C,TP1*%
X73900000Y-24043500D02*
X91700000Y-24043500D01*
X73900000Y-52443500D02*
X73900000Y-24043500D01*
X76000000Y-52443500D02*
X73900000Y-52443500D01*
X76300000Y-50143500D02*
X76300000Y-50443500D01*
X76300000Y-50343500D02*
X76300000Y-52443500D01*
X76300000Y-52443500D02*
X76000000Y-52443500D01*
X80700000Y-24443500D02*
X84400000Y-24443500D01*
X80700000Y-26943500D02*
X80700000Y-24443500D01*
X84500000Y-24443500D02*
X84500000Y-26943500D01*
X84500000Y-26943500D02*
X80700000Y-26943500D01*
X89200000Y-50143500D02*
X76300000Y-50143500D01*
X89200000Y-52443500D02*
X89200000Y-50143500D01*
X91700000Y-24043500D02*
X91700000Y-50343500D01*
X91700000Y-50343500D02*
X91700000Y-52443500D01*
X91700000Y-52443500D02*
X89200000Y-52443500D01*
D16*
%TO.C,C2*%
X61380000Y-98873500D02*
X68620000Y-98873500D01*
X61380000Y-103613500D02*
X61380000Y-98873500D01*
X68620000Y-98873500D02*
X68620000Y-103613500D01*
X68620000Y-103613500D02*
X61380000Y-103613500D01*
%TO.C,C1*%
X53380000Y-98873500D02*
X60620000Y-98873500D01*
X53380000Y-103613500D02*
X53380000Y-98873500D01*
X60620000Y-98873500D02*
X60620000Y-103613500D01*
X60620000Y-103613500D02*
X53380000Y-103613500D01*
%TO.C,BT1*%
X111440000Y-24540000D02*
X133560000Y-24540000D01*
X111440000Y-103460000D02*
X111440000Y-24540000D01*
X133560000Y-24540000D02*
X133560000Y-103460000D01*
X133560000Y-103460000D02*
X111440000Y-103460000D01*
D17*
%TO.C,U3*%
X50900000Y-84543500D02*
X50900000Y-91543500D01*
X50900000Y-91543500D02*
X52300000Y-91543500D01*
D18*
X50944000Y-94293500D02*
X50944000Y-81593500D01*
D17*
X52300000Y-84543500D02*
X50900000Y-84543500D01*
X52300000Y-84543500D02*
X52300000Y-91543500D01*
X52300000Y-91543500D02*
X57900000Y-91543500D01*
D18*
X53484000Y-79053500D02*
X67454000Y-79053500D01*
X53547000Y-96823500D02*
X67517000Y-96823500D01*
D17*
X57900000Y-84543500D02*
X52300000Y-84543500D01*
X57900000Y-91543500D02*
X57900000Y-84543500D01*
D18*
X69994000Y-81593500D02*
X69994000Y-94293500D01*
X50944000Y-81593500D02*
G75*
G02*
X53484000Y-79053500I2540000J0D01*
G01*
X53500452Y-96820738D02*
G75*
G02*
X50960452Y-94280738I1J2540001D01*
G01*
X67454000Y-79053500D02*
G75*
G02*
X69994000Y-81593500I0J-2540000D01*
G01*
X69994000Y-94293500D02*
G75*
G02*
X67454000Y-96833500I-2540001J1D01*
G01*
D17*
X55484000Y-81593500D02*
G75*
G02*
X51484000Y-81593500I-2000000J0D01*
G01*
X51484000Y-81593500D02*
G75*
G02*
X55484000Y-81593500I2000000J0D01*
G01*
X55484000Y-94293500D02*
G75*
G02*
X51484000Y-94293500I-2000000J0D01*
G01*
X51484000Y-94293500D02*
G75*
G02*
X55484000Y-94293500I2000000J0D01*
G01*
D12*
%TO.C,TP2*%
X92400000Y-24043500D02*
X110200000Y-24043500D01*
X92400000Y-52443500D02*
X92400000Y-24043500D01*
X94500000Y-52443500D02*
X92400000Y-52443500D01*
X94800000Y-50143500D02*
X94800000Y-50443500D01*
X94800000Y-50343500D02*
X94800000Y-52443500D01*
X94800000Y-52443500D02*
X94500000Y-52443500D01*
X99200000Y-24443500D02*
X102900000Y-24443500D01*
X99200000Y-26943500D02*
X99200000Y-24443500D01*
X103000000Y-24443500D02*
X103000000Y-26943500D01*
X103000000Y-26943500D02*
X99200000Y-26943500D01*
X107700000Y-50143500D02*
X94800000Y-50143500D01*
X107700000Y-52443500D02*
X107700000Y-50143500D01*
X110200000Y-24043500D02*
X110200000Y-50343500D01*
X110200000Y-50343500D02*
X110200000Y-52443500D01*
X110200000Y-52443500D02*
X107700000Y-52443500D01*
D16*
%TO.C,1*%
X73900000Y-56200000D02*
X73900000Y-91200000D01*
X73900000Y-91200000D02*
X74900000Y-92200000D01*
X74900000Y-55200000D02*
X73900000Y-56200000D01*
X74900000Y-55200000D02*
X89900000Y-55200000D01*
X74900000Y-92200000D02*
X89900000Y-92200000D01*
X89900000Y-55200000D02*
X90900000Y-56200000D01*
X89900000Y-92200000D02*
X90900000Y-91200000D01*
X90900000Y-56200000D02*
X90900000Y-91200000D01*
%TO.C,BT2*%
X134890000Y-24540000D02*
X157010000Y-24540000D01*
X134890000Y-103460000D02*
X134890000Y-24540000D01*
X157010000Y-24540000D02*
X157010000Y-103460000D01*
X157010000Y-103460000D02*
X134890000Y-103460000D01*
D13*
%TO.C,M1*%
X90571068Y-107243500D02*
G75*
G02*
X76428932Y-107243500I-7071068J0D01*
G01*
X76428932Y-107243500D02*
G75*
G02*
X90571068Y-107243500I7071068J0D01*
G01*
D16*
%TO.C,SW2*%
X98710000Y-102818500D02*
X98710000Y-107018500D01*
X98710000Y-107018500D02*
X99910000Y-107018500D01*
X99060000Y-102818500D02*
X98710000Y-102818500D01*
X106710000Y-102818500D02*
X107910000Y-102818500D01*
X107910000Y-102818500D02*
X107910000Y-107018500D01*
X107910000Y-107018500D02*
X106710000Y-107018500D01*
X99810000Y-102818500D02*
X99330000Y-102818500D01*
X99810000Y-102338500D01*
X99810000Y-102818500D01*
G36*
X99810000Y-102818500D02*
G01*
X99330000Y-102818500D01*
X99810000Y-102338500D01*
X99810000Y-102818500D01*
G37*
%TO.C,SW3*%
X98710000Y-108818500D02*
X98710000Y-113018500D01*
X98710000Y-113018500D02*
X99910000Y-113018500D01*
X99060000Y-108818500D02*
X98710000Y-108818500D01*
X106710000Y-108818500D02*
X107910000Y-108818500D01*
X107910000Y-108818500D02*
X107910000Y-113018500D01*
X107910000Y-113018500D02*
X106710000Y-113018500D01*
X99810000Y-108818500D02*
X99330000Y-108818500D01*
X99810000Y-108338500D01*
X99810000Y-108818500D01*
G36*
X99810000Y-108818500D02*
G01*
X99330000Y-108818500D01*
X99810000Y-108338500D01*
X99810000Y-108818500D01*
G37*
%TD*%
M02*
