%TF.GenerationSoftware,KiCad,Pcbnew,9.0.6*%
%TF.CreationDate,2026-08-31T00:53:20+06:00*%
%TF.ProjectId,Walkie talkie,57616c6b-6965-4207-9461-6c6b69652e6b,3*%
%TF.SameCoordinates,Original*%
%TF.FileFunction,Copper,L2,Bot*%
%TF.FilePolarity,Positive*%
%FSLAX46Y46*%
G04 Gerber Fmt 4.6, Leading zero omitted, Abs format (unit mm)*
G04 Created by KiCad (PCBNEW 9.0.6) date 2026-08-31 00:53:20*
%MOMM*%
%LPD*%
G01*
G04 APERTURE LIST*
G04 Aperture macros list*
%AMRoundRect*
0 Rectangle with rounded corners*
0 $1 Rounding radius*
0 $2 $3 $4 $5 $6 $7 $8 $9 X,Y pos of 4 corners*
0 Add a 4 corners polygon primitive as box body*
4,1,4,$2,$3,$4,$5,$6,$7,$8,$9,$2,$3,0*
0 Add four circle primitives for the rounded corners*
1,1,$1+$1,$2,$3*
1,1,$1+$1,$4,$5*
1,1,$1+$1,$6,$7*
1,1,$1+$1,$8,$9*
0 Add four rect primitives between the rounded corners*
20,1,$1+$1,$2,$3,$4,$5,0*
20,1,$1+$1,$4,$5,$6,$7,0*
20,1,$1+$1,$6,$7,$8,$9,0*
20,1,$1+$1,$8,$9,$2,$3,0*%
G04 Aperture macros list end*
%TA.AperFunction,ComponentPad*%
%ADD10R,2.000000X2.000000*%
%TD*%
%TA.AperFunction,ComponentPad*%
%ADD11C,2.000000*%
%TD*%
%TA.AperFunction,ComponentPad*%
%ADD12R,2.800000X2.800000*%
%TD*%
%TA.AperFunction,ComponentPad*%
%ADD13C,1.600000*%
%TD*%
%TA.AperFunction,ComponentPad*%
%ADD14RoundRect,0.249999X1.250001X-1.250001X1.250001X1.250001X-1.250001X1.250001X-1.250001X-1.250001X0*%
%TD*%
%TA.AperFunction,ComponentPad*%
%ADD15C,3.000000*%
%TD*%
%TA.AperFunction,ComponentPad*%
%ADD16O,3.000000X1.750000*%
%TD*%
%TA.AperFunction,ComponentPad*%
%ADD17O,4.000000X2.500000*%
%TD*%
%TA.AperFunction,ComponentPad*%
%ADD18R,1.700000X1.700000*%
%TD*%
%TA.AperFunction,ComponentPad*%
%ADD19C,1.700000*%
%TD*%
%TA.AperFunction,ComponentPad*%
%ADD20RoundRect,0.250000X-0.450000X-0.450000X0.450000X-0.450000X0.450000X0.450000X-0.450000X0.450000X0*%
%TD*%
%TA.AperFunction,ComponentPad*%
%ADD21C,1.400000*%
%TD*%
%TA.AperFunction,ViaPad*%
%ADD22C,0.600000*%
%TD*%
%TA.AperFunction,Conductor*%
%ADD23C,0.200000*%
%TD*%
G04 APERTURE END LIST*
D10*
%TO.P,U1,1,3V3*%
%TO.N,ESP32_3V3*%
X70200000Y-65258500D03*
D11*
%TO.P,U1,2,GND*%
%TO.N,5V GND*%
X70200000Y-62718500D03*
%TO.P,U1,3,D15*%
%TO.N,Mic_WS*%
X70200000Y-60178500D03*
%TO.P,U1,4,D2*%
%TO.N,unconnected-(U1-D2-Pad4)*%
X70200000Y-57638500D03*
%TO.P,U1,5,D4*%
%TO.N,PTT*%
X70200000Y-55098500D03*
%TO.P,U1,6,RX2*%
%TO.N,unconnected-(U1-RX2-Pad6)*%
X70200000Y-52558500D03*
%TO.P,U1,7,TX2*%
%TO.N,unconnected-(U1-TX2-Pad7)*%
X70200000Y-50018500D03*
%TO.P,U1,8,D5*%
%TO.N,unconnected-(U1-D5-Pad8)*%
X70200000Y-47478500D03*
%TO.P,U1,9,D18*%
%TO.N,unconnected-(U1-D18-Pad9)*%
X70200000Y-44938500D03*
%TO.P,U1,10,D19*%
%TO.N,unconnected-(U1-D19-Pad10)*%
X70200000Y-42398500D03*
%TO.P,U1,11,D21*%
%TO.N,unconnected-(U1-D21-Pad11)*%
X70200000Y-39858500D03*
%TO.P,U1,12,RX0*%
%TO.N,unconnected-(U1-RX0-Pad12)*%
X70200000Y-37318500D03*
%TO.P,U1,13,TX0*%
%TO.N,unconnected-(U1-TX0-Pad13)*%
X70200000Y-34778500D03*
%TO.P,U1,14,D22*%
%TO.N,AMP_DIN*%
X70200000Y-32238500D03*
%TO.P,U1,15,D23*%
%TO.N,unconnected-(U1-D23-Pad15)*%
X70200000Y-29698500D03*
%TO.P,U1,16,EN*%
%TO.N,unconnected-(U1-EN-Pad16)*%
X44800000Y-29698500D03*
%TO.P,U1,17,VP*%
%TO.N,unconnected-(U1-VP-Pad17)*%
X44800000Y-32238500D03*
%TO.P,U1,18,VN*%
%TO.N,unconnected-(U1-VN-Pad18)*%
X44800000Y-34778500D03*
%TO.P,U1,19,D34*%
%TO.N,unconnected-(U1-D34-Pad19)*%
X44800000Y-37318500D03*
%TO.P,U1,20,D35*%
%TO.N,unconnected-(U1-D35-Pad20)*%
X44800000Y-39858500D03*
%TO.P,U1,21,D32*%
%TO.N,Mic_SD*%
X44800000Y-42398500D03*
%TO.P,U1,22,D33*%
%TO.N,unconnected-(U1-D33-Pad22)*%
X44800000Y-44938500D03*
%TO.P,U1,23,D25*%
%TO.N,AMP_LRC*%
X44800000Y-47478500D03*
%TO.P,U1,24,D26*%
%TO.N,AMP_BLCK*%
X44800000Y-50018500D03*
%TO.P,U1,25,D27*%
%TO.N,unconnected-(U1-D27-Pad25)*%
X44800000Y-52558500D03*
%TO.P,U1,26,D14*%
%TO.N,Mic_SCK*%
X44800000Y-55098500D03*
%TO.P,U1,27,D12*%
%TO.N,unconnected-(U1-D12-Pad27)*%
X44800000Y-57638500D03*
%TO.P,U1,28,D13*%
%TO.N,unconnected-(U1-D13-Pad28)*%
X44800000Y-60178500D03*
%TO.P,U1,29,GND*%
%TO.N,5V GND*%
X44800000Y-62718500D03*
%TO.P,U1,30,VIN*%
%TO.N,5V+ 1*%
X44800000Y-65258500D03*
%TD*%
%TO.P,SW1,1,1*%
%TO.N,PTT*%
X100060000Y-95518500D03*
X106560000Y-95518500D03*
%TO.P,SW1,2,2*%
%TO.N,5V GND*%
X100060000Y-100018500D03*
X106560000Y-100018500D03*
%TD*%
D12*
%TO.P,TP1,1,5V+*%
%TO.N,unconnected-(TP1-5V+-Pad1)*%
X90000000Y-25743500D03*
%TO.P,TP1,2,-*%
%TO.N,unconnected-(TP1---Pad2)*%
X75800000Y-25743500D03*
%TO.P,TP1,3,B+*%
%TO.N,Net-(SW3A-A)*%
X86500000Y-48643500D03*
%TO.P,TP1,4,B-*%
%TO.N,Net-(BT1--)*%
X78900000Y-48643500D03*
%TO.P,TP1,5,OUT+*%
%TO.N,Net-(1-IN+)*%
X90000000Y-48643500D03*
%TO.P,TP1,6,OUT-*%
%TO.N,Net-(1-IN-)*%
X75500000Y-48643500D03*
%TD*%
D13*
%TO.P,C2,1*%
%TO.N,5V+ 2*%
X62500000Y-101243500D03*
%TO.P,C2,2*%
%TO.N,Net-(11-OUT+)*%
X67500000Y-101243500D03*
%TD*%
%TO.P,C1,1*%
%TO.N,5V+ 1*%
X54500000Y-101243500D03*
%TO.P,C1,2*%
%TO.N,Net-(1-OUT+)*%
X59500000Y-101243500D03*
%TD*%
D14*
%TO.P,BT1,1,+*%
%TO.N,Net-(BT1-+)*%
X122500000Y-100450000D03*
D15*
%TO.P,BT1,2,-*%
%TO.N,Net-(BT1--)*%
X122500000Y-27550000D03*
%TD*%
D16*
%TO.P,U3,1,Vin*%
%TO.N,5V+ 2*%
X66954000Y-80323500D03*
%TO.P,U3,2,GND*%
%TO.N,5V GND*%
X66954000Y-82863500D03*
%TO.P,U3,3,~{SD_MODE}*%
%TO.N,unconnected-(U3-~{SD_MODE}-Pad3)*%
X66954000Y-85403500D03*
%TO.P,U3,4,GAIN*%
%TO.N,5V GND*%
X66954000Y-87943500D03*
%TO.P,U3,5,DIN*%
%TO.N,AMP_DIN*%
X66954000Y-90483500D03*
%TO.P,U3,6,BCLK*%
%TO.N,AMP_BLCK*%
X66954000Y-93023500D03*
%TO.P,U3,7,LRC*%
%TO.N,AMP_LRC*%
X66954000Y-95563500D03*
D17*
%TO.P,U3,8,OUTP*%
%TO.N,Net-(U3-OUTP)*%
X54500000Y-89743500D03*
%TO.P,U3,9,OUTN*%
%TO.N,Net-(U3-OUTN)*%
X54500000Y-86243500D03*
%TD*%
D12*
%TO.P,TP2,1,5V+*%
%TO.N,unconnected-(TP2-5V+-Pad1)*%
X108500000Y-25743500D03*
%TO.P,TP2,2,-*%
%TO.N,unconnected-(TP2---Pad2)*%
X94300000Y-25743500D03*
%TO.P,TP2,3,B+*%
%TO.N,Net-(SW2A-A)*%
X105000000Y-48643500D03*
%TO.P,TP2,4,B-*%
%TO.N,Net-(BT2--)*%
X97400000Y-48643500D03*
%TO.P,TP2,5,OUT+*%
%TO.N,Net-(11-IN+)*%
X108500000Y-48643500D03*
%TO.P,TP2,6,OUT-*%
%TO.N,Net-(11-IN-)*%
X94000000Y-48643500D03*
%TD*%
D14*
%TO.P,BT2,1,+*%
%TO.N,Net-(BT2-+)*%
X145950000Y-100450000D03*
D15*
%TO.P,BT2,2,-*%
%TO.N,Net-(BT2--)*%
X145950000Y-27550000D03*
%TD*%
D18*
%TO.P,M1,GND*%
%TO.N,5V GND*%
X87690000Y-109798500D03*
D19*
%TO.P,M1,L/R*%
X79690000Y-109798500D03*
%TO.P,M1,SCK*%
%TO.N,Mic_WS*%
X79690000Y-104718500D03*
%TO.P,M1,SD*%
%TO.N,Mic_SD*%
X87690000Y-104718500D03*
%TO.P,M1,VDD*%
%TO.N,ESP32_3V3*%
X87690000Y-107258500D03*
%TO.P,M1,WS*%
%TO.N,Mic_SCK*%
X79690000Y-107258500D03*
%TD*%
D20*
%TO.P,SW2,1,A*%
%TO.N,Net-(SW2A-A)*%
X100810000Y-103268500D03*
D21*
%TO.P,SW2,2,B*%
%TO.N,Net-(BT2-+)*%
X103310000Y-103268500D03*
%TO.P,SW2,3,C*%
%TO.N,unconnected-(SW2A-C-Pad3)*%
X105810000Y-103268500D03*
%TO.P,SW2,4*%
%TO.N,N/C*%
X105810000Y-106568500D03*
%TO.P,SW2,5*%
X103310000Y-106568500D03*
%TO.P,SW2,6*%
X100810000Y-106568500D03*
%TD*%
D20*
%TO.P,SW3,1,A*%
%TO.N,Net-(SW3A-A)*%
X100810000Y-109268500D03*
D21*
%TO.P,SW3,2,B*%
%TO.N,Net-(BT1-+)*%
X103310000Y-109268500D03*
%TO.P,SW3,3,C*%
%TO.N,unconnected-(SW3A-C-Pad3)*%
X105810000Y-109268500D03*
%TO.P,SW3,4*%
%TO.N,N/C*%
X105810000Y-112568500D03*
%TO.P,SW3,5*%
X103310000Y-112568500D03*
%TO.P,SW3,6*%
X100810000Y-112568500D03*
%TD*%
D22*
%TO.N,Net-(U3-OUTP)*%
X51500000Y-88143500D03*
%TO.N,AMP_BLCK*%
X42899000Y-51743500D03*
%TO.N,AMP_LRC*%
X42000000Y-50243500D03*
%TO.N,5V GND*%
X85099000Y-85243500D03*
X73400000Y-87743500D03*
X79500000Y-88243500D03*
X90566765Y-85176735D03*
%TO.N,PTT*%
X85099000Y-80743500D03*
%TO.N,Mic_WS*%
X74000000Y-71243500D03*
X74000000Y-94743500D03*
%TO.N,Mic_SD*%
X41399000Y-45743500D03*
%TO.N,Net-(1-OUT+)*%
X86300000Y-88243500D03*
%TO.N,Net-(11-OUT+)*%
X103800000Y-87743500D03*
%TD*%
D23*
%TO.N,5V+ 1*%
X43000000Y-67058500D02*
X44800000Y-65258500D01*
X43000000Y-89743500D02*
X43000000Y-67058500D01*
X54500000Y-101243500D02*
X43000000Y-89743500D01*
%TO.N,Net-(U3-OUTP)*%
X53100000Y-89743500D02*
X54500000Y-89743500D01*
X51500000Y-88143500D02*
X53100000Y-89743500D01*
%TO.N,AMP_BLCK*%
X43399000Y-51243500D02*
X43575000Y-51243500D01*
X42899000Y-51743500D02*
X43399000Y-51243500D01*
X43575000Y-51243500D02*
X44800000Y-50018500D01*
%TO.N,AMP_LRC*%
X42500000Y-49743500D02*
X42535000Y-49743500D01*
X42000000Y-50243500D02*
X42500000Y-49743500D01*
X42535000Y-49743500D02*
X44800000Y-47478500D01*
%TO.N,5V GND*%
X73400000Y-87743500D02*
X67654000Y-87743500D01*
X85165765Y-85176735D02*
X85099000Y-85243500D01*
X82500000Y-85243500D02*
X79500000Y-88243500D01*
X85099000Y-85243500D02*
X82500000Y-85243500D01*
X100060000Y-100018500D02*
X106560000Y-100018500D01*
X90566765Y-85176735D02*
X85165765Y-85176735D01*
X67654000Y-87743500D02*
X67454000Y-87943500D01*
%TO.N,PTT*%
X84500000Y-80743500D02*
X73000000Y-69243500D01*
X85099000Y-80743500D02*
X84500000Y-80743500D01*
X106560000Y-95518500D02*
X100060000Y-95518500D01*
X73000000Y-57898500D02*
X70200000Y-55098500D01*
X73000000Y-69243500D02*
X73000000Y-57898500D01*
%TO.N,Mic_WS*%
X74000000Y-94743500D02*
X74000000Y-71243500D01*
%TO.N,Mic_SD*%
X43399000Y-43743500D02*
X43455000Y-43743500D01*
X41399000Y-45743500D02*
X43399000Y-43743500D01*
X43455000Y-43743500D02*
X44800000Y-42398500D01*
%TO.N,Mic_SCK*%
X79690000Y-107258500D02*
X63957950Y-107258500D01*
X47121000Y-57419500D02*
X44800000Y-55098500D01*
X47121000Y-90421550D02*
X47121000Y-57419500D01*
X63957950Y-107258500D02*
X47121000Y-90421550D01*
%TO.N,Net-(BT2-+)*%
X106150892Y-102267500D02*
X104311000Y-102267500D01*
X104311000Y-102267500D02*
X103310000Y-103268500D01*
X109918392Y-98500000D02*
X106150892Y-102267500D01*
X145950000Y-100450000D02*
X144000000Y-98500000D01*
X144000000Y-98500000D02*
X109918392Y-98500000D01*
%TO.N,Net-(BT1-+)*%
X105009000Y-107569500D02*
X103310000Y-109268500D01*
X115380500Y-107569500D02*
X105009000Y-107569500D01*
X122500000Y-100450000D02*
X115380500Y-107569500D01*
%TO.N,Net-(1-OUT+)*%
X64004000Y-96739500D02*
X77804000Y-96739500D01*
X59500000Y-101243500D02*
X64004000Y-96739500D01*
X77804000Y-96739500D02*
X86300000Y-88243500D01*
%TO.N,Net-(11-OUT+)*%
X90300000Y-101243500D02*
X103800000Y-87743500D01*
X67500000Y-101243500D02*
X90300000Y-101243500D01*
%TO.N,Net-(BT1--)*%
X120550000Y-29500000D02*
X122500000Y-27550000D01*
X98043500Y-29500000D02*
X120550000Y-29500000D01*
X78900000Y-48643500D02*
X98043500Y-29500000D01*
%TO.N,Net-(BT2--)*%
X97400000Y-48643500D02*
X113043500Y-33000000D01*
X140500000Y-33000000D02*
X145950000Y-27550000D01*
X113043500Y-33000000D02*
X140500000Y-33000000D01*
%TD*%
M02*
