%TF.GenerationSoftware,KiCad,Pcbnew,9.0.6*%
%TF.CreationDate,2026-08-31T00:53:20+06:00*%
%TF.ProjectId,Walkie talkie,57616c6b-6965-4207-9461-6c6b69652e6b,3*%
%TF.SameCoordinates,Original*%
%TF.FileFunction,Copper,L1,Top*%
%TF.FilePolarity,Positive*%
%FSLAX46Y46*%
G04 Gerber Fmt 4.6, Leading zero omitted, Abs format (unit mm)*
G04 Created by KiCad (PCBNEW 9.0.6) date 2026-08-31 00:53:20*
%MOMM*%
%LPD*%
G01*
G04 APERTURE LIST*
G04 Aperture macros list*
%AMRoundRect*
0 Rectangle with rounded corners*
0 $1 Rounding radius*
0 $2 $3 $4 $5 $6 $7 $8 $9 X,Y pos of 4 corners*
0 Add a 4 corners polygon primitive as box body*
4,1,4,$2,$3,$4,$5,$6,$7,$8,$9,$2,$3,0*
0 Add four circle primitives for the rounded corners*
1,1,$1+$1,$2,$3*
1,1,$1+$1,$4,$5*
1,1,$1+$1,$6,$7*
1,1,$1+$1,$8,$9*
0 Add four rect primitives between the rounded corners*
20,1,$1+$1,$2,$3,$4,$5,0*
20,1,$1+$1,$4,$5,$6,$7,0*
20,1,$1+$1,$6,$7,$8,$9,0*
20,1,$1+$1,$8,$9,$2,$3,0*%
G04 Aperture macros list end*
%TA.AperFunction,ComponentPad*%
%ADD10R,2.000000X2.000000*%
%TD*%
%TA.AperFunction,ComponentPad*%
%ADD11C,2.000000*%
%TD*%
%TA.AperFunction,SMDPad,CuDef*%
%ADD12RoundRect,0.750000X-0.750000X1.750000X-0.750000X-1.750000X0.750000X-1.750000X0.750000X1.750000X0*%
%TD*%
%TA.AperFunction,SMDPad,CuDef*%
%ADD13RoundRect,0.150000X-0.350000X0.350000X-0.350000X-0.350000X0.350000X-0.350000X0.350000X0.350000X0*%
%TD*%
%TA.AperFunction,ComponentPad*%
%ADD14R,2.800000X2.800000*%
%TD*%
%TA.AperFunction,ComponentPad*%
%ADD15C,1.600000*%
%TD*%
%TA.AperFunction,ComponentPad*%
%ADD16RoundRect,0.249999X1.250001X-1.250001X1.250001X1.250001X-1.250001X1.250001X-1.250001X-1.250001X0*%
%TD*%
%TA.AperFunction,ComponentPad*%
%ADD17C,3.000000*%
%TD*%
%TA.AperFunction,ComponentPad*%
%ADD18O,3.000000X1.750000*%
%TD*%
%TA.AperFunction,ComponentPad*%
%ADD19O,4.000000X2.500000*%
%TD*%
%TA.AperFunction,ComponentPad*%
%ADD20R,1.700000X1.700000*%
%TD*%
%TA.AperFunction,ComponentPad*%
%ADD21C,1.700000*%
%TD*%
%TA.AperFunction,ComponentPad*%
%ADD22RoundRect,0.250000X-0.450000X-0.450000X0.450000X-0.450000X0.450000X0.450000X-0.450000X0.450000X0*%
%TD*%
%TA.AperFunction,ComponentPad*%
%ADD23C,1.400000*%
%TD*%
%TA.AperFunction,ViaPad*%
%ADD24C,0.600000*%
%TD*%
%TA.AperFunction,Conductor*%
%ADD25C,0.200000*%
%TD*%
G04 APERTURE END LIST*
D10*
%TO.P,U1,1,3V3*%
%TO.N,ESP32_3V3*%
X70200000Y-65258500D03*
D11*
%TO.P,U1,2,GND*%
%TO.N,5V GND*%
X70200000Y-62718500D03*
%TO.P,U1,3,D15*%
%TO.N,Mic_WS*%
X70200000Y-60178500D03*
%TO.P,U1,4,D2*%
%TO.N,unconnected-(U1-D2-Pad4)*%
X70200000Y-57638500D03*
%TO.P,U1,5,D4*%
%TO.N,PTT*%
X70200000Y-55098500D03*
%TO.P,U1,6,RX2*%
%TO.N,unconnected-(U1-RX2-Pad6)*%
X70200000Y-52558500D03*
%TO.P,U1,7,TX2*%
%TO.N,unconnected-(U1-TX2-Pad7)*%
X70200000Y-50018500D03*
%TO.P,U1,8,D5*%
%TO.N,unconnected-(U1-D5-Pad8)*%
X70200000Y-47478500D03*
%TO.P,U1,9,D18*%
%TO.N,unconnected-(U1-D18-Pad9)*%
X70200000Y-44938500D03*
%TO.P,U1,10,D19*%
%TO.N,unconnected-(U1-D19-Pad10)*%
X70200000Y-42398500D03*
%TO.P,U1,11,D21*%
%TO.N,unconnected-(U1-D21-Pad11)*%
X70200000Y-39858500D03*
%TO.P,U1,12,RX0*%
%TO.N,unconnected-(U1-RX0-Pad12)*%
X70200000Y-37318500D03*
%TO.P,U1,13,TX0*%
%TO.N,unconnected-(U1-TX0-Pad13)*%
X70200000Y-34778500D03*
%TO.P,U1,14,D22*%
%TO.N,AMP_DIN*%
X70200000Y-32238500D03*
%TO.P,U1,15,D23*%
%TO.N,unconnected-(U1-D23-Pad15)*%
X70200000Y-29698500D03*
%TO.P,U1,16,EN*%
%TO.N,unconnected-(U1-EN-Pad16)*%
X44800000Y-29698500D03*
%TO.P,U1,17,VP*%
%TO.N,unconnected-(U1-VP-Pad17)*%
X44800000Y-32238500D03*
%TO.P,U1,18,VN*%
%TO.N,unconnected-(U1-VN-Pad18)*%
X44800000Y-34778500D03*
%TO.P,U1,19,D34*%
%TO.N,unconnected-(U1-D34-Pad19)*%
X44800000Y-37318500D03*
%TO.P,U1,20,D35*%
%TO.N,unconnected-(U1-D35-Pad20)*%
X44800000Y-39858500D03*
%TO.P,U1,21,D32*%
%TO.N,Mic_SD*%
X44800000Y-42398500D03*
%TO.P,U1,22,D33*%
%TO.N,unconnected-(U1-D33-Pad22)*%
X44800000Y-44938500D03*
%TO.P,U1,23,D25*%
%TO.N,AMP_LRC*%
X44800000Y-47478500D03*
%TO.P,U1,24,D26*%
%TO.N,AMP_BLCK*%
X44800000Y-50018500D03*
%TO.P,U1,25,D27*%
%TO.N,unconnected-(U1-D27-Pad25)*%
X44800000Y-52558500D03*
%TO.P,U1,26,D14*%
%TO.N,Mic_SCK*%
X44800000Y-55098500D03*
%TO.P,U1,27,D12*%
%TO.N,unconnected-(U1-D12-Pad27)*%
X44800000Y-57638500D03*
%TO.P,U1,28,D13*%
%TO.N,unconnected-(U1-D13-Pad28)*%
X44800000Y-60178500D03*
%TO.P,U1,29,GND*%
%TO.N,5V GND*%
X44800000Y-62718500D03*
%TO.P,U1,30,VIN*%
%TO.N,5V+ 1*%
X44800000Y-65258500D03*
%TD*%
D12*
%TO.P,11,1,IN-*%
%TO.N,Net-(11-IN-)*%
X97000000Y-57243500D03*
%TO.P,11,2,IN+*%
%TO.N,Net-(11-IN+)*%
X103800000Y-57243500D03*
%TO.P,11,3,OUT+*%
%TO.N,Net-(11-OUT+)*%
X103800000Y-87743500D03*
%TO.P,11,4,OUT-*%
%TO.N,5V GND*%
X97000000Y-87743500D03*
%TD*%
D11*
%TO.P,SW1,1,1*%
%TO.N,PTT*%
X100060000Y-95518500D03*
X106560000Y-95518500D03*
%TO.P,SW1,2,2*%
%TO.N,5V GND*%
X100060000Y-100018500D03*
X106560000Y-100018500D03*
%TD*%
D13*
%TO.P,LS1,1,1*%
%TO.N,Net-(U3-OUTP)*%
X44400000Y-86743500D03*
%TO.P,LS1,2,2*%
%TO.N,Net-(U3-OUTN)*%
X44400000Y-88743500D03*
%TD*%
D14*
%TO.P,TP1,1,5V+*%
%TO.N,unconnected-(TP1-5V+-Pad1)*%
X90000000Y-25743500D03*
%TO.P,TP1,2,-*%
%TO.N,unconnected-(TP1---Pad2)*%
X75800000Y-25743500D03*
%TO.P,TP1,3,B+*%
%TO.N,Net-(SW3A-A)*%
X86500000Y-48643500D03*
%TO.P,TP1,4,B-*%
%TO.N,Net-(BT1--)*%
X78900000Y-48643500D03*
%TO.P,TP1,5,OUT+*%
%TO.N,Net-(1-IN+)*%
X90000000Y-48643500D03*
%TO.P,TP1,6,OUT-*%
%TO.N,Net-(1-IN-)*%
X75500000Y-48643500D03*
%TD*%
D15*
%TO.P,C2,1*%
%TO.N,5V+ 2*%
X62500000Y-101243500D03*
%TO.P,C2,2*%
%TO.N,Net-(11-OUT+)*%
X67500000Y-101243500D03*
%TD*%
%TO.P,C1,1*%
%TO.N,5V+ 1*%
X54500000Y-101243500D03*
%TO.P,C1,2*%
%TO.N,Net-(1-OUT+)*%
X59500000Y-101243500D03*
%TD*%
D16*
%TO.P,BT1,1,+*%
%TO.N,Net-(BT1-+)*%
X122500000Y-100450000D03*
D17*
%TO.P,BT1,2,-*%
%TO.N,Net-(BT1--)*%
X122500000Y-27550000D03*
%TD*%
D18*
%TO.P,U3,1,Vin*%
%TO.N,5V+ 2*%
X66954000Y-80323500D03*
%TO.P,U3,2,GND*%
%TO.N,5V GND*%
X66954000Y-82863500D03*
%TO.P,U3,3,~{SD_MODE}*%
%TO.N,unconnected-(U3-~{SD_MODE}-Pad3)*%
X66954000Y-85403500D03*
%TO.P,U3,4,GAIN*%
%TO.N,5V GND*%
X66954000Y-87943500D03*
%TO.P,U3,5,DIN*%
%TO.N,AMP_DIN*%
X66954000Y-90483500D03*
%TO.P,U3,6,BCLK*%
%TO.N,AMP_BLCK*%
X66954000Y-93023500D03*
%TO.P,U3,7,LRC*%
%TO.N,AMP_LRC*%
X66954000Y-95563500D03*
D19*
%TO.P,U3,8,OUTP*%
%TO.N,Net-(U3-OUTP)*%
X54500000Y-89743500D03*
%TO.P,U3,9,OUTN*%
%TO.N,Net-(U3-OUTN)*%
X54500000Y-86243500D03*
%TD*%
D14*
%TO.P,TP2,1,5V+*%
%TO.N,unconnected-(TP2-5V+-Pad1)*%
X108500000Y-25743500D03*
%TO.P,TP2,2,-*%
%TO.N,unconnected-(TP2---Pad2)*%
X94300000Y-25743500D03*
%TO.P,TP2,3,B+*%
%TO.N,Net-(SW2A-A)*%
X105000000Y-48643500D03*
%TO.P,TP2,4,B-*%
%TO.N,Net-(BT2--)*%
X97400000Y-48643500D03*
%TO.P,TP2,5,OUT+*%
%TO.N,Net-(11-IN+)*%
X108500000Y-48643500D03*
%TO.P,TP2,6,OUT-*%
%TO.N,Net-(11-IN-)*%
X94000000Y-48643500D03*
%TD*%
D12*
%TO.P,1,1,IN-*%
%TO.N,Net-(1-IN-)*%
X79000000Y-58500000D03*
%TO.P,1,2,IN+*%
%TO.N,Net-(1-IN+)*%
X85800000Y-58500000D03*
%TO.P,1,3,OUT+*%
%TO.N,Net-(1-OUT+)*%
X85800000Y-89000000D03*
%TO.P,1,4,OUT-*%
%TO.N,5V GND*%
X79000000Y-89000000D03*
%TD*%
D16*
%TO.P,BT2,1,+*%
%TO.N,Net-(BT2-+)*%
X145950000Y-100450000D03*
D17*
%TO.P,BT2,2,-*%
%TO.N,Net-(BT2--)*%
X145950000Y-27550000D03*
%TD*%
D20*
%TO.P,M1,GND*%
%TO.N,5V GND*%
X87690000Y-109798500D03*
D21*
%TO.P,M1,L/R*%
X79690000Y-109798500D03*
%TO.P,M1,SCK*%
%TO.N,Mic_WS*%
X79690000Y-104718500D03*
%TO.P,M1,SD*%
%TO.N,Mic_SD*%
X87690000Y-104718500D03*
%TO.P,M1,VDD*%
%TO.N,ESP32_3V3*%
X87690000Y-107258500D03*
%TO.P,M1,WS*%
%TO.N,Mic_SCK*%
X79690000Y-107258500D03*
%TD*%
D22*
%TO.P,SW2,1,A*%
%TO.N,Net-(SW2A-A)*%
X100810000Y-103268500D03*
D23*
%TO.P,SW2,2,B*%
%TO.N,Net-(BT2-+)*%
X103310000Y-103268500D03*
%TO.P,SW2,3,C*%
%TO.N,unconnected-(SW2A-C-Pad3)*%
X105810000Y-103268500D03*
%TO.P,SW2,4*%
%TO.N,N/C*%
X105810000Y-106568500D03*
%TO.P,SW2,5*%
X103310000Y-106568500D03*
%TO.P,SW2,6*%
X100810000Y-106568500D03*
%TD*%
D22*
%TO.P,SW3,1,A*%
%TO.N,Net-(SW3A-A)*%
X100810000Y-109268500D03*
D23*
%TO.P,SW3,2,B*%
%TO.N,Net-(BT1-+)*%
X103310000Y-109268500D03*
%TO.P,SW3,3,C*%
%TO.N,unconnected-(SW3A-C-Pad3)*%
X105810000Y-109268500D03*
%TO.P,SW3,4*%
%TO.N,N/C*%
X105810000Y-112568500D03*
%TO.P,SW3,5*%
X103310000Y-112568500D03*
%TO.P,SW3,6*%
X100810000Y-112568500D03*
%TD*%
D24*
%TO.N,Net-(U3-OUTP)*%
X51500000Y-88143500D03*
%TO.N,AMP_BLCK*%
X42899000Y-51743500D03*
%TO.N,AMP_LRC*%
X42000000Y-50243500D03*
%TO.N,5V GND*%
X85099000Y-85243500D03*
X73400000Y-87743500D03*
X79500000Y-88243500D03*
X90566765Y-85176735D03*
%TO.N,PTT*%
X85099000Y-80743500D03*
%TO.N,Mic_WS*%
X74000000Y-71243500D03*
X74000000Y-94743500D03*
%TO.N,Mic_SD*%
X41399000Y-45743500D03*
%TO.N,Net-(1-OUT+)*%
X86300000Y-88243500D03*
%TO.N,Net-(11-OUT+)*%
X103800000Y-87743500D03*
%TD*%
D25*
%TO.N,5V+ 2*%
X69500000Y-95305615D02*
X63845665Y-100959950D01*
X67454000Y-80323500D02*
X69500000Y-82369500D01*
X69500000Y-82369500D02*
X69500000Y-95305615D01*
X63845665Y-100959950D02*
X62783550Y-100959950D01*
%TO.N,Net-(U3-OUTP)*%
X44400000Y-86743500D02*
X50100000Y-86743500D01*
X50100000Y-86743500D02*
X51500000Y-88143500D01*
%TO.N,Net-(U3-OUTN)*%
X52000000Y-88743500D02*
X54500000Y-86243500D01*
X44400000Y-88743500D02*
X52000000Y-88743500D01*
%TO.N,AMP_DIN*%
X67454000Y-90483500D02*
X67205885Y-90483500D01*
X50057164Y-32238500D02*
X70200000Y-32238500D01*
X43499000Y-66776615D02*
X43499000Y-29159608D01*
X67205885Y-90483500D02*
X43499000Y-66776615D01*
X43499000Y-29159608D02*
X44261108Y-28397500D01*
X44261108Y-28397500D02*
X46216164Y-28397500D01*
X46216164Y-28397500D02*
X50057164Y-32238500D01*
%TO.N,AMP_BLCK*%
X42899000Y-88997550D02*
X42899000Y-51743500D01*
X67454000Y-93023500D02*
X46924950Y-93023500D01*
X46924950Y-93023500D02*
X42899000Y-88997550D01*
%TO.N,AMP_LRC*%
X48897850Y-95563500D02*
X67454000Y-95563500D01*
X42000000Y-88665650D02*
X48897850Y-95563500D01*
X42000000Y-50243500D02*
X42000000Y-88665650D01*
%TO.N,5V GND*%
X67929000Y-73985209D02*
X67929000Y-64989500D01*
X71000000Y-101108500D02*
X71000000Y-77056209D01*
X79690000Y-109798500D02*
X71000000Y-101108500D01*
X64945000Y-82863500D02*
X44800000Y-62718500D01*
X97000000Y-87743500D02*
X94433235Y-85176735D01*
X94433235Y-85176735D02*
X90566765Y-85176735D01*
X67929000Y-64989500D02*
X70200000Y-62718500D01*
X67454000Y-87943500D02*
X68755000Y-86642500D01*
X73900000Y-88243500D02*
X79500000Y-88243500D01*
X71000000Y-77056209D02*
X67929000Y-73985209D01*
X87690000Y-109798500D02*
X79690000Y-109798500D01*
X100060000Y-100018500D02*
X100060000Y-98017160D01*
X73400000Y-87743500D02*
X73900000Y-88243500D01*
X68755000Y-84164500D02*
X67454000Y-82863500D01*
X68755000Y-86642500D02*
X68755000Y-84164500D01*
X44800000Y-62718500D02*
X70200000Y-62718500D01*
X87286340Y-85243500D02*
X85099000Y-85243500D01*
X67454000Y-82863500D02*
X64945000Y-82863500D01*
X100060000Y-98017160D02*
X87286340Y-85243500D01*
%TO.N,PTT*%
X100060000Y-95518500D02*
X85285000Y-80743500D01*
X85285000Y-80743500D02*
X85099000Y-80743500D01*
%TO.N,Mic_WS*%
X74000000Y-99028500D02*
X79690000Y-104718500D01*
X74000000Y-94743500D02*
X74000000Y-99028500D01*
X74000000Y-71243500D02*
X74000000Y-63978500D01*
X74000000Y-63978500D02*
X70200000Y-60178500D01*
%TO.N,Mic_SD*%
X41399000Y-90142500D02*
X41399000Y-45743500D01*
X88547000Y-111243500D02*
X62500000Y-111243500D01*
X62500000Y-111243500D02*
X41399000Y-90142500D01*
X89500000Y-106528500D02*
X89500000Y-110290500D01*
X89500000Y-110290500D02*
X88547000Y-111243500D01*
X87690000Y-104718500D02*
X89500000Y-106528500D01*
%TO.N,ESP32_3V3*%
X71631000Y-66689500D02*
X70200000Y-65258500D01*
X71631000Y-91199500D02*
X71631000Y-66689500D01*
X87690000Y-107258500D02*
X71631000Y-91199500D01*
%TO.N,Net-(SW2A-A)*%
X101361000Y-102717500D02*
X100810000Y-103268500D01*
X105000000Y-48643500D02*
X101361000Y-52282500D01*
X101361000Y-52282500D02*
X101361000Y-102717500D01*
%TO.N,Net-(SW3A-A)*%
X83000000Y-52143500D02*
X83000000Y-91458500D01*
X83000000Y-91458500D02*
X100810000Y-109268500D01*
X86500000Y-48643500D02*
X83000000Y-52143500D01*
%TO.N,Net-(1-IN+)*%
X86300000Y-52343500D02*
X90000000Y-48643500D01*
X86300000Y-57743500D02*
X86300000Y-52343500D01*
%TO.N,Net-(1-IN-)*%
X79500000Y-52643500D02*
X75500000Y-48643500D01*
X79500000Y-57743500D02*
X79500000Y-52643500D01*
%TO.N,Net-(11-IN+)*%
X103800000Y-57243500D02*
X103800000Y-53343500D01*
X103800000Y-53343500D02*
X108500000Y-48643500D01*
%TO.N,Net-(11-IN-)*%
X97000000Y-57243500D02*
X97000000Y-51643500D01*
X97000000Y-51643500D02*
X94000000Y-48643500D01*
%TD*%
M02*
