# Blender 5.0.0
# www.blender.org
mtllib Walkie talkie case.mtl
o Walkie_talkie_case_fusion.001
v -11.236594 -3.063519 1.303413
v -8.906773 -3.063519 1.303413
v -8.906773 -2.880153 1.303413
v -11.236594 -2.880153 1.303413
v -11.236594 -2.880153 3.503800
v -8.906773 -2.880153 3.503800
v -5.728387 -2.880153 3.503800
v -5.728387 -2.880154 -3.143454
v -9.543314 -2.880154 -3.143454
v -13.358242 -2.880154 -3.143454
v -13.358242 -2.880153 3.503800
v -5.728387 -3.063518 3.503800
v -5.728387 -3.063519 -3.143454
v -8.906773 -3.063518 3.503800
v -11.236594 -3.063518 3.503800
v -13.358242 -3.063518 3.503800
v -13.358242 -3.063519 -3.143454
v -9.543314 -3.063519 -3.143454
vn -0.0000 -0.0000 1.0000
vn -0.0000 1.0000 -0.0000
vn 1.0000 -0.0000 -0.0000
vn -1.0000 -0.0000 -0.0000
vn -0.0000 -0.0000 -1.0000
vn -0.0000 -1.0000 -0.0000
vt -0.000000 0.000000
vt -0.300000 0.000000
vt -0.000000 -3.749081
vt -0.300000 -3.749081
vt -2.770335 -5.437706
vt -2.770335 -1.837706
vt -6.241512 -5.437706
vt -6.241512 5.437706
vt 0.000000 5.437706
vt 0.978746 -1.837706
vt 6.241512 5.437706
vt 6.241512 -5.437706
vt 0.978746 -5.437706
vt 10.875413 0.000000
vt 0.000000 0.300000
vt 10.875413 0.300000
vt 5.262766 0.000000
vt 5.262766 0.300000
vt -3.300000 0.000000
vt 0.300000 0.000000
vt -3.300000 0.300000
vt 0.300000 0.300000
vt 3.600000 0.000000
vt 3.600000 0.300000
vt 3.471177 0.000000
vt 3.471177 0.300000
vt 6.241512 0.000000
vt 6.241512 0.300000
vt 12.483024 0.000000
vt 12.483024 0.300000
vt -2.770335 5.437706
vt -2.770335 1.837706
vt -0.000000 -5.437706
vt 0.978746 1.837706
vt 0.978746 5.437706
s 1
usemtl Material.001
f 2/1/1 3/2/1 1/3/1
f 1/3/1 3/2/1 4/4/1
f 5/5/2 4/6/2 11/7/2
f 11/7/2 4/6/2 10/8/2
f 10/8/2 4/6/2 9/9/2
f 9/9/2 4/6/2 3/10/2
f 9/9/2 3/10/2 8/11/2
f 8/11/2 3/10/2 7/12/2
f 7/12/2 3/10/2 6/13/2
f 12/1/3 13/14/3 7/15/3
f 7/15/3 13/14/3 8/16/3
f 14/1/1 12/17/1 6/15/1
f 6/15/1 12/17/1 7/18/1
f 2/19/4 14/20/4 3/21/4
f 3/21/4 14/20/4 6/22/4
f 15/1/3 1/23/3 5/15/3
f 5/15/3 1/23/3 4/24/3
f 16/1/1 15/25/1 11/15/1
f 11/15/1 15/25/1 5/26/1
f 17/1/4 16/14/4 10/15/4
f 10/15/4 16/14/4 11/16/4
f 13/1/5 18/27/5 8/15/5
f 8/15/5 18/27/5 9/28/5
f 9/28/5 18/27/5 17/29/5
f 9/28/5 17/29/5 10/30/5
f 15/31/6 16/8/6 1/32/6
f 1/32/6 16/8/6 17/7/6
f 1/32/6 17/7/6 18/33/6
f 1/32/6 18/33/6 2/34/6
f 2/34/6 18/33/6 13/12/6
f 2/34/6 13/12/6 12/11/6
f 12/11/6 14/35/6 2/34/6
o Walkie_talkie_case_fusion.002
v -4.949284 -2.194867 1.603184
v -4.949284 -2.188679 1.650190
v -4.949284 -2.170535 1.693991
v -4.949284 -2.141674 1.731604
v -4.949284 -2.104060 1.760466
v -4.949284 -2.060258 1.778610
v -4.949284 -2.013253 1.784798
v -4.949284 -1.966247 1.778610
v -4.949284 -1.922446 1.760466
v -4.949284 -1.884832 1.731604
v -4.949284 -1.855971 1.693991
v -4.949284 -1.837827 1.650190
v -4.949284 -1.831638 1.603184
v -4.949284 -1.837827 1.556178
v -4.949284 -1.855971 1.512377
v -4.949284 -1.884832 1.474764
v -4.949284 -1.922446 1.445901
v -4.949284 -1.966247 1.427758
v -4.949284 -2.013253 1.421570
v -4.949284 -2.060258 1.427758
v -4.949284 -2.104060 1.445901
v -4.949284 -2.141674 1.474764
v -4.949284 -2.170535 1.512377
v -4.949284 -2.188679 1.556178
v -4.949284 -3.224014 1.229679
v -4.949284 -3.224014 1.055507
v -4.949284 -0.923567 1.055507
v -4.949284 -0.923567 2.137750
v -4.949284 -3.223977 2.137750
v -4.949284 -3.223977 1.229679
v -5.191436 -2.194867 1.603184
v -5.191436 -2.188679 1.650190
v -5.191436 -2.170535 1.693991
v -5.191436 -2.141674 1.731604
v -5.191436 -2.104060 1.760466
v -5.191436 -2.060258 1.778610
v -5.191436 -2.013253 1.784798
v -5.191436 -1.966247 1.778610
v -5.191436 -1.922446 1.760466
v -5.191436 -1.884832 1.731604
v -5.191436 -1.855971 1.693991
v -5.191436 -1.837827 1.650190
v -5.191436 -1.831638 1.603184
v -5.191436 -1.837827 1.556178
v -5.191436 -1.855971 1.512377
v -5.191436 -1.884832 1.474764
v -5.191436 -1.922446 1.445901
v -5.191436 -1.966247 1.427758
v -5.191436 -2.013253 1.421570
v -5.191436 -2.060258 1.427758
v -5.191436 -2.104060 1.445901
v -5.191436 -2.141674 1.474764
v -5.191436 -2.170535 1.512377
v -5.191436 -2.188679 1.556178
v -5.191436 -3.223977 1.229679
v -5.191436 -3.224014 1.229679
v -5.191436 -3.223977 2.137750
v -5.191436 -0.923567 2.137750
v -5.191436 -0.923567 1.055507
v -5.191436 -3.224014 1.055507
v -3.702241 -0.937870 1.048065
v -3.702241 -0.937870 1.229679
v -3.520627 -0.937870 1.229679
v -3.520627 -0.937870 1.048065
v -3.702241 -3.207491 1.048065
v -3.520627 -3.207491 1.048065
v -3.702241 -3.207491 1.229679
v -3.520627 -3.207491 1.229679
v -3.520627 -3.207491 1.048065
v -3.702241 -3.207491 1.048065
v -3.702241 -3.207491 -0.949691
v -3.520627 -3.207491 -0.949691
v -3.520627 -0.937870 1.048065
v -3.520627 -0.937870 -0.949691
v -3.702241 -0.937870 1.048065
v -3.702241 -0.937870 -0.949691
v -3.702241 -3.207491 1.229679
v -5.191436 -3.207491 1.229679
v -5.191436 -3.207491 1.048065
v -3.702241 -3.207491 1.048065
v -3.702241 -0.937870 1.229679
v -3.702241 -0.937870 1.048065
v -5.191436 -0.937870 1.229679
v -5.191436 -0.937870 1.048065
vn 1.0000 -0.0000 -0.0000
vn -0.0000 0.9659 0.2588
vn -0.0000 1.0000 -0.0000
vn -0.0000 0.9659 -0.2588
vn -0.0000 0.8660 -0.5000
vn -0.0000 0.7071 -0.7071
vn -0.0000 0.5000 -0.8660
vn -0.0000 0.2588 -0.9659
vn -0.0000 -0.0000 -1.0000
vn -0.0000 -0.2588 -0.9659
vn -0.0000 -0.5000 -0.8660
vn -0.0000 -0.7071 -0.7071
vn -0.0000 -0.8660 -0.5000
vn -0.0000 -0.9659 -0.2588
vn -0.0000 -1.0000 -0.0000
vn -0.0000 -0.9659 0.2588
vn -0.0000 -0.8660 0.5000
vn -0.0000 -0.7071 0.7071
vn -0.0000 -0.5000 0.8660
vn -0.0000 -0.2588 0.9659
vn -0.0000 -0.0000 1.0000
vn -0.0000 0.2588 0.9659
vn -0.0000 0.5000 0.8660
vn -0.0000 0.7071 0.7071
vn -0.0000 0.8660 0.5000
vn -1.0000 -0.0000 -0.0000
vt -0.189778 -0.066817
vt -0.200000 0.010829
vt -1.899938 -0.606147
vt -0.189778 0.088474
vt -1.899938 0.893853
vt -0.159808 0.160829
vt -0.112132 0.222961
vt -0.050000 0.270636
vt 0.022354 0.300606
vt 0.100000 0.310829
vt 1.900000 0.893853
vt 0.177646 0.300606
vt 0.250000 0.270636
vt 0.312132 0.222961
vt 0.359808 0.160829
vt 0.389778 0.088474
vt 0.400000 0.010829
vt 1.900000 -0.893853
vt 0.389778 -0.066817
vt 0.359808 -0.139171
vt 0.312132 -0.201303
vt 0.250000 -0.248979
vt 0.177646 -0.278949
vt 0.100000 -0.289171
vt -1.900000 -0.893853
vt 0.022354 -0.278949
vt -0.050000 -0.248979
vt -0.112132 -0.201303
vt -0.159808 -0.139171
vt -1.900000 -0.606147
vt 0.400000 -0.863938
vt 0.000000 -0.863938
vt 0.400000 -0.942478
vt 0.000000 -0.942478
vt 0.400000 0.942478
vt 0.000000 0.942478
vt 0.400000 0.863938
vt 0.000000 0.863938
vt 0.400000 0.785398
vt 0.000000 0.785398
vt 0.400000 0.706858
vt 0.000000 0.706858
vt 0.400000 0.628319
vt -0.000000 0.628319
vt 0.400000 0.549779
vt 0.000000 0.549779
vt 0.400000 0.471239
vt 0.000000 0.471239
vt 0.400000 0.392699
vt 0.000000 0.392699
vt 0.400000 0.314159
vt -0.000000 0.314159
vt 0.400000 0.235619
vt 0.000000 0.235619
vt 0.400000 0.157080
vt -0.000000 0.157080
vt 0.400000 0.078540
vt 0.000000 0.078540
vt 0.400000 0.000000
vt 0.000000 0.000000
vt 0.400000 -0.078540
vt 0.000000 -0.078540
vt 0.400000 -0.157080
vt 0.000000 -0.157080
vt 0.400000 -0.235619
vt 0.000000 -0.235619
vt 0.400000 -0.314159
vt -0.000000 -0.314159
vt 0.400000 -0.392699
vt 0.000000 -0.392699
vt 0.400000 -0.471239
vt 0.000000 -0.471239
vt 0.400000 -0.549779
vt 0.000000 -0.549779
vt 0.400000 -0.628319
vt -0.000000 -0.628319
vt 0.400000 -0.706858
vt 0.000000 -0.706858
vt 0.400000 -0.785398
vt -0.000000 -0.785398
vt 0.000063 0.000000
vt 0.000000 0.400000
vt 0.000063 0.400000
vt 1.500000 0.000000
vt 1.500000 0.400000
vt 3.799938 0.000000
vt 3.799938 0.400000
vt 1.787706 0.000000
vt 1.787706 0.400000
vt 3.800000 0.000000
vt 3.800000 0.400000
vt 0.287706 0.000000
vt 0.287706 0.400000
vt 0.189778 0.088474
vt 0.200000 0.010829
vt 1.899938 -0.606147
vt 0.189778 -0.066817
vt 0.159808 -0.139171
vt 0.112132 -0.201303
vt 0.050000 -0.248979
vt -0.022354 -0.278949
vt -0.100000 -0.289171
vt -0.177646 -0.278949
vt -0.250000 -0.248979
vt -0.312132 -0.201303
vt -0.359808 -0.139171
vt -0.389778 -0.066817
vt -0.400000 0.010829
vt -1.900000 0.893853
vt -0.389778 0.088474
vt -0.359808 0.160829
vt -0.312132 0.222961
vt -0.250000 0.270636
vt -0.177646 0.300606
vt -0.100000 0.310829
vt 1.899938 0.893853
vt -0.022354 0.300606
vt 0.050000 0.270636
vt 0.112132 0.222961
vt 0.159808 0.160829
vt 1.900000 -0.606147
vt 0.300000 0.000000
vt -0.000000 0.300000
vt 0.300000 0.300000
vt 3.749081 0.000000
vt 3.749081 0.300000
vt -3.749081 0.000000
vt -3.749081 0.300000
vt -0.000000 3.300000
vt 0.300000 3.300000
vt 3.749081 3.300000
vt 0.000000 -3.749081
vt 0.300000 -3.749081
vt 2.459932 0.000000
vt 2.459932 0.300000
vt -1.874540 -1.229966
vt 1.874540 -1.229966
vt -1.874540 1.229966
vt 1.874540 1.229966
vt -1.229966 -1.874540
vt 1.229966 -1.874540
vt -1.229966 1.874540
vt 1.229966 1.874540
s 1
usemtl Material.001
f 42/36/7 19/37/7 48/38/7
f 48/38/7 19/37/7 20/39/7
f 48/38/7 20/39/7 47/40/7
f 47/40/7 20/39/7 21/41/7
f 47/40/7 21/41/7 22/42/7
f 22/42/7 23/43/7 47/40/7
f 47/40/7 23/43/7 24/44/7
f 47/40/7 24/44/7 25/45/7
f 47/40/7 25/45/7 46/46/7
f 46/46/7 25/45/7 26/47/7
f 46/46/7 26/47/7 27/48/7
f 27/48/7 28/49/7 46/46/7
f 46/46/7 28/49/7 29/50/7
f 46/46/7 29/50/7 30/51/7
f 30/51/7 31/52/7 46/46/7
f 46/46/7 31/52/7 45/53/7
f 45/53/7 31/52/7 32/54/7
f 45/53/7 32/54/7 33/55/7
f 33/55/7 34/56/7 45/53/7
f 45/53/7 34/56/7 35/57/7
f 45/53/7 35/57/7 36/58/7
f 36/58/7 37/59/7 45/53/7
f 45/53/7 37/59/7 44/60/7
f 44/60/7 37/59/7 38/61/7
f 44/60/7 38/61/7 48/38/7
f 48/38/7 38/61/7 39/62/7
f 48/38/7 39/62/7 40/63/7
f 40/63/7 41/64/7 48/38/7
f 48/38/7 41/64/7 42/36/7
f 43/65/7 44/60/7 48/38/7
f 42/66/8 72/67/8 19/68/9
f 19/68/9 72/67/8 49/69/9
f 19/70/9 49/71/9 20/72/10
f 20/72/10 49/71/9 50/73/10
f 20/72/10 50/73/10 21/74/11
f 21/74/11 50/73/10 51/75/11
f 21/74/11 51/75/11 22/76/12
f 22/76/12 51/75/11 52/77/12
f 22/76/12 52/77/12 23/78/13
f 23/78/13 52/77/12 53/79/13
f 23/78/13 53/79/13 24/80/14
f 24/80/14 53/79/13 54/81/14
f 24/80/14 54/81/14 25/82/15
f 25/82/15 54/81/14 55/83/15
f 25/82/15 55/83/15 26/84/16
f 26/84/16 55/83/15 56/85/16
f 26/84/16 56/85/16 27/86/17
f 27/86/17 56/85/16 57/87/17
f 27/86/17 57/87/17 28/88/18
f 28/88/18 57/87/17 58/89/18
f 28/88/18 58/89/18 29/90/19
f 29/90/19 58/89/18 59/91/19
f 29/90/19 59/91/19 30/92/20
f 30/92/20 59/91/19 60/93/20
f 30/92/20 60/93/20 31/94/21
f 31/94/21 60/93/20 61/95/21
f 31/94/21 61/95/21 32/96/22
f 32/96/22 61/95/21 62/97/22
f 32/96/22 62/97/22 33/98/23
f 33/98/23 62/97/22 63/99/23
f 33/98/23 63/99/23 34/100/24
f 34/100/24 63/99/23 64/101/24
f 34/100/24 64/101/24 35/102/25
f 35/102/25 64/101/24 65/103/25
f 35/102/25 65/103/25 36/104/26
f 36/104/26 65/103/25 66/105/26
f 36/104/26 66/105/26 37/106/27
f 37/106/27 66/105/26 67/107/27
f 37/106/27 67/107/27 38/108/28
f 38/108/28 67/107/27 68/109/28
f 38/108/28 68/109/28 39/110/29
f 39/110/29 68/109/28 69/111/29
f 39/110/29 69/111/29 40/112/30
f 40/112/30 69/111/29 70/113/30
f 40/112/30 70/113/30 41/114/31
f 41/114/31 70/113/30 71/115/31
f 41/114/31 71/115/31 42/66/8
f 42/66/8 71/115/31 72/67/8
f 73/95/27 74/116/27 48/117/27
f 48/117/27 74/116/27 43/118/27
f 75/95/21 73/119/21 47/117/21
f 47/117/21 73/119/21 48/120/21
f 76/95/27 75/121/27 46/117/27
f 46/117/27 75/121/27 47/122/27
f 77/95/9 76/123/9 45/117/9
f 45/117/9 76/123/9 46/124/9
f 78/95/15 77/125/15 44/117/15
f 44/117/15 77/125/15 45/126/15
f 74/95/21 78/127/21 43/117/21
f 43/117/21 78/127/21 44/128/21
f 50/129/32 49/130/32 73/131/32
f 73/131/32 49/130/32 72/132/32
f 73/131/32 72/132/32 71/133/32
f 71/133/32 70/134/32 73/131/32
f 73/131/32 70/134/32 69/135/32
f 73/131/32 69/135/32 68/136/32
f 73/131/32 68/136/32 78/53/32
f 78/53/32 68/136/32 67/137/32
f 78/53/32 67/137/32 77/60/32
f 77/60/32 67/137/32 66/138/32
f 77/60/32 66/138/32 65/139/32
f 65/139/32 64/140/32 77/60/32
f 77/60/32 64/140/32 63/141/32
f 77/60/32 63/141/32 62/142/32
f 62/142/32 61/143/32 77/60/32
f 77/60/32 61/143/32 76/144/32
f 76/144/32 61/143/32 60/145/32
f 76/144/32 60/145/32 59/146/32
f 59/146/32 58/147/32 76/144/32
f 76/144/32 58/147/32 57/148/32
f 76/144/32 57/148/32 56/149/32
f 56/149/32 55/150/32 76/144/32
f 76/144/32 55/150/32 75/151/32
f 75/151/32 55/150/32 54/152/32
f 75/151/32 54/152/32 53/153/32
f 53/153/32 52/154/32 75/151/32
f 75/151/32 52/154/32 51/155/32
f 75/151/32 51/155/32 50/129/32
f 75/151/32 50/129/32 73/131/32
f 78/53/32 74/156/32 73/131/32
f 79/95/9 80/157/9 82/158/9
f 82/158/9 80/157/9 81/159/9
f 83/95/15 79/160/15 84/158/15
f 84/158/15 79/160/15 82/161/15
f 85/95/21 83/157/21 86/158/21
f 86/158/21 83/157/21 84/159/21
f 80/95/27 85/160/27 81/158/27
f 81/158/27 85/160/27 86/161/27
f 81/95/7 86/160/7 82/158/7
f 82/158/7 86/160/7 84/161/7
f 85/162/32 80/95/32 83/163/32
f 83/163/32 80/95/32 79/158/32
f 87/95/21 88/157/21 90/164/21
f 90/164/21 88/157/21 89/165/21
f 91/95/7 87/160/7 92/164/7
f 92/164/7 87/160/7 90/166/7
f 93/95/9 91/157/9 94/164/9
f 94/164/9 91/157/9 92/165/9
f 88/95/32 93/160/32 89/164/32
f 89/164/32 93/160/32 94/166/32
f 94/167/15 92/168/15 89/95/15
f 89/95/15 92/168/15 90/157/15
f 93/162/27 88/95/27 91/163/27
f 91/163/27 88/95/27 87/158/27
f 95/95/21 96/169/21 98/158/21
f 98/158/21 96/169/21 97/170/21
f 99/95/7 95/160/7 100/158/7
f 100/158/7 95/160/7 98/161/7
f 101/95/9 99/169/9 102/158/9
f 102/158/9 99/169/9 100/170/9
f 96/95/32 101/160/32 97/158/32
f 97/158/32 101/160/32 102/161/32
f 101/171/27 96/172/27 99/173/27
f 99/173/27 96/172/27 95/174/27
f 102/175/15 100/176/15 97/177/15
f 97/177/15 100/176/15 98/178/15
o Walkie_talkie_case_fusion.003
v 0.624546 -3.161997 3.891122
v 0.618259 -3.161997 3.938878
v 0.599826 -3.161997 3.983379
v 0.570503 -3.161997 4.021594
v 0.532288 -3.161997 4.050917
v 0.487787 -3.161997 4.069350
v 0.440031 -3.161997 4.075637
v 0.392274 -3.161997 4.069350
v 0.347773 -3.161997 4.050917
v 0.309558 -3.161997 4.021594
v 0.280236 -3.161997 3.983379
v 0.261802 -3.161997 3.938878
v 0.255515 -3.161997 3.891122
v 0.261802 -3.161997 3.843365
v 0.280236 -3.161997 3.798864
v 0.309558 -3.161997 3.760649
v 0.347773 -3.161997 3.731327
v 0.392274 -3.161997 3.712893
v 0.440031 -3.161997 3.706606
v 0.487787 -3.161997 3.712893
v 0.532288 -3.161997 3.731327
v 0.570503 -3.161997 3.760649
v 0.599826 -3.161997 3.798864
v 0.618259 -3.161997 3.843365
v 0.624546 -2.977481 3.891122
v 0.618259 -2.977481 3.843365
v 0.599826 -2.977481 3.798864
v 0.570503 -2.977481 3.760649
v 0.532288 -2.977481 3.731327
v 0.487787 -2.977481 3.712893
v 0.440031 -2.977481 3.706606
v 0.392274 -2.977481 3.712893
v 0.347773 -2.977481 3.731327
v 0.309558 -2.977481 3.760649
v 0.280236 -2.977481 3.798864
v 0.261802 -2.977481 3.843365
v 0.255515 -2.977481 3.891122
v 0.261802 -2.977481 3.938878
v 0.280236 -2.977481 3.983379
v 0.309558 -2.977481 4.021594
v 0.347773 -2.977481 4.050917
v 0.392274 -2.977481 4.069350
v 0.440031 -2.977481 4.075637
v 0.487787 -2.977481 4.069350
v 0.532288 -2.977481 4.050917
v 0.570503 -2.977481 4.021594
v 0.599826 -2.977481 3.983379
v 0.618259 -2.977481 3.938878
v -0.667063 -2.977481 3.511650
v -0.667063 -3.248146 3.511650
v -0.667063 -3.248146 4.434228
v -0.667063 -2.977481 4.434228
v 1.670096 -3.248146 3.511650
v 1.670096 -2.977481 3.511650
v 1.670096 -2.977481 4.434228
v 1.670096 -3.248146 4.434228
v -0.667063 -1.464496 3.511650
v -2.787486 -1.464496 3.511650
v -2.787486 -3.248146 3.511650
v 4.890221 -3.248146 3.511650
v 4.890221 -1.464496 3.511650
v 1.670135 -1.464496 3.511650
v 1.670135 -2.977481 3.511650
v 1.670135 -1.464496 3.334695
v 1.670135 -2.977481 3.334695
v -0.667063 -2.977481 3.334695
v -0.667063 -1.464496 3.334695
v 4.713267 -1.464496 3.334695
v 4.713267 -3.007619 3.334695
v 1.022956 -3.007619 3.334695
v -2.667356 -3.007619 3.334695
v -2.667356 -1.464496 3.334695
v -2.667356 -1.464496 -3.000340
v -2.667356 -3.007620 -3.000339
v 4.713267 -1.464496 -3.000340
v 1.022956 -1.464496 -3.000340
v 1.022956 -3.007620 -3.000339
v 4.713267 -3.007620 -3.000339
v -2.787486 -3.248147 -3.177293
v -2.787486 -1.464496 -3.177293
v 4.890221 -3.248147 -3.177293
v 1.051368 -3.248147 -3.177293
v 1.051368 -1.464496 -3.177293
v 4.890221 -1.464496 -3.177293
vn -0.9659 -0.0000 -0.2588
vn -1.0000 -0.0000 -0.0000
vn -0.9659 -0.0000 0.2588
vn -0.8660 -0.0000 0.5000
vn -0.7071 -0.0000 0.7071
vn -0.5000 -0.0000 0.8660
vn -0.2588 -0.0000 0.9659
vn -0.0000 -0.0000 1.0000
vn 0.2588 -0.0000 0.9659
vn 0.5000 -0.0000 0.8660
vn 0.7071 -0.0000 0.7071
vn 0.8660 -0.0000 0.5000
vn 0.9659 -0.0000 0.2588
vn 1.0000 -0.0000 -0.0000
vn 0.9659 -0.0000 -0.2588
vn 0.8660 -0.0000 -0.5000
vn 0.7071 -0.0000 -0.7071
vn 0.5000 -0.0000 -0.8660
vn 0.2588 -0.0000 -0.9659
vn -0.0000 -0.0000 -1.0000
vn -0.2588 -0.0000 -0.9659
vn -0.5000 -0.0000 -0.8660
vn -0.7071 -0.0000 -0.7071
vn -0.8660 -0.0000 -0.5000
vn -0.0000 1.0000 -0.0000
vn -0.0000 -1.0000 -0.0000
vt 0.300000 -0.863938
vt 0.000000 -0.863938
vt 0.300000 -0.942478
vt 0.000000 -0.942478
vt 0.300000 0.942478
vt 0.000000 0.942478
vt 0.300000 0.863938
vt 0.000000 0.863938
vt 0.300000 0.785398
vt 0.000000 0.785398
vt 0.300000 0.706858
vt 0.000000 0.706858
vt 0.300000 0.628319
vt 0.000000 0.628319
vt 0.300000 0.549779
vt 0.000000 0.549779
vt 0.300000 0.471239
vt 0.000000 0.471239
vt 0.300000 0.392699
vt 0.000000 0.392699
vt 0.300000 0.314159
vt 0.000000 0.314159
vt 0.300000 0.235619
vt 0.000000 0.235619
vt 0.300000 0.157080
vt 0.000000 0.157080
vt 0.300000 0.078540
vt 0.000000 0.078540
vt 0.300000 0.000000
vt 0.000000 0.000000
vt 0.300000 -0.078540
vt -0.000000 -0.078540
vt 0.300000 -0.157080
vt -0.000000 -0.157080
vt 0.300000 -0.235619
vt 0.000000 -0.235619
vt 0.300000 -0.314159
vt -0.000000 -0.314159
vt 0.300000 -0.392699
vt -0.000000 -0.392699
vt 0.300000 -0.471239
vt 0.000000 -0.471239
vt 0.300000 -0.549779
vt 0.000000 -0.549779
vt 0.300000 -0.628319
vt 0.000000 -0.628319
vt 0.300000 -0.706858
vt 0.000000 -0.706858
vt 0.300000 -0.785398
vt 0.000000 -0.785398
vt -0.289778 -0.077646
vt 0.289778 -0.077646
vt -0.300000 0.000000
vt -0.289778 0.077646
vt 0.289778 0.077646
vt -0.259808 0.150000
vt 0.259808 0.150000
vt -0.212132 0.212132
vt 0.212132 0.212132
vt -0.150000 0.259808
vt 0.150000 0.259808
vt -0.077646 0.289778
vt 0.077646 0.289778
vt 0.000000 0.300000
vt 0.259808 -0.150000
vt -0.259808 -0.150000
vt 0.212132 -0.212132
vt -0.212132 -0.212132
vt 0.150000 -0.259808
vt -0.150000 -0.259808
vt 0.077646 -0.289778
vt -0.077646 -0.289778
vt 0.000000 -0.300000
vt 0.440068 0.000000
vt 0.000000 1.500000
vt 0.440068 1.500000
vt 0.220034 1.899969
vt -0.220034 1.899969
vt 0.220034 -1.899969
vt -0.220034 -1.899969
vt 3.447552 0.000000
vt 3.447552 0.440068
vt 0.000000 2.900000
vt 3.447552 2.900000
vt 7.247490 0.440068
vt 7.247490 -0.000000
vt 7.247552 0.440068
vt 12.483024 0.000000
vt 12.483024 2.900000
vt 7.247552 2.900000
vt -3.295318 3.200000
vt -3.583025 3.200000
vt -3.295318 0.740068
vt -3.583025 0.740068
vt 0.189778 -2.222354
vt 0.200000 -2.300000
vt 1.899938 -1.683024
vt 0.189778 -2.377646
vt 1.899938 -3.183024
vt 0.159808 -2.450000
vt 0.112132 -2.512132
vt 0.050000 -2.559808
vt -0.022354 -2.589778
vt -0.100000 -2.600000
vt -1.900000 -3.183024
vt -0.177646 -2.589778
vt -0.250000 -2.559808
vt -0.312132 -2.512132
vt -0.359808 -2.450000
vt -0.389778 -2.377646
vt -1.900000 -1.683024
vt -0.400000 -2.300000
vt -0.389778 -2.222354
vt -0.359808 -2.150000
vt -0.312132 -2.087868
vt -0.250000 -2.040192
vt -0.177646 -2.010222
vt -1.900000 -1.395318
vt -0.100000 -2.000000
vt 1.900000 -1.395318
vt -0.022354 -2.010222
vt 0.050000 -2.040192
vt 0.112132 -2.087868
vt 0.159808 -2.150000
vt 1.900000 -1.683024
vt -0.504682 0.740068
vt -0.216976 0.740068
vt -0.504682 3.200000
vt -0.216976 3.200000
vt -8.747765 2.691068
vt -8.747765 5.151000
vt -12.000000 2.691068
vt -12.000000 5.200000
vt -6.000000 5.200000
vt -4.947765 5.151000
vt -0.000000 5.200000
vt -0.000000 2.691068
vt -4.947765 2.691068
vt -10.300000 2.691068
vt -10.300000 5.200000
vt -6.000000 2.691068
vt -6.000000 -5.150000
vt 0.000000 -5.150000
vt -6.000000 5.150000
vt -0.000000 5.150000
vt 6.000000 -5.150000
vt 6.000000 5.150000
vt 10.875413 0.000000
vt 10.875413 2.900000
vt 6.241512 -0.000000
vt 6.241512 2.900000
vt -2.793960 -5.150000
vt -6.046194 -5.150000
vt -2.793960 -5.437706
vt -6.241512 -5.437706
vt -6.046194 5.150000
vt -6.241512 5.437706
vt 0.000000 5.437706
vt -0.046194 5.150000
vt 5.953806 5.150000
vt 5.953806 -5.150000
vt 6.241512 -5.437706
vt 6.241512 5.437706
vt 1.006040 -5.150000
vt 1.006040 -5.437706
vt -1.005978 -5.437706
vt 2.793960 -5.437706
vt -1.005978 -6.937706
vt 2.793960 -6.937706
s 1
usemtl Material.001
f 104/179/33 150/180/33 103/181/34
f 103/181/34 150/180/33 127/182/34
f 103/183/34 127/184/34 126/185/35
f 126/185/35 127/184/34 128/186/35
f 126/185/35 128/186/35 125/187/36
f 125/187/36 128/186/35 129/188/36
f 125/187/36 129/188/36 124/189/37
f 124/189/37 129/188/36 130/190/37
f 124/189/37 130/190/37 123/191/38
f 123/191/38 130/190/37 131/192/38
f 123/191/38 131/192/38 122/193/39
f 122/193/39 131/192/38 132/194/39
f 122/193/39 132/194/39 121/195/40
f 121/195/40 132/194/39 133/196/40
f 121/195/40 133/196/40 120/197/41
f 120/197/41 133/196/40 134/198/41
f 120/197/41 134/198/41 119/199/42
f 119/199/42 134/198/41 135/200/42
f 119/199/42 135/200/42 118/201/43
f 118/201/43 135/200/42 136/202/43
f 118/201/43 136/202/43 117/203/44
f 117/203/44 136/202/43 137/204/44
f 117/203/44 137/204/44 116/205/45
f 116/205/45 137/204/44 138/206/45
f 116/205/45 138/206/45 115/207/46
f 115/207/46 138/206/45 139/208/46
f 115/207/46 139/208/46 114/209/47
f 114/209/47 139/208/46 140/210/47
f 114/209/47 140/210/47 113/211/48
f 113/211/48 140/210/47 141/212/48
f 113/211/48 141/212/48 112/213/49
f 112/213/49 141/212/48 142/214/49
f 112/213/49 142/214/49 111/215/50
f 111/215/50 142/214/49 143/216/50
f 111/215/50 143/216/50 110/217/51
f 110/217/51 143/216/50 144/218/51
f 110/217/51 144/218/51 109/219/52
f 109/219/52 144/218/51 145/220/52
f 109/219/52 145/220/52 108/221/53
f 108/221/53 145/220/52 146/222/53
f 108/221/53 146/222/53 107/223/54
f 107/223/54 146/222/53 147/224/54
f 107/223/54 147/224/54 106/225/55
f 106/225/55 147/224/54 148/226/55
f 106/225/55 148/226/55 105/227/56
f 105/227/56 148/226/55 149/228/56
f 105/227/56 149/228/56 104/179/33
f 104/179/33 149/228/56 150/180/33
f 126/229/57 116/230/57 103/231/57
f 103/231/57 116/230/57 115/207/57
f 103/231/57 115/207/57 104/232/57
f 104/232/57 115/207/57 114/233/57
f 104/232/57 114/233/57 105/234/57
f 105/234/57 114/233/57 113/235/57
f 105/234/57 113/235/57 106/236/57
f 106/236/57 113/235/57 112/237/57
f 106/236/57 112/237/57 107/238/57
f 107/238/57 112/237/57 111/239/57
f 107/238/57 111/239/57 108/240/57
f 108/240/57 111/239/57 110/241/57
f 108/240/57 110/241/57 109/242/57
f 116/230/57 126/229/57 117/243/57
f 117/243/57 126/229/57 125/244/57
f 117/243/57 125/244/57 118/245/57
f 118/245/57 125/244/57 124/246/57
f 118/245/57 124/246/57 119/247/57
f 119/247/57 124/246/57 123/248/57
f 119/247/57 123/248/57 120/249/57
f 120/249/57 123/248/57 122/250/57
f 120/249/57 122/250/57 121/251/57
f 151/208/34 152/252/34 154/253/34
f 154/253/34 152/252/34 153/254/34
f 155/208/46 156/252/46 158/253/46
f 158/253/46 156/252/46 157/254/46
f 158/255/40 157/256/40 153/257/40
f 153/257/40 157/256/40 154/258/40
f 152/259/40 151/260/40 161/208/40
f 161/208/40 151/260/40 160/261/40
f 160/261/40 151/260/40 159/262/40
f 156/263/40 155/264/40 165/265/40
f 165/265/40 155/264/40 162/266/40
f 165/265/40 162/266/40 163/267/40
f 163/267/40 164/268/40 165/265/40
f 167/269/34 165/270/34 166/271/34
f 166/271/34 165/270/34 164/272/34
f 128/273/57 127/274/57 156/275/57
f 156/275/57 127/274/57 150/276/57
f 156/275/57 150/276/57 157/277/57
f 157/277/57 150/276/57 149/278/57
f 157/277/57 149/278/57 148/279/57
f 148/279/57 147/280/57 157/277/57
f 157/277/57 147/280/57 146/281/57
f 157/277/57 146/281/57 145/282/57
f 157/277/57 145/282/57 154/283/57
f 154/283/57 145/282/57 144/284/57
f 154/283/57 144/284/57 143/285/57
f 143/285/57 142/286/57 154/283/57
f 154/283/57 142/286/57 141/287/57
f 154/283/57 141/287/57 140/288/57
f 154/283/57 140/288/57 151/289/57
f 151/289/57 140/288/57 139/290/57
f 151/289/57 139/290/57 138/291/57
f 138/291/57 137/292/57 151/289/57
f 151/289/57 137/292/57 136/293/57
f 151/289/57 136/293/57 135/294/57
f 135/294/57 134/295/57 151/289/57
f 151/289/57 134/295/57 168/296/57
f 168/296/57 134/295/57 133/297/57
f 168/296/57 133/297/57 167/298/57
f 167/298/57 133/297/57 132/299/57
f 167/298/57 132/299/57 156/275/57
f 156/275/57 132/299/57 131/300/57
f 156/275/57 131/300/57 130/301/57
f 130/301/57 129/302/57 156/275/57
f 156/275/57 129/302/57 128/273/57
f 156/275/57 165/303/57 167/298/57
f 169/304/46 159/305/46 168/306/46
f 168/306/46 159/305/46 151/307/46
f 169/308/52 168/309/52 174/310/52
f 174/310/52 168/309/52 173/311/52
f 173/311/52 168/309/52 172/312/52
f 172/312/52 168/309/52 167/313/52
f 172/312/52 167/313/52 171/314/52
f 171/314/52 167/313/52 170/315/52
f 170/315/52 167/313/52 166/316/52
f 175/317/46 174/315/46 176/318/46
f 176/318/46 174/315/46 173/314/46
f 177/310/40 178/319/40 180/311/40
f 180/311/40 178/319/40 179/312/40
f 179/312/40 178/319/40 175/315/40
f 179/312/40 175/315/40 176/314/40
f 170/317/34 177/315/34 171/318/34
f 171/318/34 177/315/34 180/314/34
f 173/320/57 172/321/57 176/322/57
f 176/322/57 172/321/57 179/323/57
f 179/323/57 172/321/57 171/324/57
f 179/323/57 171/324/57 180/325/57
f 181/208/34 161/326/34 182/261/34
f 182/261/34 161/326/34 160/327/34
f 183/208/52 184/328/52 186/261/52
f 186/261/52 184/328/52 185/329/52
f 185/329/52 184/328/52 181/266/52
f 185/329/52 181/266/52 182/267/52
f 162/208/46 183/326/46 163/261/46
f 163/261/46 183/326/46 186/327/46
f 169/330/57 174/331/57 159/332/57
f 159/332/57 174/331/57 160/333/57
f 160/333/57 174/331/57 175/334/57
f 160/333/57 175/334/57 182/335/57
f 182/335/57 175/334/57 185/336/57
f 185/336/57 175/334/57 178/337/57
f 185/336/57 178/337/57 177/338/57
f 170/339/57 163/340/57 177/338/57
f 177/338/57 163/340/57 186/341/57
f 177/338/57 186/341/57 185/336/57
f 166/342/57 164/343/57 170/339/57
f 170/339/57 164/343/57 163/340/57
f 162/333/58 155/344/58 183/335/58
f 183/335/58 155/344/58 184/336/58
f 184/336/58 155/344/58 152/345/58
f 184/336/58 152/345/58 181/341/58
f 181/341/58 152/345/58 161/340/58
f 158/346/58 153/347/58 155/344/58
f 155/344/58 153/347/58 152/345/58
