M48
; DRILL file {KiCad 9.0.6} date 2026-08-25T01:39:27+0600
; FORMAT={-:-/ absolute / metric / decimal}
; #@! TF.CreationDate,2026-08-25T01:39:27+06:00
; #@! TF.GenerationSoftware,Kicad,Pcbnew,9.0.6
; #@! TF.FileFunction,Plated,1,2,PTH
FMAT,2
METRIC
; #@! TA.AperFunction,Plated,PTH,ViaDrill
T1C0.300
; #@! TA.AperFunction,Plated,PTH,ComponentDrill
T2C0.800
; #@! TA.AperFunction,Plated,PTH,ComponentDrill
T3C0.900
; #@! TA.AperFunction,Plated,PTH,ComponentDrill
T4C1.000
; #@! TA.AperFunction,Plated,PTH,ComponentDrill
T5C1.020
; #@! TA.AperFunction,Plated,PTH,ComponentDrill
T6C1.100
; #@! TA.AperFunction,Plated,PTH,ComponentDrill
T7C1.540
; #@! TA.AperFunction,Plated,PTH,ComponentDrill
T8C1.570
%
G90
G05
T1
X41.399Y-45.743
X42.0Y-50.243
X42.899Y-51.743
X51.5Y-88.144
X73.4Y-87.743
X74.0Y-71.243
X74.0Y-94.743
X79.5Y-88.243
X85.099Y-80.743
X85.099Y-85.243
X86.3Y-88.243
X90.567Y-85.177
X103.8Y-87.743
T2
X54.5Y-101.243
X59.5Y-101.243
X62.5Y-101.243
X67.5Y-101.243
T3
X100.81Y-103.268
X100.81Y-106.569
X100.81Y-109.268
X100.81Y-112.569
X103.31Y-103.268
X103.31Y-106.569
X103.31Y-109.268
X103.31Y-112.569
X105.81Y-103.268
X105.81Y-106.569
X105.81Y-109.268
X105.81Y-112.569
T4
X54.5Y-86.243
X54.5Y-89.743
X67.454Y-80.323
X67.454Y-82.864
X67.454Y-85.403
X67.454Y-87.944
X67.454Y-90.483
X67.454Y-93.023
X67.454Y-95.563
X79.69Y-104.718
X79.69Y-107.258
X79.69Y-109.798
X87.69Y-104.718
X87.69Y-107.258
X87.69Y-109.798
T5
X44.8Y-29.698
X44.8Y-32.239
X44.8Y-34.779
X44.8Y-37.319
X44.8Y-39.858
X44.8Y-42.398
X44.8Y-44.938
X44.8Y-47.478
X44.8Y-50.018
X44.8Y-52.558
X44.8Y-55.098
X44.8Y-57.639
X44.8Y-60.178
X44.8Y-62.718
X44.8Y-65.258
X70.2Y-29.698
X70.2Y-32.239
X70.2Y-34.779
X70.2Y-37.319
X70.2Y-39.858
X70.2Y-42.398
X70.2Y-44.938
X70.2Y-47.478
X70.2Y-50.018
X70.2Y-52.558
X70.2Y-55.098
X70.2Y-57.639
X70.2Y-60.178
X70.2Y-62.718
X70.2Y-65.258
T6
X100.06Y-95.518
X100.06Y-100.018
X106.56Y-95.518
X106.56Y-100.018
T7
X75.5Y-48.643
X75.8Y-25.743
X78.9Y-48.643
X86.5Y-48.643
X90.0Y-25.743
X90.0Y-48.643
X94.0Y-48.643
X94.3Y-25.743
X97.4Y-48.643
X105.0Y-48.643
X108.5Y-25.743
X108.5Y-48.643
T8
X123.5Y-27.298
X123.5Y-100.198
X146.5Y-27.298
X146.5Y-100.198
M30
