%TF.GenerationSoftware,KiCad,Pcbnew,9.0.6*%
%TF.CreationDate,2026-08-25T01:39:25+06:00*%
%TF.ProjectId,Walkie talkie,57616c6b-6965-4207-9461-6c6b69652e6b,3*%
%TF.SameCoordinates,Original*%
%TF.FileFunction,Legend,Top*%
%TF.FilePolarity,Positive*%
%FSLAX46Y46*%
G04 Gerber Fmt 4.6, Leading zero omitted, Abs format (unit mm)*
G04 Created by KiCad (PCBNEW 9.0.6) date 2026-08-25 01:39:25*
%MOMM*%
%LPD*%
G01*
G04 APERTURE LIST*
%ADD10C,0.200000*%
%ADD11C,0.150000*%
%ADD12C,0.100000*%
%ADD13C,0.152400*%
%ADD14C,0.120000*%
%ADD15C,0.127000*%
%ADD16C,0.203200*%
%ADD17C,0.050000*%
G04 APERTURE END LIST*
D10*
X68869673Y-113757275D02*
X68869673Y-112757275D01*
X68869673Y-112757275D02*
X69107768Y-112757275D01*
X69107768Y-112757275D02*
X69250625Y-112804894D01*
X69250625Y-112804894D02*
X69345863Y-112900132D01*
X69345863Y-112900132D02*
X69393482Y-112995370D01*
X69393482Y-112995370D02*
X69441101Y-113185846D01*
X69441101Y-113185846D02*
X69441101Y-113328703D01*
X69441101Y-113328703D02*
X69393482Y-113519179D01*
X69393482Y-113519179D02*
X69345863Y-113614417D01*
X69345863Y-113614417D02*
X69250625Y-113709656D01*
X69250625Y-113709656D02*
X69107768Y-113757275D01*
X69107768Y-113757275D02*
X68869673Y-113757275D01*
X70060149Y-112757275D02*
X70250625Y-112757275D01*
X70250625Y-112757275D02*
X70345863Y-112804894D01*
X70345863Y-112804894D02*
X70441101Y-112900132D01*
X70441101Y-112900132D02*
X70488720Y-113090608D01*
X70488720Y-113090608D02*
X70488720Y-113423941D01*
X70488720Y-113423941D02*
X70441101Y-113614417D01*
X70441101Y-113614417D02*
X70345863Y-113709656D01*
X70345863Y-113709656D02*
X70250625Y-113757275D01*
X70250625Y-113757275D02*
X70060149Y-113757275D01*
X70060149Y-113757275D02*
X69964911Y-113709656D01*
X69964911Y-113709656D02*
X69869673Y-113614417D01*
X69869673Y-113614417D02*
X69822054Y-113423941D01*
X69822054Y-113423941D02*
X69822054Y-113090608D01*
X69822054Y-113090608D02*
X69869673Y-112900132D01*
X69869673Y-112900132D02*
X69964911Y-112804894D01*
X69964911Y-112804894D02*
X70060149Y-112757275D01*
X70917292Y-112757275D02*
X70917292Y-113566798D01*
X70917292Y-113566798D02*
X70964911Y-113662036D01*
X70964911Y-113662036D02*
X71012530Y-113709656D01*
X71012530Y-113709656D02*
X71107768Y-113757275D01*
X71107768Y-113757275D02*
X71298244Y-113757275D01*
X71298244Y-113757275D02*
X71393482Y-113709656D01*
X71393482Y-113709656D02*
X71441101Y-113662036D01*
X71441101Y-113662036D02*
X71488720Y-113566798D01*
X71488720Y-113566798D02*
X71488720Y-112757275D01*
X72298244Y-113233465D02*
X72441101Y-113281084D01*
X72441101Y-113281084D02*
X72488720Y-113328703D01*
X72488720Y-113328703D02*
X72536339Y-113423941D01*
X72536339Y-113423941D02*
X72536339Y-113566798D01*
X72536339Y-113566798D02*
X72488720Y-113662036D01*
X72488720Y-113662036D02*
X72441101Y-113709656D01*
X72441101Y-113709656D02*
X72345863Y-113757275D01*
X72345863Y-113757275D02*
X71964911Y-113757275D01*
X71964911Y-113757275D02*
X71964911Y-112757275D01*
X71964911Y-112757275D02*
X72298244Y-112757275D01*
X72298244Y-112757275D02*
X72393482Y-112804894D01*
X72393482Y-112804894D02*
X72441101Y-112852513D01*
X72441101Y-112852513D02*
X72488720Y-112947751D01*
X72488720Y-112947751D02*
X72488720Y-113042989D01*
X72488720Y-113042989D02*
X72441101Y-113138227D01*
X72441101Y-113138227D02*
X72393482Y-113185846D01*
X72393482Y-113185846D02*
X72298244Y-113233465D01*
X72298244Y-113233465D02*
X71964911Y-113233465D01*
X73441101Y-113757275D02*
X72964911Y-113757275D01*
X72964911Y-113757275D02*
X72964911Y-112757275D01*
X73774435Y-113233465D02*
X74107768Y-113233465D01*
X74250625Y-113757275D02*
X73774435Y-113757275D01*
X73774435Y-113757275D02*
X73774435Y-112757275D01*
X73774435Y-112757275D02*
X74250625Y-112757275D01*
X76012530Y-113662036D02*
X75964911Y-113709656D01*
X75964911Y-113709656D02*
X75822054Y-113757275D01*
X75822054Y-113757275D02*
X75726816Y-113757275D01*
X75726816Y-113757275D02*
X75583959Y-113709656D01*
X75583959Y-113709656D02*
X75488721Y-113614417D01*
X75488721Y-113614417D02*
X75441102Y-113519179D01*
X75441102Y-113519179D02*
X75393483Y-113328703D01*
X75393483Y-113328703D02*
X75393483Y-113185846D01*
X75393483Y-113185846D02*
X75441102Y-112995370D01*
X75441102Y-112995370D02*
X75488721Y-112900132D01*
X75488721Y-112900132D02*
X75583959Y-112804894D01*
X75583959Y-112804894D02*
X75726816Y-112757275D01*
X75726816Y-112757275D02*
X75822054Y-112757275D01*
X75822054Y-112757275D02*
X75964911Y-112804894D01*
X75964911Y-112804894D02*
X76012530Y-112852513D01*
X76441102Y-113757275D02*
X76441102Y-112757275D01*
X76441102Y-113233465D02*
X77012530Y-113233465D01*
X77012530Y-113757275D02*
X77012530Y-112757275D01*
X77488721Y-113233465D02*
X77822054Y-113233465D01*
X77964911Y-113757275D02*
X77488721Y-113757275D01*
X77488721Y-113757275D02*
X77488721Y-112757275D01*
X77488721Y-112757275D02*
X77964911Y-112757275D01*
X78964911Y-113662036D02*
X78917292Y-113709656D01*
X78917292Y-113709656D02*
X78774435Y-113757275D01*
X78774435Y-113757275D02*
X78679197Y-113757275D01*
X78679197Y-113757275D02*
X78536340Y-113709656D01*
X78536340Y-113709656D02*
X78441102Y-113614417D01*
X78441102Y-113614417D02*
X78393483Y-113519179D01*
X78393483Y-113519179D02*
X78345864Y-113328703D01*
X78345864Y-113328703D02*
X78345864Y-113185846D01*
X78345864Y-113185846D02*
X78393483Y-112995370D01*
X78393483Y-112995370D02*
X78441102Y-112900132D01*
X78441102Y-112900132D02*
X78536340Y-112804894D01*
X78536340Y-112804894D02*
X78679197Y-112757275D01*
X78679197Y-112757275D02*
X78774435Y-112757275D01*
X78774435Y-112757275D02*
X78917292Y-112804894D01*
X78917292Y-112804894D02*
X78964911Y-112852513D01*
X79393483Y-113757275D02*
X79393483Y-112757275D01*
X79964911Y-113757275D02*
X79536340Y-113185846D01*
X79964911Y-112757275D02*
X79393483Y-113328703D01*
X81012531Y-112757275D02*
X81583959Y-112757275D01*
X81298245Y-113757275D02*
X81298245Y-112757275D01*
X81917293Y-113757275D02*
X81917293Y-112757275D01*
X81917293Y-113233465D02*
X82488721Y-113233465D01*
X82488721Y-113757275D02*
X82488721Y-112757275D01*
X82964912Y-113233465D02*
X83298245Y-113233465D01*
X83441102Y-113757275D02*
X82964912Y-113757275D01*
X82964912Y-113757275D02*
X82964912Y-112757275D01*
X82964912Y-112757275D02*
X83441102Y-112757275D01*
X84631579Y-113757275D02*
X84631579Y-112757275D01*
X84631579Y-112757275D02*
X84964912Y-113471560D01*
X84964912Y-113471560D02*
X85298245Y-112757275D01*
X85298245Y-112757275D02*
X85298245Y-113757275D01*
X85774436Y-113757275D02*
X85774436Y-112757275D01*
X86822054Y-113662036D02*
X86774435Y-113709656D01*
X86774435Y-113709656D02*
X86631578Y-113757275D01*
X86631578Y-113757275D02*
X86536340Y-113757275D01*
X86536340Y-113757275D02*
X86393483Y-113709656D01*
X86393483Y-113709656D02*
X86298245Y-113614417D01*
X86298245Y-113614417D02*
X86250626Y-113519179D01*
X86250626Y-113519179D02*
X86203007Y-113328703D01*
X86203007Y-113328703D02*
X86203007Y-113185846D01*
X86203007Y-113185846D02*
X86250626Y-112995370D01*
X86250626Y-112995370D02*
X86298245Y-112900132D01*
X86298245Y-112900132D02*
X86393483Y-112804894D01*
X86393483Y-112804894D02*
X86536340Y-112757275D01*
X86536340Y-112757275D02*
X86631578Y-112757275D01*
X86631578Y-112757275D02*
X86774435Y-112804894D01*
X86774435Y-112804894D02*
X86822054Y-112852513D01*
X88203007Y-112757275D02*
X88393483Y-112757275D01*
X88393483Y-112757275D02*
X88488721Y-112804894D01*
X88488721Y-112804894D02*
X88583959Y-112900132D01*
X88583959Y-112900132D02*
X88631578Y-113090608D01*
X88631578Y-113090608D02*
X88631578Y-113423941D01*
X88631578Y-113423941D02*
X88583959Y-113614417D01*
X88583959Y-113614417D02*
X88488721Y-113709656D01*
X88488721Y-113709656D02*
X88393483Y-113757275D01*
X88393483Y-113757275D02*
X88203007Y-113757275D01*
X88203007Y-113757275D02*
X88107769Y-113709656D01*
X88107769Y-113709656D02*
X88012531Y-113614417D01*
X88012531Y-113614417D02*
X87964912Y-113423941D01*
X87964912Y-113423941D02*
X87964912Y-113090608D01*
X87964912Y-113090608D02*
X88012531Y-112900132D01*
X88012531Y-112900132D02*
X88107769Y-112804894D01*
X88107769Y-112804894D02*
X88203007Y-112757275D01*
X89631578Y-113757275D02*
X89298245Y-113281084D01*
X89060150Y-113757275D02*
X89060150Y-112757275D01*
X89060150Y-112757275D02*
X89441102Y-112757275D01*
X89441102Y-112757275D02*
X89536340Y-112804894D01*
X89536340Y-112804894D02*
X89583959Y-112852513D01*
X89583959Y-112852513D02*
X89631578Y-112947751D01*
X89631578Y-112947751D02*
X89631578Y-113090608D01*
X89631578Y-113090608D02*
X89583959Y-113185846D01*
X89583959Y-113185846D02*
X89536340Y-113233465D01*
X89536340Y-113233465D02*
X89441102Y-113281084D01*
X89441102Y-113281084D02*
X89060150Y-113281084D01*
X90060150Y-113757275D02*
X90060150Y-112757275D01*
X90536340Y-113233465D02*
X90869673Y-113233465D01*
X91012530Y-113757275D02*
X90536340Y-113757275D01*
X90536340Y-113757275D02*
X90536340Y-112757275D01*
X90536340Y-112757275D02*
X91012530Y-112757275D01*
X91441102Y-113757275D02*
X91441102Y-112757275D01*
X91441102Y-112757275D02*
X92012530Y-113757275D01*
X92012530Y-113757275D02*
X92012530Y-112757275D01*
X92345864Y-112757275D02*
X92917292Y-112757275D01*
X92631578Y-113757275D02*
X92631578Y-112757275D01*
X93203007Y-113471560D02*
X93679197Y-113471560D01*
X93107769Y-113757275D02*
X93441102Y-112757275D01*
X93441102Y-112757275D02*
X93774435Y-113757275D01*
X93964912Y-112757275D02*
X94536340Y-112757275D01*
X94250626Y-113757275D02*
X94250626Y-112757275D01*
X94869674Y-113757275D02*
X94869674Y-112757275D01*
X95536340Y-112757275D02*
X95726816Y-112757275D01*
X95726816Y-112757275D02*
X95822054Y-112804894D01*
X95822054Y-112804894D02*
X95917292Y-112900132D01*
X95917292Y-112900132D02*
X95964911Y-113090608D01*
X95964911Y-113090608D02*
X95964911Y-113423941D01*
X95964911Y-113423941D02*
X95917292Y-113614417D01*
X95917292Y-113614417D02*
X95822054Y-113709656D01*
X95822054Y-113709656D02*
X95726816Y-113757275D01*
X95726816Y-113757275D02*
X95536340Y-113757275D01*
X95536340Y-113757275D02*
X95441102Y-113709656D01*
X95441102Y-113709656D02*
X95345864Y-113614417D01*
X95345864Y-113614417D02*
X95298245Y-113423941D01*
X95298245Y-113423941D02*
X95298245Y-113090608D01*
X95298245Y-113090608D02*
X95345864Y-112900132D01*
X95345864Y-112900132D02*
X95441102Y-112804894D01*
X95441102Y-112804894D02*
X95536340Y-112757275D01*
X96393483Y-113757275D02*
X96393483Y-112757275D01*
X96393483Y-112757275D02*
X96964911Y-113757275D01*
X96964911Y-113757275D02*
X96964911Y-112757275D01*
X97441102Y-113662036D02*
X97488721Y-113709656D01*
X97488721Y-113709656D02*
X97441102Y-113757275D01*
X97441102Y-113757275D02*
X97393483Y-113709656D01*
X97393483Y-113709656D02*
X97441102Y-113662036D01*
X97441102Y-113662036D02*
X97441102Y-113757275D01*
X68726816Y-114367219D02*
X69298244Y-114367219D01*
X69012530Y-115367219D02*
X69012530Y-114367219D01*
X69631578Y-115367219D02*
X69631578Y-114367219D01*
X69631578Y-114843409D02*
X70203006Y-114843409D01*
X70203006Y-115367219D02*
X70203006Y-114367219D01*
X70679197Y-114843409D02*
X71012530Y-114843409D01*
X71155387Y-115367219D02*
X70679197Y-115367219D01*
X70679197Y-115367219D02*
X70679197Y-114367219D01*
X70679197Y-114367219D02*
X71155387Y-114367219D01*
X72345864Y-115367219D02*
X72345864Y-114367219D01*
X72345864Y-114367219D02*
X72679197Y-115081504D01*
X72679197Y-115081504D02*
X73012530Y-114367219D01*
X73012530Y-114367219D02*
X73012530Y-115367219D01*
X73488721Y-115367219D02*
X73488721Y-114367219D01*
X74536339Y-115271980D02*
X74488720Y-115319600D01*
X74488720Y-115319600D02*
X74345863Y-115367219D01*
X74345863Y-115367219D02*
X74250625Y-115367219D01*
X74250625Y-115367219D02*
X74107768Y-115319600D01*
X74107768Y-115319600D02*
X74012530Y-115224361D01*
X74012530Y-115224361D02*
X73964911Y-115129123D01*
X73964911Y-115129123D02*
X73917292Y-114938647D01*
X73917292Y-114938647D02*
X73917292Y-114795790D01*
X73917292Y-114795790D02*
X73964911Y-114605314D01*
X73964911Y-114605314D02*
X74012530Y-114510076D01*
X74012530Y-114510076D02*
X74107768Y-114414838D01*
X74107768Y-114414838D02*
X74250625Y-114367219D01*
X74250625Y-114367219D02*
X74345863Y-114367219D01*
X74345863Y-114367219D02*
X74488720Y-114414838D01*
X74488720Y-114414838D02*
X74536339Y-114462457D01*
X75726816Y-115367219D02*
X75726816Y-114367219D01*
X76155387Y-115319600D02*
X76298244Y-115367219D01*
X76298244Y-115367219D02*
X76536339Y-115367219D01*
X76536339Y-115367219D02*
X76631577Y-115319600D01*
X76631577Y-115319600D02*
X76679196Y-115271980D01*
X76679196Y-115271980D02*
X76726815Y-115176742D01*
X76726815Y-115176742D02*
X76726815Y-115081504D01*
X76726815Y-115081504D02*
X76679196Y-114986266D01*
X76679196Y-114986266D02*
X76631577Y-114938647D01*
X76631577Y-114938647D02*
X76536339Y-114891028D01*
X76536339Y-114891028D02*
X76345863Y-114843409D01*
X76345863Y-114843409D02*
X76250625Y-114795790D01*
X76250625Y-114795790D02*
X76203006Y-114748171D01*
X76203006Y-114748171D02*
X76155387Y-114652933D01*
X76155387Y-114652933D02*
X76155387Y-114557695D01*
X76155387Y-114557695D02*
X76203006Y-114462457D01*
X76203006Y-114462457D02*
X76250625Y-114414838D01*
X76250625Y-114414838D02*
X76345863Y-114367219D01*
X76345863Y-114367219D02*
X76583958Y-114367219D01*
X76583958Y-114367219D02*
X76726815Y-114414838D01*
X77917292Y-114367219D02*
X77917292Y-115176742D01*
X77917292Y-115176742D02*
X77964911Y-115271980D01*
X77964911Y-115271980D02*
X78012530Y-115319600D01*
X78012530Y-115319600D02*
X78107768Y-115367219D01*
X78107768Y-115367219D02*
X78298244Y-115367219D01*
X78298244Y-115367219D02*
X78393482Y-115319600D01*
X78393482Y-115319600D02*
X78441101Y-115271980D01*
X78441101Y-115271980D02*
X78488720Y-115176742D01*
X78488720Y-115176742D02*
X78488720Y-114367219D01*
X78964911Y-115367219D02*
X78964911Y-114367219D01*
X78964911Y-114367219D02*
X79345863Y-114367219D01*
X79345863Y-114367219D02*
X79441101Y-114414838D01*
X79441101Y-114414838D02*
X79488720Y-114462457D01*
X79488720Y-114462457D02*
X79536339Y-114557695D01*
X79536339Y-114557695D02*
X79536339Y-114700552D01*
X79536339Y-114700552D02*
X79488720Y-114795790D01*
X79488720Y-114795790D02*
X79441101Y-114843409D01*
X79441101Y-114843409D02*
X79345863Y-114891028D01*
X79345863Y-114891028D02*
X78964911Y-114891028D01*
X79917292Y-115319600D02*
X80060149Y-115367219D01*
X80060149Y-115367219D02*
X80298244Y-115367219D01*
X80298244Y-115367219D02*
X80393482Y-115319600D01*
X80393482Y-115319600D02*
X80441101Y-115271980D01*
X80441101Y-115271980D02*
X80488720Y-115176742D01*
X80488720Y-115176742D02*
X80488720Y-115081504D01*
X80488720Y-115081504D02*
X80441101Y-114986266D01*
X80441101Y-114986266D02*
X80393482Y-114938647D01*
X80393482Y-114938647D02*
X80298244Y-114891028D01*
X80298244Y-114891028D02*
X80107768Y-114843409D01*
X80107768Y-114843409D02*
X80012530Y-114795790D01*
X80012530Y-114795790D02*
X79964911Y-114748171D01*
X79964911Y-114748171D02*
X79917292Y-114652933D01*
X79917292Y-114652933D02*
X79917292Y-114557695D01*
X79917292Y-114557695D02*
X79964911Y-114462457D01*
X79964911Y-114462457D02*
X80012530Y-114414838D01*
X80012530Y-114414838D02*
X80107768Y-114367219D01*
X80107768Y-114367219D02*
X80345863Y-114367219D01*
X80345863Y-114367219D02*
X80488720Y-114414838D01*
X80917292Y-115367219D02*
X80917292Y-114367219D01*
X81393482Y-115367219D02*
X81393482Y-114367219D01*
X81393482Y-114367219D02*
X81631577Y-114367219D01*
X81631577Y-114367219D02*
X81774434Y-114414838D01*
X81774434Y-114414838D02*
X81869672Y-114510076D01*
X81869672Y-114510076D02*
X81917291Y-114605314D01*
X81917291Y-114605314D02*
X81964910Y-114795790D01*
X81964910Y-114795790D02*
X81964910Y-114938647D01*
X81964910Y-114938647D02*
X81917291Y-115129123D01*
X81917291Y-115129123D02*
X81869672Y-115224361D01*
X81869672Y-115224361D02*
X81774434Y-115319600D01*
X81774434Y-115319600D02*
X81631577Y-115367219D01*
X81631577Y-115367219D02*
X81393482Y-115367219D01*
X82393482Y-114843409D02*
X82726815Y-114843409D01*
X82869672Y-115367219D02*
X82393482Y-115367219D01*
X82393482Y-115367219D02*
X82393482Y-114367219D01*
X82393482Y-114367219D02*
X82869672Y-114367219D01*
X84060149Y-115367219D02*
X84060149Y-114367219D01*
X84060149Y-114367219D02*
X84298244Y-114367219D01*
X84298244Y-114367219D02*
X84441101Y-114414838D01*
X84441101Y-114414838D02*
X84536339Y-114510076D01*
X84536339Y-114510076D02*
X84583958Y-114605314D01*
X84583958Y-114605314D02*
X84631577Y-114795790D01*
X84631577Y-114795790D02*
X84631577Y-114938647D01*
X84631577Y-114938647D02*
X84583958Y-115129123D01*
X84583958Y-115129123D02*
X84536339Y-115224361D01*
X84536339Y-115224361D02*
X84441101Y-115319600D01*
X84441101Y-115319600D02*
X84298244Y-115367219D01*
X84298244Y-115367219D02*
X84060149Y-115367219D01*
X85250625Y-114367219D02*
X85441101Y-114367219D01*
X85441101Y-114367219D02*
X85536339Y-114414838D01*
X85536339Y-114414838D02*
X85631577Y-114510076D01*
X85631577Y-114510076D02*
X85679196Y-114700552D01*
X85679196Y-114700552D02*
X85679196Y-115033885D01*
X85679196Y-115033885D02*
X85631577Y-115224361D01*
X85631577Y-115224361D02*
X85536339Y-115319600D01*
X85536339Y-115319600D02*
X85441101Y-115367219D01*
X85441101Y-115367219D02*
X85250625Y-115367219D01*
X85250625Y-115367219D02*
X85155387Y-115319600D01*
X85155387Y-115319600D02*
X85060149Y-115224361D01*
X85060149Y-115224361D02*
X85012530Y-115033885D01*
X85012530Y-115033885D02*
X85012530Y-114700552D01*
X85012530Y-114700552D02*
X85060149Y-114510076D01*
X85060149Y-114510076D02*
X85155387Y-114414838D01*
X85155387Y-114414838D02*
X85250625Y-114367219D01*
X86012530Y-114367219D02*
X86250625Y-115367219D01*
X86250625Y-115367219D02*
X86441101Y-114652933D01*
X86441101Y-114652933D02*
X86631577Y-115367219D01*
X86631577Y-115367219D02*
X86869673Y-114367219D01*
X87250625Y-115367219D02*
X87250625Y-114367219D01*
X87250625Y-114367219D02*
X87822053Y-115367219D01*
X87822053Y-115367219D02*
X87822053Y-114367219D01*
X89250625Y-114367219D02*
X89441101Y-114367219D01*
X89441101Y-114367219D02*
X89536339Y-114414838D01*
X89536339Y-114414838D02*
X89631577Y-114510076D01*
X89631577Y-114510076D02*
X89679196Y-114700552D01*
X89679196Y-114700552D02*
X89679196Y-115033885D01*
X89679196Y-115033885D02*
X89631577Y-115224361D01*
X89631577Y-115224361D02*
X89536339Y-115319600D01*
X89536339Y-115319600D02*
X89441101Y-115367219D01*
X89441101Y-115367219D02*
X89250625Y-115367219D01*
X89250625Y-115367219D02*
X89155387Y-115319600D01*
X89155387Y-115319600D02*
X89060149Y-115224361D01*
X89060149Y-115224361D02*
X89012530Y-115033885D01*
X89012530Y-115033885D02*
X89012530Y-114700552D01*
X89012530Y-114700552D02*
X89060149Y-114510076D01*
X89060149Y-114510076D02*
X89155387Y-114414838D01*
X89155387Y-114414838D02*
X89250625Y-114367219D01*
X90107768Y-115367219D02*
X90107768Y-114367219D01*
X90107768Y-114367219D02*
X90679196Y-115367219D01*
X90679196Y-115367219D02*
X90679196Y-114367219D01*
X91774435Y-114367219D02*
X92345863Y-114367219D01*
X92060149Y-115367219D02*
X92060149Y-114367219D01*
X92679197Y-115367219D02*
X92679197Y-114367219D01*
X92679197Y-114843409D02*
X93250625Y-114843409D01*
X93250625Y-115367219D02*
X93250625Y-114367219D01*
X93726816Y-114843409D02*
X94060149Y-114843409D01*
X94203006Y-115367219D02*
X93726816Y-115367219D01*
X93726816Y-115367219D02*
X93726816Y-114367219D01*
X93726816Y-114367219D02*
X94203006Y-114367219D01*
X95393483Y-115367219D02*
X95393483Y-114367219D01*
X95393483Y-114367219D02*
X95774435Y-114367219D01*
X95774435Y-114367219D02*
X95869673Y-114414838D01*
X95869673Y-114414838D02*
X95917292Y-114462457D01*
X95917292Y-114462457D02*
X95964911Y-114557695D01*
X95964911Y-114557695D02*
X95964911Y-114700552D01*
X95964911Y-114700552D02*
X95917292Y-114795790D01*
X95917292Y-114795790D02*
X95869673Y-114843409D01*
X95869673Y-114843409D02*
X95774435Y-114891028D01*
X95774435Y-114891028D02*
X95393483Y-114891028D01*
X96964911Y-115271980D02*
X96917292Y-115319600D01*
X96917292Y-115319600D02*
X96774435Y-115367219D01*
X96774435Y-115367219D02*
X96679197Y-115367219D01*
X96679197Y-115367219D02*
X96536340Y-115319600D01*
X96536340Y-115319600D02*
X96441102Y-115224361D01*
X96441102Y-115224361D02*
X96393483Y-115129123D01*
X96393483Y-115129123D02*
X96345864Y-114938647D01*
X96345864Y-114938647D02*
X96345864Y-114795790D01*
X96345864Y-114795790D02*
X96393483Y-114605314D01*
X96393483Y-114605314D02*
X96441102Y-114510076D01*
X96441102Y-114510076D02*
X96536340Y-114414838D01*
X96536340Y-114414838D02*
X96679197Y-114367219D01*
X96679197Y-114367219D02*
X96774435Y-114367219D01*
X96774435Y-114367219D02*
X96917292Y-114414838D01*
X96917292Y-114414838D02*
X96964911Y-114462457D01*
X97726816Y-114843409D02*
X97869673Y-114891028D01*
X97869673Y-114891028D02*
X97917292Y-114938647D01*
X97917292Y-114938647D02*
X97964911Y-115033885D01*
X97964911Y-115033885D02*
X97964911Y-115176742D01*
X97964911Y-115176742D02*
X97917292Y-115271980D01*
X97917292Y-115271980D02*
X97869673Y-115319600D01*
X97869673Y-115319600D02*
X97774435Y-115367219D01*
X97774435Y-115367219D02*
X97393483Y-115367219D01*
X97393483Y-115367219D02*
X97393483Y-114367219D01*
X97393483Y-114367219D02*
X97726816Y-114367219D01*
X97726816Y-114367219D02*
X97822054Y-114414838D01*
X97822054Y-114414838D02*
X97869673Y-114462457D01*
X97869673Y-114462457D02*
X97917292Y-114557695D01*
X97917292Y-114557695D02*
X97917292Y-114652933D01*
X97917292Y-114652933D02*
X97869673Y-114748171D01*
X97869673Y-114748171D02*
X97822054Y-114795790D01*
X97822054Y-114795790D02*
X97726816Y-114843409D01*
X97726816Y-114843409D02*
X97393483Y-114843409D01*
D11*
X71554819Y-38905404D02*
X71554819Y-38333976D01*
X72554819Y-38619690D02*
X71554819Y-38619690D01*
X72554819Y-38000642D02*
X71554819Y-38000642D01*
X71554819Y-38000642D02*
X71554819Y-37619690D01*
X71554819Y-37619690D02*
X71602438Y-37524452D01*
X71602438Y-37524452D02*
X71650057Y-37476833D01*
X71650057Y-37476833D02*
X71745295Y-37429214D01*
X71745295Y-37429214D02*
X71888152Y-37429214D01*
X71888152Y-37429214D02*
X71983390Y-37476833D01*
X71983390Y-37476833D02*
X72031009Y-37524452D01*
X72031009Y-37524452D02*
X72078628Y-37619690D01*
X72078628Y-37619690D02*
X72078628Y-38000642D01*
X72554819Y-36476833D02*
X72554819Y-37048261D01*
X72554819Y-36762547D02*
X71554819Y-36762547D01*
X71554819Y-36762547D02*
X71697676Y-36857785D01*
X71697676Y-36857785D02*
X71792914Y-36953023D01*
X71792914Y-36953023D02*
X71840533Y-37048261D01*
X86531009Y-46291118D02*
X86578628Y-46148261D01*
X86578628Y-46148261D02*
X86626247Y-46100642D01*
X86626247Y-46100642D02*
X86721485Y-46053023D01*
X86721485Y-46053023D02*
X86864342Y-46053023D01*
X86864342Y-46053023D02*
X86959580Y-46100642D01*
X86959580Y-46100642D02*
X87007200Y-46148261D01*
X87007200Y-46148261D02*
X87054819Y-46243499D01*
X87054819Y-46243499D02*
X87054819Y-46624451D01*
X87054819Y-46624451D02*
X86054819Y-46624451D01*
X86054819Y-46624451D02*
X86054819Y-46291118D01*
X86054819Y-46291118D02*
X86102438Y-46195880D01*
X86102438Y-46195880D02*
X86150057Y-46148261D01*
X86150057Y-46148261D02*
X86245295Y-46100642D01*
X86245295Y-46100642D02*
X86340533Y-46100642D01*
X86340533Y-46100642D02*
X86435771Y-46148261D01*
X86435771Y-46148261D02*
X86483390Y-46195880D01*
X86483390Y-46195880D02*
X86531009Y-46291118D01*
X86531009Y-46291118D02*
X86531009Y-46624451D01*
X86673866Y-45624451D02*
X86673866Y-44862547D01*
X87054819Y-45243499D02*
X86292914Y-45243499D01*
X77502438Y-26605404D02*
X77454819Y-26700642D01*
X77454819Y-26700642D02*
X77454819Y-26843499D01*
X77454819Y-26843499D02*
X77502438Y-26986356D01*
X77502438Y-26986356D02*
X77597676Y-27081594D01*
X77597676Y-27081594D02*
X77692914Y-27129213D01*
X77692914Y-27129213D02*
X77883390Y-27176832D01*
X77883390Y-27176832D02*
X78026247Y-27176832D01*
X78026247Y-27176832D02*
X78216723Y-27129213D01*
X78216723Y-27129213D02*
X78311961Y-27081594D01*
X78311961Y-27081594D02*
X78407200Y-26986356D01*
X78407200Y-26986356D02*
X78454819Y-26843499D01*
X78454819Y-26843499D02*
X78454819Y-26748261D01*
X78454819Y-26748261D02*
X78407200Y-26605404D01*
X78407200Y-26605404D02*
X78359580Y-26557785D01*
X78359580Y-26557785D02*
X78026247Y-26557785D01*
X78026247Y-26557785D02*
X78026247Y-26748261D01*
X78454819Y-26129213D02*
X77454819Y-26129213D01*
X77454819Y-26129213D02*
X78454819Y-25557785D01*
X78454819Y-25557785D02*
X77454819Y-25557785D01*
X78454819Y-25081594D02*
X77454819Y-25081594D01*
X77454819Y-25081594D02*
X77454819Y-24843499D01*
X77454819Y-24843499D02*
X77502438Y-24700642D01*
X77502438Y-24700642D02*
X77597676Y-24605404D01*
X77597676Y-24605404D02*
X77692914Y-24557785D01*
X77692914Y-24557785D02*
X77883390Y-24510166D01*
X77883390Y-24510166D02*
X78026247Y-24510166D01*
X78026247Y-24510166D02*
X78216723Y-24557785D01*
X78216723Y-24557785D02*
X78311961Y-24605404D01*
X78311961Y-24605404D02*
X78407200Y-24700642D01*
X78407200Y-24700642D02*
X78454819Y-24843499D01*
X78454819Y-24843499D02*
X78454819Y-25081594D01*
X74973866Y-28424451D02*
X74973866Y-27662547D01*
X87054819Y-25886357D02*
X87054819Y-26362547D01*
X87054819Y-26362547D02*
X87531009Y-26410166D01*
X87531009Y-26410166D02*
X87483390Y-26362547D01*
X87483390Y-26362547D02*
X87435771Y-26267309D01*
X87435771Y-26267309D02*
X87435771Y-26029214D01*
X87435771Y-26029214D02*
X87483390Y-25933976D01*
X87483390Y-25933976D02*
X87531009Y-25886357D01*
X87531009Y-25886357D02*
X87626247Y-25838738D01*
X87626247Y-25838738D02*
X87864342Y-25838738D01*
X87864342Y-25838738D02*
X87959580Y-25886357D01*
X87959580Y-25886357D02*
X88007200Y-25933976D01*
X88007200Y-25933976D02*
X88054819Y-26029214D01*
X88054819Y-26029214D02*
X88054819Y-26267309D01*
X88054819Y-26267309D02*
X88007200Y-26362547D01*
X88007200Y-26362547D02*
X87959580Y-26410166D01*
X87388152Y-25505404D02*
X88054819Y-25267309D01*
X88054819Y-25267309D02*
X87388152Y-25029214D01*
X74954819Y-46395880D02*
X74954819Y-46205404D01*
X74954819Y-46205404D02*
X75002438Y-46110166D01*
X75002438Y-46110166D02*
X75097676Y-46014928D01*
X75097676Y-46014928D02*
X75288152Y-45967309D01*
X75288152Y-45967309D02*
X75621485Y-45967309D01*
X75621485Y-45967309D02*
X75811961Y-46014928D01*
X75811961Y-46014928D02*
X75907200Y-46110166D01*
X75907200Y-46110166D02*
X75954819Y-46205404D01*
X75954819Y-46205404D02*
X75954819Y-46395880D01*
X75954819Y-46395880D02*
X75907200Y-46491118D01*
X75907200Y-46491118D02*
X75811961Y-46586356D01*
X75811961Y-46586356D02*
X75621485Y-46633975D01*
X75621485Y-46633975D02*
X75288152Y-46633975D01*
X75288152Y-46633975D02*
X75097676Y-46586356D01*
X75097676Y-46586356D02*
X75002438Y-46491118D01*
X75002438Y-46491118D02*
X74954819Y-46395880D01*
X75288152Y-45110166D02*
X75954819Y-45110166D01*
X75288152Y-45538737D02*
X75811961Y-45538737D01*
X75811961Y-45538737D02*
X75907200Y-45491118D01*
X75907200Y-45491118D02*
X75954819Y-45395880D01*
X75954819Y-45395880D02*
X75954819Y-45253023D01*
X75954819Y-45253023D02*
X75907200Y-45157785D01*
X75907200Y-45157785D02*
X75859580Y-45110166D01*
X75288152Y-44776832D02*
X75288152Y-44395880D01*
X74954819Y-44633975D02*
X75811961Y-44633975D01*
X75811961Y-44633975D02*
X75907200Y-44586356D01*
X75907200Y-44586356D02*
X75954819Y-44491118D01*
X75954819Y-44491118D02*
X75954819Y-44395880D01*
X75573866Y-44062546D02*
X75573866Y-43300642D01*
X90173866Y-28324451D02*
X90173866Y-27562547D01*
X90554819Y-27943499D02*
X89792914Y-27943499D01*
X89554819Y-46395880D02*
X89554819Y-46205404D01*
X89554819Y-46205404D02*
X89602438Y-46110166D01*
X89602438Y-46110166D02*
X89697676Y-46014928D01*
X89697676Y-46014928D02*
X89888152Y-45967309D01*
X89888152Y-45967309D02*
X90221485Y-45967309D01*
X90221485Y-45967309D02*
X90411961Y-46014928D01*
X90411961Y-46014928D02*
X90507200Y-46110166D01*
X90507200Y-46110166D02*
X90554819Y-46205404D01*
X90554819Y-46205404D02*
X90554819Y-46395880D01*
X90554819Y-46395880D02*
X90507200Y-46491118D01*
X90507200Y-46491118D02*
X90411961Y-46586356D01*
X90411961Y-46586356D02*
X90221485Y-46633975D01*
X90221485Y-46633975D02*
X89888152Y-46633975D01*
X89888152Y-46633975D02*
X89697676Y-46586356D01*
X89697676Y-46586356D02*
X89602438Y-46491118D01*
X89602438Y-46491118D02*
X89554819Y-46395880D01*
X89888152Y-45110166D02*
X90554819Y-45110166D01*
X89888152Y-45538737D02*
X90411961Y-45538737D01*
X90411961Y-45538737D02*
X90507200Y-45491118D01*
X90507200Y-45491118D02*
X90554819Y-45395880D01*
X90554819Y-45395880D02*
X90554819Y-45253023D01*
X90554819Y-45253023D02*
X90507200Y-45157785D01*
X90507200Y-45157785D02*
X90459580Y-45110166D01*
X89888152Y-44776832D02*
X89888152Y-44395880D01*
X89554819Y-44633975D02*
X90411961Y-44633975D01*
X90411961Y-44633975D02*
X90507200Y-44586356D01*
X90507200Y-44586356D02*
X90554819Y-44491118D01*
X90554819Y-44491118D02*
X90554819Y-44395880D01*
X90173866Y-44062546D02*
X90173866Y-43300642D01*
X90554819Y-43681594D02*
X89792914Y-43681594D01*
X82731009Y-43386358D02*
X82778628Y-43243501D01*
X82778628Y-43243501D02*
X82826247Y-43195882D01*
X82826247Y-43195882D02*
X82921485Y-43148263D01*
X82921485Y-43148263D02*
X83064342Y-43148263D01*
X83064342Y-43148263D02*
X83159580Y-43195882D01*
X83159580Y-43195882D02*
X83207200Y-43243501D01*
X83207200Y-43243501D02*
X83254819Y-43338739D01*
X83254819Y-43338739D02*
X83254819Y-43719691D01*
X83254819Y-43719691D02*
X82254819Y-43719691D01*
X82254819Y-43719691D02*
X82254819Y-43386358D01*
X82254819Y-43386358D02*
X82302438Y-43291120D01*
X82302438Y-43291120D02*
X82350057Y-43243501D01*
X82350057Y-43243501D02*
X82445295Y-43195882D01*
X82445295Y-43195882D02*
X82540533Y-43195882D01*
X82540533Y-43195882D02*
X82635771Y-43243501D01*
X82635771Y-43243501D02*
X82683390Y-43291120D01*
X82683390Y-43291120D02*
X82731009Y-43386358D01*
X82731009Y-43386358D02*
X82731009Y-43719691D01*
X83254819Y-42291120D02*
X82731009Y-42291120D01*
X82731009Y-42291120D02*
X82635771Y-42338739D01*
X82635771Y-42338739D02*
X82588152Y-42433977D01*
X82588152Y-42433977D02*
X82588152Y-42624453D01*
X82588152Y-42624453D02*
X82635771Y-42719691D01*
X83207200Y-42291120D02*
X83254819Y-42386358D01*
X83254819Y-42386358D02*
X83254819Y-42624453D01*
X83254819Y-42624453D02*
X83207200Y-42719691D01*
X83207200Y-42719691D02*
X83111961Y-42767310D01*
X83111961Y-42767310D02*
X83016723Y-42767310D01*
X83016723Y-42767310D02*
X82921485Y-42719691D01*
X82921485Y-42719691D02*
X82873866Y-42624453D01*
X82873866Y-42624453D02*
X82873866Y-42386358D01*
X82873866Y-42386358D02*
X82826247Y-42291120D01*
X82588152Y-41957786D02*
X82588152Y-41576834D01*
X82254819Y-41814929D02*
X83111961Y-41814929D01*
X83111961Y-41814929D02*
X83207200Y-41767310D01*
X83207200Y-41767310D02*
X83254819Y-41672072D01*
X83254819Y-41672072D02*
X83254819Y-41576834D01*
X82588152Y-41386357D02*
X82588152Y-41005405D01*
X82254819Y-41243500D02*
X83111961Y-41243500D01*
X83111961Y-41243500D02*
X83207200Y-41195881D01*
X83207200Y-41195881D02*
X83254819Y-41100643D01*
X83254819Y-41100643D02*
X83254819Y-41005405D01*
X83207200Y-40291119D02*
X83254819Y-40386357D01*
X83254819Y-40386357D02*
X83254819Y-40576833D01*
X83254819Y-40576833D02*
X83207200Y-40672071D01*
X83207200Y-40672071D02*
X83111961Y-40719690D01*
X83111961Y-40719690D02*
X82731009Y-40719690D01*
X82731009Y-40719690D02*
X82635771Y-40672071D01*
X82635771Y-40672071D02*
X82588152Y-40576833D01*
X82588152Y-40576833D02*
X82588152Y-40386357D01*
X82588152Y-40386357D02*
X82635771Y-40291119D01*
X82635771Y-40291119D02*
X82731009Y-40243500D01*
X82731009Y-40243500D02*
X82826247Y-40243500D01*
X82826247Y-40243500D02*
X82921485Y-40719690D01*
X83254819Y-39814928D02*
X82588152Y-39814928D01*
X82778628Y-39814928D02*
X82683390Y-39767309D01*
X82683390Y-39767309D02*
X82635771Y-39719690D01*
X82635771Y-39719690D02*
X82588152Y-39624452D01*
X82588152Y-39624452D02*
X82588152Y-39529214D01*
X82588152Y-39291118D02*
X83254819Y-39053023D01*
X82588152Y-38814928D02*
X83254819Y-39053023D01*
X83254819Y-39053023D02*
X83492914Y-39148261D01*
X83492914Y-39148261D02*
X83540533Y-39195880D01*
X83540533Y-39195880D02*
X83588152Y-39291118D01*
X83159580Y-37100642D02*
X83207200Y-37148261D01*
X83207200Y-37148261D02*
X83254819Y-37291118D01*
X83254819Y-37291118D02*
X83254819Y-37386356D01*
X83254819Y-37386356D02*
X83207200Y-37529213D01*
X83207200Y-37529213D02*
X83111961Y-37624451D01*
X83111961Y-37624451D02*
X83016723Y-37672070D01*
X83016723Y-37672070D02*
X82826247Y-37719689D01*
X82826247Y-37719689D02*
X82683390Y-37719689D01*
X82683390Y-37719689D02*
X82492914Y-37672070D01*
X82492914Y-37672070D02*
X82397676Y-37624451D01*
X82397676Y-37624451D02*
X82302438Y-37529213D01*
X82302438Y-37529213D02*
X82254819Y-37386356D01*
X82254819Y-37386356D02*
X82254819Y-37291118D01*
X82254819Y-37291118D02*
X82302438Y-37148261D01*
X82302438Y-37148261D02*
X82350057Y-37100642D01*
X83254819Y-36672070D02*
X82254819Y-36672070D01*
X83254819Y-36243499D02*
X82731009Y-36243499D01*
X82731009Y-36243499D02*
X82635771Y-36291118D01*
X82635771Y-36291118D02*
X82588152Y-36386356D01*
X82588152Y-36386356D02*
X82588152Y-36529213D01*
X82588152Y-36529213D02*
X82635771Y-36624451D01*
X82635771Y-36624451D02*
X82683390Y-36672070D01*
X83254819Y-35338737D02*
X82731009Y-35338737D01*
X82731009Y-35338737D02*
X82635771Y-35386356D01*
X82635771Y-35386356D02*
X82588152Y-35481594D01*
X82588152Y-35481594D02*
X82588152Y-35672070D01*
X82588152Y-35672070D02*
X82635771Y-35767308D01*
X83207200Y-35338737D02*
X83254819Y-35433975D01*
X83254819Y-35433975D02*
X83254819Y-35672070D01*
X83254819Y-35672070D02*
X83207200Y-35767308D01*
X83207200Y-35767308D02*
X83111961Y-35814927D01*
X83111961Y-35814927D02*
X83016723Y-35814927D01*
X83016723Y-35814927D02*
X82921485Y-35767308D01*
X82921485Y-35767308D02*
X82873866Y-35672070D01*
X82873866Y-35672070D02*
X82873866Y-35433975D01*
X82873866Y-35433975D02*
X82826247Y-35338737D01*
X83254819Y-34862546D02*
X82588152Y-34862546D01*
X82778628Y-34862546D02*
X82683390Y-34814927D01*
X82683390Y-34814927D02*
X82635771Y-34767308D01*
X82635771Y-34767308D02*
X82588152Y-34672070D01*
X82588152Y-34672070D02*
X82588152Y-34576832D01*
X82588152Y-33814927D02*
X83397676Y-33814927D01*
X83397676Y-33814927D02*
X83492914Y-33862546D01*
X83492914Y-33862546D02*
X83540533Y-33910165D01*
X83540533Y-33910165D02*
X83588152Y-34005403D01*
X83588152Y-34005403D02*
X83588152Y-34148260D01*
X83588152Y-34148260D02*
X83540533Y-34243498D01*
X83207200Y-33814927D02*
X83254819Y-33910165D01*
X83254819Y-33910165D02*
X83254819Y-34100641D01*
X83254819Y-34100641D02*
X83207200Y-34195879D01*
X83207200Y-34195879D02*
X83159580Y-34243498D01*
X83159580Y-34243498D02*
X83064342Y-34291117D01*
X83064342Y-34291117D02*
X82778628Y-34291117D01*
X82778628Y-34291117D02*
X82683390Y-34243498D01*
X82683390Y-34243498D02*
X82635771Y-34195879D01*
X82635771Y-34195879D02*
X82588152Y-34100641D01*
X82588152Y-34100641D02*
X82588152Y-33910165D01*
X82588152Y-33910165D02*
X82635771Y-33814927D01*
X83207200Y-32957784D02*
X83254819Y-33053022D01*
X83254819Y-33053022D02*
X83254819Y-33243498D01*
X83254819Y-33243498D02*
X83207200Y-33338736D01*
X83207200Y-33338736D02*
X83111961Y-33386355D01*
X83111961Y-33386355D02*
X82731009Y-33386355D01*
X82731009Y-33386355D02*
X82635771Y-33338736D01*
X82635771Y-33338736D02*
X82588152Y-33243498D01*
X82588152Y-33243498D02*
X82588152Y-33053022D01*
X82588152Y-33053022D02*
X82635771Y-32957784D01*
X82635771Y-32957784D02*
X82731009Y-32910165D01*
X82731009Y-32910165D02*
X82826247Y-32910165D01*
X82826247Y-32910165D02*
X82921485Y-33386355D01*
X83254819Y-32481593D02*
X82588152Y-32481593D01*
X82778628Y-32481593D02*
X82683390Y-32433974D01*
X82683390Y-32433974D02*
X82635771Y-32386355D01*
X82635771Y-32386355D02*
X82588152Y-32291117D01*
X82588152Y-32291117D02*
X82588152Y-32195879D01*
X83254819Y-30576831D02*
X83254819Y-31148259D01*
X83254819Y-30862545D02*
X82254819Y-30862545D01*
X82254819Y-30862545D02*
X82397676Y-30957783D01*
X82397676Y-30957783D02*
X82492914Y-31053021D01*
X82492914Y-31053021D02*
X82540533Y-31148259D01*
X82969104Y-30195878D02*
X82969104Y-29719688D01*
X83254819Y-30291116D02*
X82254819Y-29957783D01*
X82254819Y-29957783D02*
X83254819Y-29624450D01*
X78931009Y-46291118D02*
X78978628Y-46148261D01*
X78978628Y-46148261D02*
X79026247Y-46100642D01*
X79026247Y-46100642D02*
X79121485Y-46053023D01*
X79121485Y-46053023D02*
X79264342Y-46053023D01*
X79264342Y-46053023D02*
X79359580Y-46100642D01*
X79359580Y-46100642D02*
X79407200Y-46148261D01*
X79407200Y-46148261D02*
X79454819Y-46243499D01*
X79454819Y-46243499D02*
X79454819Y-46624451D01*
X79454819Y-46624451D02*
X78454819Y-46624451D01*
X78454819Y-46624451D02*
X78454819Y-46291118D01*
X78454819Y-46291118D02*
X78502438Y-46195880D01*
X78502438Y-46195880D02*
X78550057Y-46148261D01*
X78550057Y-46148261D02*
X78645295Y-46100642D01*
X78645295Y-46100642D02*
X78740533Y-46100642D01*
X78740533Y-46100642D02*
X78835771Y-46148261D01*
X78835771Y-46148261D02*
X78883390Y-46195880D01*
X78883390Y-46195880D02*
X78931009Y-46291118D01*
X78931009Y-46291118D02*
X78931009Y-46624451D01*
X79073866Y-45624451D02*
X79073866Y-44862547D01*
X81338095Y-25098319D02*
X81338095Y-25907842D01*
X81338095Y-25907842D02*
X81385714Y-26003080D01*
X81385714Y-26003080D02*
X81433333Y-26050700D01*
X81433333Y-26050700D02*
X81528571Y-26098319D01*
X81528571Y-26098319D02*
X81719047Y-26098319D01*
X81719047Y-26098319D02*
X81814285Y-26050700D01*
X81814285Y-26050700D02*
X81861904Y-26003080D01*
X81861904Y-26003080D02*
X81909523Y-25907842D01*
X81909523Y-25907842D02*
X81909523Y-25098319D01*
X82338095Y-26050700D02*
X82480952Y-26098319D01*
X82480952Y-26098319D02*
X82719047Y-26098319D01*
X82719047Y-26098319D02*
X82814285Y-26050700D01*
X82814285Y-26050700D02*
X82861904Y-26003080D01*
X82861904Y-26003080D02*
X82909523Y-25907842D01*
X82909523Y-25907842D02*
X82909523Y-25812604D01*
X82909523Y-25812604D02*
X82861904Y-25717366D01*
X82861904Y-25717366D02*
X82814285Y-25669747D01*
X82814285Y-25669747D02*
X82719047Y-25622128D01*
X82719047Y-25622128D02*
X82528571Y-25574509D01*
X82528571Y-25574509D02*
X82433333Y-25526890D01*
X82433333Y-25526890D02*
X82385714Y-25479271D01*
X82385714Y-25479271D02*
X82338095Y-25384033D01*
X82338095Y-25384033D02*
X82338095Y-25288795D01*
X82338095Y-25288795D02*
X82385714Y-25193557D01*
X82385714Y-25193557D02*
X82433333Y-25145938D01*
X82433333Y-25145938D02*
X82528571Y-25098319D01*
X82528571Y-25098319D02*
X82766666Y-25098319D01*
X82766666Y-25098319D02*
X82909523Y-25145938D01*
X83671428Y-25574509D02*
X83814285Y-25622128D01*
X83814285Y-25622128D02*
X83861904Y-25669747D01*
X83861904Y-25669747D02*
X83909523Y-25764985D01*
X83909523Y-25764985D02*
X83909523Y-25907842D01*
X83909523Y-25907842D02*
X83861904Y-26003080D01*
X83861904Y-26003080D02*
X83814285Y-26050700D01*
X83814285Y-26050700D02*
X83719047Y-26098319D01*
X83719047Y-26098319D02*
X83338095Y-26098319D01*
X83338095Y-26098319D02*
X83338095Y-25098319D01*
X83338095Y-25098319D02*
X83671428Y-25098319D01*
X83671428Y-25098319D02*
X83766666Y-25145938D01*
X83766666Y-25145938D02*
X83814285Y-25193557D01*
X83814285Y-25193557D02*
X83861904Y-25288795D01*
X83861904Y-25288795D02*
X83861904Y-25384033D01*
X83861904Y-25384033D02*
X83814285Y-25479271D01*
X83814285Y-25479271D02*
X83766666Y-25526890D01*
X83766666Y-25526890D02*
X83671428Y-25574509D01*
X83671428Y-25574509D02*
X83338095Y-25574509D01*
X64833333Y-98103080D02*
X64785714Y-98150700D01*
X64785714Y-98150700D02*
X64642857Y-98198319D01*
X64642857Y-98198319D02*
X64547619Y-98198319D01*
X64547619Y-98198319D02*
X64404762Y-98150700D01*
X64404762Y-98150700D02*
X64309524Y-98055461D01*
X64309524Y-98055461D02*
X64261905Y-97960223D01*
X64261905Y-97960223D02*
X64214286Y-97769747D01*
X64214286Y-97769747D02*
X64214286Y-97626890D01*
X64214286Y-97626890D02*
X64261905Y-97436414D01*
X64261905Y-97436414D02*
X64309524Y-97341176D01*
X64309524Y-97341176D02*
X64404762Y-97245938D01*
X64404762Y-97245938D02*
X64547619Y-97198319D01*
X64547619Y-97198319D02*
X64642857Y-97198319D01*
X64642857Y-97198319D02*
X64785714Y-97245938D01*
X64785714Y-97245938D02*
X64833333Y-97293557D01*
X65214286Y-97293557D02*
X65261905Y-97245938D01*
X65261905Y-97245938D02*
X65357143Y-97198319D01*
X65357143Y-97198319D02*
X65595238Y-97198319D01*
X65595238Y-97198319D02*
X65690476Y-97245938D01*
X65690476Y-97245938D02*
X65738095Y-97293557D01*
X65738095Y-97293557D02*
X65785714Y-97388795D01*
X65785714Y-97388795D02*
X65785714Y-97484033D01*
X65785714Y-97484033D02*
X65738095Y-97626890D01*
X65738095Y-97626890D02*
X65166667Y-98198319D01*
X65166667Y-98198319D02*
X65785714Y-98198319D01*
X68093095Y-76558319D02*
X68093095Y-77367842D01*
X68093095Y-77367842D02*
X68140714Y-77463080D01*
X68140714Y-77463080D02*
X68188333Y-77510700D01*
X68188333Y-77510700D02*
X68283571Y-77558319D01*
X68283571Y-77558319D02*
X68474047Y-77558319D01*
X68474047Y-77558319D02*
X68569285Y-77510700D01*
X68569285Y-77510700D02*
X68616904Y-77463080D01*
X68616904Y-77463080D02*
X68664523Y-77367842D01*
X68664523Y-77367842D02*
X68664523Y-76558319D01*
X69664523Y-77558319D02*
X69093095Y-77558319D01*
X69378809Y-77558319D02*
X69378809Y-76558319D01*
X69378809Y-76558319D02*
X69283571Y-76701176D01*
X69283571Y-76701176D02*
X69188333Y-76796414D01*
X69188333Y-76796414D02*
X69093095Y-76844033D01*
X99854819Y-72433976D02*
X99854819Y-73005404D01*
X99854819Y-72719690D02*
X98854819Y-72719690D01*
X98854819Y-72719690D02*
X98997676Y-72814928D01*
X98997676Y-72814928D02*
X99092914Y-72910166D01*
X99092914Y-72910166D02*
X99140533Y-73005404D01*
X99854819Y-71481595D02*
X99854819Y-72053023D01*
X99854819Y-71767309D02*
X98854819Y-71767309D01*
X98854819Y-71767309D02*
X98997676Y-71862547D01*
X98997676Y-71862547D02*
X99092914Y-71957785D01*
X99092914Y-71957785D02*
X99140533Y-72053023D01*
X101976667Y-93925700D02*
X102119524Y-93973319D01*
X102119524Y-93973319D02*
X102357619Y-93973319D01*
X102357619Y-93973319D02*
X102452857Y-93925700D01*
X102452857Y-93925700D02*
X102500476Y-93878080D01*
X102500476Y-93878080D02*
X102548095Y-93782842D01*
X102548095Y-93782842D02*
X102548095Y-93687604D01*
X102548095Y-93687604D02*
X102500476Y-93592366D01*
X102500476Y-93592366D02*
X102452857Y-93544747D01*
X102452857Y-93544747D02*
X102357619Y-93497128D01*
X102357619Y-93497128D02*
X102167143Y-93449509D01*
X102167143Y-93449509D02*
X102071905Y-93401890D01*
X102071905Y-93401890D02*
X102024286Y-93354271D01*
X102024286Y-93354271D02*
X101976667Y-93259033D01*
X101976667Y-93259033D02*
X101976667Y-93163795D01*
X101976667Y-93163795D02*
X102024286Y-93068557D01*
X102024286Y-93068557D02*
X102071905Y-93020938D01*
X102071905Y-93020938D02*
X102167143Y-92973319D01*
X102167143Y-92973319D02*
X102405238Y-92973319D01*
X102405238Y-92973319D02*
X102548095Y-93020938D01*
X102881429Y-92973319D02*
X103119524Y-93973319D01*
X103119524Y-93973319D02*
X103310000Y-93259033D01*
X103310000Y-93259033D02*
X103500476Y-93973319D01*
X103500476Y-93973319D02*
X103738572Y-92973319D01*
X104643333Y-93973319D02*
X104071905Y-93973319D01*
X104357619Y-93973319D02*
X104357619Y-92973319D01*
X104357619Y-92973319D02*
X104262381Y-93116176D01*
X104262381Y-93116176D02*
X104167143Y-93211414D01*
X104167143Y-93211414D02*
X104071905Y-93259033D01*
D12*
X49942580Y-87100642D02*
X49942580Y-86624452D01*
X49942580Y-86624452D02*
X50942580Y-86624452D01*
X49990200Y-87386357D02*
X49942580Y-87529214D01*
X49942580Y-87529214D02*
X49942580Y-87767309D01*
X49942580Y-87767309D02*
X49990200Y-87862547D01*
X49990200Y-87862547D02*
X50037819Y-87910166D01*
X50037819Y-87910166D02*
X50133057Y-87957785D01*
X50133057Y-87957785D02*
X50228295Y-87957785D01*
X50228295Y-87957785D02*
X50323533Y-87910166D01*
X50323533Y-87910166D02*
X50371152Y-87862547D01*
X50371152Y-87862547D02*
X50418771Y-87767309D01*
X50418771Y-87767309D02*
X50466390Y-87576833D01*
X50466390Y-87576833D02*
X50514009Y-87481595D01*
X50514009Y-87481595D02*
X50561628Y-87433976D01*
X50561628Y-87433976D02*
X50656866Y-87386357D01*
X50656866Y-87386357D02*
X50752104Y-87386357D01*
X50752104Y-87386357D02*
X50847342Y-87433976D01*
X50847342Y-87433976D02*
X50894961Y-87481595D01*
X50894961Y-87481595D02*
X50942580Y-87576833D01*
X50942580Y-87576833D02*
X50942580Y-87814928D01*
X50942580Y-87814928D02*
X50894961Y-87957785D01*
X49942580Y-88910166D02*
X49942580Y-88338738D01*
X49942580Y-88624452D02*
X50942580Y-88624452D01*
X50942580Y-88624452D02*
X50799723Y-88529214D01*
X50799723Y-88529214D02*
X50704485Y-88433976D01*
X50704485Y-88433976D02*
X50656866Y-88338738D01*
D11*
X56833333Y-98103080D02*
X56785714Y-98150700D01*
X56785714Y-98150700D02*
X56642857Y-98198319D01*
X56642857Y-98198319D02*
X56547619Y-98198319D01*
X56547619Y-98198319D02*
X56404762Y-98150700D01*
X56404762Y-98150700D02*
X56309524Y-98055461D01*
X56309524Y-98055461D02*
X56261905Y-97960223D01*
X56261905Y-97960223D02*
X56214286Y-97769747D01*
X56214286Y-97769747D02*
X56214286Y-97626890D01*
X56214286Y-97626890D02*
X56261905Y-97436414D01*
X56261905Y-97436414D02*
X56309524Y-97341176D01*
X56309524Y-97341176D02*
X56404762Y-97245938D01*
X56404762Y-97245938D02*
X56547619Y-97198319D01*
X56547619Y-97198319D02*
X56642857Y-97198319D01*
X56642857Y-97198319D02*
X56785714Y-97245938D01*
X56785714Y-97245938D02*
X56833333Y-97293557D01*
X57785714Y-98198319D02*
X57214286Y-98198319D01*
X57500000Y-98198319D02*
X57500000Y-97198319D01*
X57500000Y-97198319D02*
X57404762Y-97341176D01*
X57404762Y-97341176D02*
X57309524Y-97436414D01*
X57309524Y-97436414D02*
X57214286Y-97484033D01*
X82354819Y-72457785D02*
X82354819Y-73029213D01*
X82354819Y-72743499D02*
X81354819Y-72743499D01*
X81354819Y-72743499D02*
X81497676Y-72838737D01*
X81497676Y-72838737D02*
X81592914Y-72933975D01*
X81592914Y-72933975D02*
X81640533Y-73029213D01*
X59501819Y-88585404D02*
X60311342Y-88585404D01*
X60311342Y-88585404D02*
X60406580Y-88537785D01*
X60406580Y-88537785D02*
X60454200Y-88490166D01*
X60454200Y-88490166D02*
X60501819Y-88394928D01*
X60501819Y-88394928D02*
X60501819Y-88204452D01*
X60501819Y-88204452D02*
X60454200Y-88109214D01*
X60454200Y-88109214D02*
X60406580Y-88061595D01*
X60406580Y-88061595D02*
X60311342Y-88013976D01*
X60311342Y-88013976D02*
X59501819Y-88013976D01*
X59501819Y-87633023D02*
X59501819Y-87013976D01*
X59501819Y-87013976D02*
X59882771Y-87347309D01*
X59882771Y-87347309D02*
X59882771Y-87204452D01*
X59882771Y-87204452D02*
X59930390Y-87109214D01*
X59930390Y-87109214D02*
X59978009Y-87061595D01*
X59978009Y-87061595D02*
X60073247Y-87013976D01*
X60073247Y-87013976D02*
X60311342Y-87013976D01*
X60311342Y-87013976D02*
X60406580Y-87061595D01*
X60406580Y-87061595D02*
X60454200Y-87109214D01*
X60454200Y-87109214D02*
X60501819Y-87204452D01*
X60501819Y-87204452D02*
X60501819Y-87490166D01*
X60501819Y-87490166D02*
X60454200Y-87585404D01*
X60454200Y-87585404D02*
X60406580Y-87633023D01*
D13*
X69171231Y-94174966D02*
X69212355Y-94051594D01*
X69212355Y-94051594D02*
X69253479Y-94010471D01*
X69253479Y-94010471D02*
X69335727Y-93969347D01*
X69335727Y-93969347D02*
X69459098Y-93969347D01*
X69459098Y-93969347D02*
X69541346Y-94010471D01*
X69541346Y-94010471D02*
X69582470Y-94051594D01*
X69582470Y-94051594D02*
X69623593Y-94133842D01*
X69623593Y-94133842D02*
X69623593Y-94462832D01*
X69623593Y-94462832D02*
X68759993Y-94462832D01*
X68759993Y-94462832D02*
X68759993Y-94174966D01*
X68759993Y-94174966D02*
X68801117Y-94092718D01*
X68801117Y-94092718D02*
X68842241Y-94051594D01*
X68842241Y-94051594D02*
X68924489Y-94010471D01*
X68924489Y-94010471D02*
X69006736Y-94010471D01*
X69006736Y-94010471D02*
X69088984Y-94051594D01*
X69088984Y-94051594D02*
X69130108Y-94092718D01*
X69130108Y-94092718D02*
X69171231Y-94174966D01*
X69171231Y-94174966D02*
X69171231Y-94462832D01*
X69541346Y-93105747D02*
X69582470Y-93146871D01*
X69582470Y-93146871D02*
X69623593Y-93270242D01*
X69623593Y-93270242D02*
X69623593Y-93352490D01*
X69623593Y-93352490D02*
X69582470Y-93475861D01*
X69582470Y-93475861D02*
X69500222Y-93558109D01*
X69500222Y-93558109D02*
X69417974Y-93599232D01*
X69417974Y-93599232D02*
X69253479Y-93640356D01*
X69253479Y-93640356D02*
X69130108Y-93640356D01*
X69130108Y-93640356D02*
X68965612Y-93599232D01*
X68965612Y-93599232D02*
X68883365Y-93558109D01*
X68883365Y-93558109D02*
X68801117Y-93475861D01*
X68801117Y-93475861D02*
X68759993Y-93352490D01*
X68759993Y-93352490D02*
X68759993Y-93270242D01*
X68759993Y-93270242D02*
X68801117Y-93146871D01*
X68801117Y-93146871D02*
X68842241Y-93105747D01*
X69623593Y-92324394D02*
X69623593Y-92735632D01*
X69623593Y-92735632D02*
X68759993Y-92735632D01*
X69623593Y-92036527D02*
X68759993Y-92036527D01*
X69623593Y-91543042D02*
X69130108Y-91913156D01*
X68759993Y-91543042D02*
X69253479Y-92036527D01*
X65082470Y-86209042D02*
X65123593Y-86085671D01*
X65123593Y-86085671D02*
X65123593Y-85880052D01*
X65123593Y-85880052D02*
X65082470Y-85797804D01*
X65082470Y-85797804D02*
X65041346Y-85756680D01*
X65041346Y-85756680D02*
X64959098Y-85715557D01*
X64959098Y-85715557D02*
X64876850Y-85715557D01*
X64876850Y-85715557D02*
X64794603Y-85756680D01*
X64794603Y-85756680D02*
X64753479Y-85797804D01*
X64753479Y-85797804D02*
X64712355Y-85880052D01*
X64712355Y-85880052D02*
X64671231Y-86044547D01*
X64671231Y-86044547D02*
X64630108Y-86126795D01*
X64630108Y-86126795D02*
X64588984Y-86167918D01*
X64588984Y-86167918D02*
X64506736Y-86209042D01*
X64506736Y-86209042D02*
X64424489Y-86209042D01*
X64424489Y-86209042D02*
X64342241Y-86167918D01*
X64342241Y-86167918D02*
X64301117Y-86126795D01*
X64301117Y-86126795D02*
X64259993Y-86044547D01*
X64259993Y-86044547D02*
X64259993Y-85838928D01*
X64259993Y-85838928D02*
X64301117Y-85715557D01*
X65123593Y-85345442D02*
X64259993Y-85345442D01*
X64259993Y-85345442D02*
X64259993Y-85139823D01*
X64259993Y-85139823D02*
X64301117Y-85016452D01*
X64301117Y-85016452D02*
X64383365Y-84934204D01*
X64383365Y-84934204D02*
X64465612Y-84893081D01*
X64465612Y-84893081D02*
X64630108Y-84851957D01*
X64630108Y-84851957D02*
X64753479Y-84851957D01*
X64753479Y-84851957D02*
X64917974Y-84893081D01*
X64917974Y-84893081D02*
X65000222Y-84934204D01*
X65000222Y-84934204D02*
X65082470Y-85016452D01*
X65082470Y-85016452D02*
X65123593Y-85139823D01*
X65123593Y-85139823D02*
X65123593Y-85345442D01*
X65123593Y-95651794D02*
X65123593Y-96063032D01*
X65123593Y-96063032D02*
X64259993Y-96063032D01*
X65123593Y-94870442D02*
X64712355Y-95158308D01*
X65123593Y-95363927D02*
X64259993Y-95363927D01*
X64259993Y-95363927D02*
X64259993Y-95034937D01*
X64259993Y-95034937D02*
X64301117Y-94952689D01*
X64301117Y-94952689D02*
X64342241Y-94911566D01*
X64342241Y-94911566D02*
X64424489Y-94870442D01*
X64424489Y-94870442D02*
X64547860Y-94870442D01*
X64547860Y-94870442D02*
X64630108Y-94911566D01*
X64630108Y-94911566D02*
X64671231Y-94952689D01*
X64671231Y-94952689D02*
X64712355Y-95034937D01*
X64712355Y-95034937D02*
X64712355Y-95363927D01*
X65041346Y-94006842D02*
X65082470Y-94047966D01*
X65082470Y-94047966D02*
X65123593Y-94171337D01*
X65123593Y-94171337D02*
X65123593Y-94253585D01*
X65123593Y-94253585D02*
X65082470Y-94376956D01*
X65082470Y-94376956D02*
X65000222Y-94459204D01*
X65000222Y-94459204D02*
X64917974Y-94500327D01*
X64917974Y-94500327D02*
X64753479Y-94541451D01*
X64753479Y-94541451D02*
X64630108Y-94541451D01*
X64630108Y-94541451D02*
X64465612Y-94500327D01*
X64465612Y-94500327D02*
X64383365Y-94459204D01*
X64383365Y-94459204D02*
X64301117Y-94376956D01*
X64301117Y-94376956D02*
X64259993Y-94253585D01*
X64259993Y-94253585D02*
X64259993Y-94171337D01*
X64259993Y-94171337D02*
X64301117Y-94047966D01*
X64301117Y-94047966D02*
X64342241Y-94006842D01*
X68801117Y-83521481D02*
X68759993Y-83603728D01*
X68759993Y-83603728D02*
X68759993Y-83727100D01*
X68759993Y-83727100D02*
X68801117Y-83850471D01*
X68801117Y-83850471D02*
X68883365Y-83932719D01*
X68883365Y-83932719D02*
X68965612Y-83973842D01*
X68965612Y-83973842D02*
X69130108Y-84014966D01*
X69130108Y-84014966D02*
X69253479Y-84014966D01*
X69253479Y-84014966D02*
X69417974Y-83973842D01*
X69417974Y-83973842D02*
X69500222Y-83932719D01*
X69500222Y-83932719D02*
X69582470Y-83850471D01*
X69582470Y-83850471D02*
X69623593Y-83727100D01*
X69623593Y-83727100D02*
X69623593Y-83644852D01*
X69623593Y-83644852D02*
X69582470Y-83521481D01*
X69582470Y-83521481D02*
X69541346Y-83480357D01*
X69541346Y-83480357D02*
X69253479Y-83480357D01*
X69253479Y-83480357D02*
X69253479Y-83644852D01*
X69623593Y-83110242D02*
X68759993Y-83110242D01*
X68759993Y-83110242D02*
X69623593Y-82616757D01*
X69623593Y-82616757D02*
X68759993Y-82616757D01*
X69623593Y-82205518D02*
X68759993Y-82205518D01*
X68759993Y-82205518D02*
X68759993Y-81999899D01*
X68759993Y-81999899D02*
X68801117Y-81876528D01*
X68801117Y-81876528D02*
X68883365Y-81794280D01*
X68883365Y-81794280D02*
X68965612Y-81753157D01*
X68965612Y-81753157D02*
X69130108Y-81712033D01*
X69130108Y-81712033D02*
X69253479Y-81712033D01*
X69253479Y-81712033D02*
X69417974Y-81753157D01*
X69417974Y-81753157D02*
X69500222Y-81794280D01*
X69500222Y-81794280D02*
X69582470Y-81876528D01*
X69582470Y-81876528D02*
X69623593Y-81999899D01*
X69623593Y-81999899D02*
X69623593Y-82205518D01*
X65123593Y-91240661D02*
X64259993Y-91240661D01*
X64259993Y-91240661D02*
X64259993Y-91035042D01*
X64259993Y-91035042D02*
X64301117Y-90911671D01*
X64301117Y-90911671D02*
X64383365Y-90829423D01*
X64383365Y-90829423D02*
X64465612Y-90788300D01*
X64465612Y-90788300D02*
X64630108Y-90747176D01*
X64630108Y-90747176D02*
X64753479Y-90747176D01*
X64753479Y-90747176D02*
X64917974Y-90788300D01*
X64917974Y-90788300D02*
X65000222Y-90829423D01*
X65000222Y-90829423D02*
X65082470Y-90911671D01*
X65082470Y-90911671D02*
X65123593Y-91035042D01*
X65123593Y-91035042D02*
X65123593Y-91240661D01*
X65123593Y-90377061D02*
X64259993Y-90377061D01*
X65123593Y-89965823D02*
X64259993Y-89965823D01*
X64259993Y-89965823D02*
X65123593Y-89472338D01*
X65123593Y-89472338D02*
X64259993Y-89472338D01*
X68801117Y-88745414D02*
X68759993Y-88827661D01*
X68759993Y-88827661D02*
X68759993Y-88951033D01*
X68759993Y-88951033D02*
X68801117Y-89074404D01*
X68801117Y-89074404D02*
X68883365Y-89156652D01*
X68883365Y-89156652D02*
X68965612Y-89197775D01*
X68965612Y-89197775D02*
X69130108Y-89238899D01*
X69130108Y-89238899D02*
X69253479Y-89238899D01*
X69253479Y-89238899D02*
X69417974Y-89197775D01*
X69417974Y-89197775D02*
X69500222Y-89156652D01*
X69500222Y-89156652D02*
X69582470Y-89074404D01*
X69582470Y-89074404D02*
X69623593Y-88951033D01*
X69623593Y-88951033D02*
X69623593Y-88868785D01*
X69623593Y-88868785D02*
X69582470Y-88745414D01*
X69582470Y-88745414D02*
X69541346Y-88704290D01*
X69541346Y-88704290D02*
X69253479Y-88704290D01*
X69253479Y-88704290D02*
X69253479Y-88868785D01*
X69376850Y-88375299D02*
X69376850Y-87964061D01*
X69623593Y-88457547D02*
X68759993Y-88169680D01*
X68759993Y-88169680D02*
X69623593Y-87881814D01*
X69623593Y-87593946D02*
X68759993Y-87593946D01*
X69623593Y-87182708D02*
X68759993Y-87182708D01*
X68759993Y-87182708D02*
X69623593Y-86689223D01*
X69623593Y-86689223D02*
X68759993Y-86689223D01*
X64259993Y-81080661D02*
X65123593Y-80792794D01*
X65123593Y-80792794D02*
X64259993Y-80504928D01*
X65123593Y-80217060D02*
X64547860Y-80217060D01*
X64259993Y-80217060D02*
X64301117Y-80258184D01*
X64301117Y-80258184D02*
X64342241Y-80217060D01*
X64342241Y-80217060D02*
X64301117Y-80175937D01*
X64301117Y-80175937D02*
X64259993Y-80217060D01*
X64259993Y-80217060D02*
X64342241Y-80217060D01*
X64547860Y-79805822D02*
X65123593Y-79805822D01*
X64630108Y-79805822D02*
X64588984Y-79764699D01*
X64588984Y-79764699D02*
X64547860Y-79682451D01*
X64547860Y-79682451D02*
X64547860Y-79559080D01*
X64547860Y-79559080D02*
X64588984Y-79476832D01*
X64588984Y-79476832D02*
X64671231Y-79435708D01*
X64671231Y-79435708D02*
X65123593Y-79435708D01*
D11*
X90054819Y-38905404D02*
X90054819Y-38333976D01*
X91054819Y-38619690D02*
X90054819Y-38619690D01*
X91054819Y-38000642D02*
X90054819Y-38000642D01*
X90054819Y-38000642D02*
X90054819Y-37619690D01*
X90054819Y-37619690D02*
X90102438Y-37524452D01*
X90102438Y-37524452D02*
X90150057Y-37476833D01*
X90150057Y-37476833D02*
X90245295Y-37429214D01*
X90245295Y-37429214D02*
X90388152Y-37429214D01*
X90388152Y-37429214D02*
X90483390Y-37476833D01*
X90483390Y-37476833D02*
X90531009Y-37524452D01*
X90531009Y-37524452D02*
X90578628Y-37619690D01*
X90578628Y-37619690D02*
X90578628Y-38000642D01*
X90150057Y-37048261D02*
X90102438Y-37000642D01*
X90102438Y-37000642D02*
X90054819Y-36905404D01*
X90054819Y-36905404D02*
X90054819Y-36667309D01*
X90054819Y-36667309D02*
X90102438Y-36572071D01*
X90102438Y-36572071D02*
X90150057Y-36524452D01*
X90150057Y-36524452D02*
X90245295Y-36476833D01*
X90245295Y-36476833D02*
X90340533Y-36476833D01*
X90340533Y-36476833D02*
X90483390Y-36524452D01*
X90483390Y-36524452D02*
X91054819Y-37095880D01*
X91054819Y-37095880D02*
X91054819Y-36476833D01*
X101231009Y-43386358D02*
X101278628Y-43243501D01*
X101278628Y-43243501D02*
X101326247Y-43195882D01*
X101326247Y-43195882D02*
X101421485Y-43148263D01*
X101421485Y-43148263D02*
X101564342Y-43148263D01*
X101564342Y-43148263D02*
X101659580Y-43195882D01*
X101659580Y-43195882D02*
X101707200Y-43243501D01*
X101707200Y-43243501D02*
X101754819Y-43338739D01*
X101754819Y-43338739D02*
X101754819Y-43719691D01*
X101754819Y-43719691D02*
X100754819Y-43719691D01*
X100754819Y-43719691D02*
X100754819Y-43386358D01*
X100754819Y-43386358D02*
X100802438Y-43291120D01*
X100802438Y-43291120D02*
X100850057Y-43243501D01*
X100850057Y-43243501D02*
X100945295Y-43195882D01*
X100945295Y-43195882D02*
X101040533Y-43195882D01*
X101040533Y-43195882D02*
X101135771Y-43243501D01*
X101135771Y-43243501D02*
X101183390Y-43291120D01*
X101183390Y-43291120D02*
X101231009Y-43386358D01*
X101231009Y-43386358D02*
X101231009Y-43719691D01*
X101754819Y-42291120D02*
X101231009Y-42291120D01*
X101231009Y-42291120D02*
X101135771Y-42338739D01*
X101135771Y-42338739D02*
X101088152Y-42433977D01*
X101088152Y-42433977D02*
X101088152Y-42624453D01*
X101088152Y-42624453D02*
X101135771Y-42719691D01*
X101707200Y-42291120D02*
X101754819Y-42386358D01*
X101754819Y-42386358D02*
X101754819Y-42624453D01*
X101754819Y-42624453D02*
X101707200Y-42719691D01*
X101707200Y-42719691D02*
X101611961Y-42767310D01*
X101611961Y-42767310D02*
X101516723Y-42767310D01*
X101516723Y-42767310D02*
X101421485Y-42719691D01*
X101421485Y-42719691D02*
X101373866Y-42624453D01*
X101373866Y-42624453D02*
X101373866Y-42386358D01*
X101373866Y-42386358D02*
X101326247Y-42291120D01*
X101088152Y-41957786D02*
X101088152Y-41576834D01*
X100754819Y-41814929D02*
X101611961Y-41814929D01*
X101611961Y-41814929D02*
X101707200Y-41767310D01*
X101707200Y-41767310D02*
X101754819Y-41672072D01*
X101754819Y-41672072D02*
X101754819Y-41576834D01*
X101088152Y-41386357D02*
X101088152Y-41005405D01*
X100754819Y-41243500D02*
X101611961Y-41243500D01*
X101611961Y-41243500D02*
X101707200Y-41195881D01*
X101707200Y-41195881D02*
X101754819Y-41100643D01*
X101754819Y-41100643D02*
X101754819Y-41005405D01*
X101707200Y-40291119D02*
X101754819Y-40386357D01*
X101754819Y-40386357D02*
X101754819Y-40576833D01*
X101754819Y-40576833D02*
X101707200Y-40672071D01*
X101707200Y-40672071D02*
X101611961Y-40719690D01*
X101611961Y-40719690D02*
X101231009Y-40719690D01*
X101231009Y-40719690D02*
X101135771Y-40672071D01*
X101135771Y-40672071D02*
X101088152Y-40576833D01*
X101088152Y-40576833D02*
X101088152Y-40386357D01*
X101088152Y-40386357D02*
X101135771Y-40291119D01*
X101135771Y-40291119D02*
X101231009Y-40243500D01*
X101231009Y-40243500D02*
X101326247Y-40243500D01*
X101326247Y-40243500D02*
X101421485Y-40719690D01*
X101754819Y-39814928D02*
X101088152Y-39814928D01*
X101278628Y-39814928D02*
X101183390Y-39767309D01*
X101183390Y-39767309D02*
X101135771Y-39719690D01*
X101135771Y-39719690D02*
X101088152Y-39624452D01*
X101088152Y-39624452D02*
X101088152Y-39529214D01*
X101088152Y-39291118D02*
X101754819Y-39053023D01*
X101088152Y-38814928D02*
X101754819Y-39053023D01*
X101754819Y-39053023D02*
X101992914Y-39148261D01*
X101992914Y-39148261D02*
X102040533Y-39195880D01*
X102040533Y-39195880D02*
X102088152Y-39291118D01*
X101659580Y-37100642D02*
X101707200Y-37148261D01*
X101707200Y-37148261D02*
X101754819Y-37291118D01*
X101754819Y-37291118D02*
X101754819Y-37386356D01*
X101754819Y-37386356D02*
X101707200Y-37529213D01*
X101707200Y-37529213D02*
X101611961Y-37624451D01*
X101611961Y-37624451D02*
X101516723Y-37672070D01*
X101516723Y-37672070D02*
X101326247Y-37719689D01*
X101326247Y-37719689D02*
X101183390Y-37719689D01*
X101183390Y-37719689D02*
X100992914Y-37672070D01*
X100992914Y-37672070D02*
X100897676Y-37624451D01*
X100897676Y-37624451D02*
X100802438Y-37529213D01*
X100802438Y-37529213D02*
X100754819Y-37386356D01*
X100754819Y-37386356D02*
X100754819Y-37291118D01*
X100754819Y-37291118D02*
X100802438Y-37148261D01*
X100802438Y-37148261D02*
X100850057Y-37100642D01*
X101754819Y-36672070D02*
X100754819Y-36672070D01*
X101754819Y-36243499D02*
X101231009Y-36243499D01*
X101231009Y-36243499D02*
X101135771Y-36291118D01*
X101135771Y-36291118D02*
X101088152Y-36386356D01*
X101088152Y-36386356D02*
X101088152Y-36529213D01*
X101088152Y-36529213D02*
X101135771Y-36624451D01*
X101135771Y-36624451D02*
X101183390Y-36672070D01*
X101754819Y-35338737D02*
X101231009Y-35338737D01*
X101231009Y-35338737D02*
X101135771Y-35386356D01*
X101135771Y-35386356D02*
X101088152Y-35481594D01*
X101088152Y-35481594D02*
X101088152Y-35672070D01*
X101088152Y-35672070D02*
X101135771Y-35767308D01*
X101707200Y-35338737D02*
X101754819Y-35433975D01*
X101754819Y-35433975D02*
X101754819Y-35672070D01*
X101754819Y-35672070D02*
X101707200Y-35767308D01*
X101707200Y-35767308D02*
X101611961Y-35814927D01*
X101611961Y-35814927D02*
X101516723Y-35814927D01*
X101516723Y-35814927D02*
X101421485Y-35767308D01*
X101421485Y-35767308D02*
X101373866Y-35672070D01*
X101373866Y-35672070D02*
X101373866Y-35433975D01*
X101373866Y-35433975D02*
X101326247Y-35338737D01*
X101754819Y-34862546D02*
X101088152Y-34862546D01*
X101278628Y-34862546D02*
X101183390Y-34814927D01*
X101183390Y-34814927D02*
X101135771Y-34767308D01*
X101135771Y-34767308D02*
X101088152Y-34672070D01*
X101088152Y-34672070D02*
X101088152Y-34576832D01*
X101088152Y-33814927D02*
X101897676Y-33814927D01*
X101897676Y-33814927D02*
X101992914Y-33862546D01*
X101992914Y-33862546D02*
X102040533Y-33910165D01*
X102040533Y-33910165D02*
X102088152Y-34005403D01*
X102088152Y-34005403D02*
X102088152Y-34148260D01*
X102088152Y-34148260D02*
X102040533Y-34243498D01*
X101707200Y-33814927D02*
X101754819Y-33910165D01*
X101754819Y-33910165D02*
X101754819Y-34100641D01*
X101754819Y-34100641D02*
X101707200Y-34195879D01*
X101707200Y-34195879D02*
X101659580Y-34243498D01*
X101659580Y-34243498D02*
X101564342Y-34291117D01*
X101564342Y-34291117D02*
X101278628Y-34291117D01*
X101278628Y-34291117D02*
X101183390Y-34243498D01*
X101183390Y-34243498D02*
X101135771Y-34195879D01*
X101135771Y-34195879D02*
X101088152Y-34100641D01*
X101088152Y-34100641D02*
X101088152Y-33910165D01*
X101088152Y-33910165D02*
X101135771Y-33814927D01*
X101707200Y-32957784D02*
X101754819Y-33053022D01*
X101754819Y-33053022D02*
X101754819Y-33243498D01*
X101754819Y-33243498D02*
X101707200Y-33338736D01*
X101707200Y-33338736D02*
X101611961Y-33386355D01*
X101611961Y-33386355D02*
X101231009Y-33386355D01*
X101231009Y-33386355D02*
X101135771Y-33338736D01*
X101135771Y-33338736D02*
X101088152Y-33243498D01*
X101088152Y-33243498D02*
X101088152Y-33053022D01*
X101088152Y-33053022D02*
X101135771Y-32957784D01*
X101135771Y-32957784D02*
X101231009Y-32910165D01*
X101231009Y-32910165D02*
X101326247Y-32910165D01*
X101326247Y-32910165D02*
X101421485Y-33386355D01*
X101754819Y-32481593D02*
X101088152Y-32481593D01*
X101278628Y-32481593D02*
X101183390Y-32433974D01*
X101183390Y-32433974D02*
X101135771Y-32386355D01*
X101135771Y-32386355D02*
X101088152Y-32291117D01*
X101088152Y-32291117D02*
X101088152Y-32195879D01*
X101754819Y-30576831D02*
X101754819Y-31148259D01*
X101754819Y-30862545D02*
X100754819Y-30862545D01*
X100754819Y-30862545D02*
X100897676Y-30957783D01*
X100897676Y-30957783D02*
X100992914Y-31053021D01*
X100992914Y-31053021D02*
X101040533Y-31148259D01*
X101469104Y-30195878D02*
X101469104Y-29719688D01*
X101754819Y-30291116D02*
X100754819Y-29957783D01*
X100754819Y-29957783D02*
X101754819Y-29624450D01*
X97431009Y-46291118D02*
X97478628Y-46148261D01*
X97478628Y-46148261D02*
X97526247Y-46100642D01*
X97526247Y-46100642D02*
X97621485Y-46053023D01*
X97621485Y-46053023D02*
X97764342Y-46053023D01*
X97764342Y-46053023D02*
X97859580Y-46100642D01*
X97859580Y-46100642D02*
X97907200Y-46148261D01*
X97907200Y-46148261D02*
X97954819Y-46243499D01*
X97954819Y-46243499D02*
X97954819Y-46624451D01*
X97954819Y-46624451D02*
X96954819Y-46624451D01*
X96954819Y-46624451D02*
X96954819Y-46291118D01*
X96954819Y-46291118D02*
X97002438Y-46195880D01*
X97002438Y-46195880D02*
X97050057Y-46148261D01*
X97050057Y-46148261D02*
X97145295Y-46100642D01*
X97145295Y-46100642D02*
X97240533Y-46100642D01*
X97240533Y-46100642D02*
X97335771Y-46148261D01*
X97335771Y-46148261D02*
X97383390Y-46195880D01*
X97383390Y-46195880D02*
X97431009Y-46291118D01*
X97431009Y-46291118D02*
X97431009Y-46624451D01*
X97573866Y-45624451D02*
X97573866Y-44862547D01*
X105031009Y-46291118D02*
X105078628Y-46148261D01*
X105078628Y-46148261D02*
X105126247Y-46100642D01*
X105126247Y-46100642D02*
X105221485Y-46053023D01*
X105221485Y-46053023D02*
X105364342Y-46053023D01*
X105364342Y-46053023D02*
X105459580Y-46100642D01*
X105459580Y-46100642D02*
X105507200Y-46148261D01*
X105507200Y-46148261D02*
X105554819Y-46243499D01*
X105554819Y-46243499D02*
X105554819Y-46624451D01*
X105554819Y-46624451D02*
X104554819Y-46624451D01*
X104554819Y-46624451D02*
X104554819Y-46291118D01*
X104554819Y-46291118D02*
X104602438Y-46195880D01*
X104602438Y-46195880D02*
X104650057Y-46148261D01*
X104650057Y-46148261D02*
X104745295Y-46100642D01*
X104745295Y-46100642D02*
X104840533Y-46100642D01*
X104840533Y-46100642D02*
X104935771Y-46148261D01*
X104935771Y-46148261D02*
X104983390Y-46195880D01*
X104983390Y-46195880D02*
X105031009Y-46291118D01*
X105031009Y-46291118D02*
X105031009Y-46624451D01*
X105173866Y-45624451D02*
X105173866Y-44862547D01*
X105554819Y-45243499D02*
X104792914Y-45243499D01*
X93454819Y-46395880D02*
X93454819Y-46205404D01*
X93454819Y-46205404D02*
X93502438Y-46110166D01*
X93502438Y-46110166D02*
X93597676Y-46014928D01*
X93597676Y-46014928D02*
X93788152Y-45967309D01*
X93788152Y-45967309D02*
X94121485Y-45967309D01*
X94121485Y-45967309D02*
X94311961Y-46014928D01*
X94311961Y-46014928D02*
X94407200Y-46110166D01*
X94407200Y-46110166D02*
X94454819Y-46205404D01*
X94454819Y-46205404D02*
X94454819Y-46395880D01*
X94454819Y-46395880D02*
X94407200Y-46491118D01*
X94407200Y-46491118D02*
X94311961Y-46586356D01*
X94311961Y-46586356D02*
X94121485Y-46633975D01*
X94121485Y-46633975D02*
X93788152Y-46633975D01*
X93788152Y-46633975D02*
X93597676Y-46586356D01*
X93597676Y-46586356D02*
X93502438Y-46491118D01*
X93502438Y-46491118D02*
X93454819Y-46395880D01*
X93788152Y-45110166D02*
X94454819Y-45110166D01*
X93788152Y-45538737D02*
X94311961Y-45538737D01*
X94311961Y-45538737D02*
X94407200Y-45491118D01*
X94407200Y-45491118D02*
X94454819Y-45395880D01*
X94454819Y-45395880D02*
X94454819Y-45253023D01*
X94454819Y-45253023D02*
X94407200Y-45157785D01*
X94407200Y-45157785D02*
X94359580Y-45110166D01*
X93788152Y-44776832D02*
X93788152Y-44395880D01*
X93454819Y-44633975D02*
X94311961Y-44633975D01*
X94311961Y-44633975D02*
X94407200Y-44586356D01*
X94407200Y-44586356D02*
X94454819Y-44491118D01*
X94454819Y-44491118D02*
X94454819Y-44395880D01*
X94073866Y-44062546D02*
X94073866Y-43300642D01*
X93473866Y-28424451D02*
X93473866Y-27662547D01*
X99838095Y-25098319D02*
X99838095Y-25907842D01*
X99838095Y-25907842D02*
X99885714Y-26003080D01*
X99885714Y-26003080D02*
X99933333Y-26050700D01*
X99933333Y-26050700D02*
X100028571Y-26098319D01*
X100028571Y-26098319D02*
X100219047Y-26098319D01*
X100219047Y-26098319D02*
X100314285Y-26050700D01*
X100314285Y-26050700D02*
X100361904Y-26003080D01*
X100361904Y-26003080D02*
X100409523Y-25907842D01*
X100409523Y-25907842D02*
X100409523Y-25098319D01*
X100838095Y-26050700D02*
X100980952Y-26098319D01*
X100980952Y-26098319D02*
X101219047Y-26098319D01*
X101219047Y-26098319D02*
X101314285Y-26050700D01*
X101314285Y-26050700D02*
X101361904Y-26003080D01*
X101361904Y-26003080D02*
X101409523Y-25907842D01*
X101409523Y-25907842D02*
X101409523Y-25812604D01*
X101409523Y-25812604D02*
X101361904Y-25717366D01*
X101361904Y-25717366D02*
X101314285Y-25669747D01*
X101314285Y-25669747D02*
X101219047Y-25622128D01*
X101219047Y-25622128D02*
X101028571Y-25574509D01*
X101028571Y-25574509D02*
X100933333Y-25526890D01*
X100933333Y-25526890D02*
X100885714Y-25479271D01*
X100885714Y-25479271D02*
X100838095Y-25384033D01*
X100838095Y-25384033D02*
X100838095Y-25288795D01*
X100838095Y-25288795D02*
X100885714Y-25193557D01*
X100885714Y-25193557D02*
X100933333Y-25145938D01*
X100933333Y-25145938D02*
X101028571Y-25098319D01*
X101028571Y-25098319D02*
X101266666Y-25098319D01*
X101266666Y-25098319D02*
X101409523Y-25145938D01*
X102171428Y-25574509D02*
X102314285Y-25622128D01*
X102314285Y-25622128D02*
X102361904Y-25669747D01*
X102361904Y-25669747D02*
X102409523Y-25764985D01*
X102409523Y-25764985D02*
X102409523Y-25907842D01*
X102409523Y-25907842D02*
X102361904Y-26003080D01*
X102361904Y-26003080D02*
X102314285Y-26050700D01*
X102314285Y-26050700D02*
X102219047Y-26098319D01*
X102219047Y-26098319D02*
X101838095Y-26098319D01*
X101838095Y-26098319D02*
X101838095Y-25098319D01*
X101838095Y-25098319D02*
X102171428Y-25098319D01*
X102171428Y-25098319D02*
X102266666Y-25145938D01*
X102266666Y-25145938D02*
X102314285Y-25193557D01*
X102314285Y-25193557D02*
X102361904Y-25288795D01*
X102361904Y-25288795D02*
X102361904Y-25384033D01*
X102361904Y-25384033D02*
X102314285Y-25479271D01*
X102314285Y-25479271D02*
X102266666Y-25526890D01*
X102266666Y-25526890D02*
X102171428Y-25574509D01*
X102171428Y-25574509D02*
X101838095Y-25574509D01*
X96002438Y-26605404D02*
X95954819Y-26700642D01*
X95954819Y-26700642D02*
X95954819Y-26843499D01*
X95954819Y-26843499D02*
X96002438Y-26986356D01*
X96002438Y-26986356D02*
X96097676Y-27081594D01*
X96097676Y-27081594D02*
X96192914Y-27129213D01*
X96192914Y-27129213D02*
X96383390Y-27176832D01*
X96383390Y-27176832D02*
X96526247Y-27176832D01*
X96526247Y-27176832D02*
X96716723Y-27129213D01*
X96716723Y-27129213D02*
X96811961Y-27081594D01*
X96811961Y-27081594D02*
X96907200Y-26986356D01*
X96907200Y-26986356D02*
X96954819Y-26843499D01*
X96954819Y-26843499D02*
X96954819Y-26748261D01*
X96954819Y-26748261D02*
X96907200Y-26605404D01*
X96907200Y-26605404D02*
X96859580Y-26557785D01*
X96859580Y-26557785D02*
X96526247Y-26557785D01*
X96526247Y-26557785D02*
X96526247Y-26748261D01*
X96954819Y-26129213D02*
X95954819Y-26129213D01*
X95954819Y-26129213D02*
X96954819Y-25557785D01*
X96954819Y-25557785D02*
X95954819Y-25557785D01*
X96954819Y-25081594D02*
X95954819Y-25081594D01*
X95954819Y-25081594D02*
X95954819Y-24843499D01*
X95954819Y-24843499D02*
X96002438Y-24700642D01*
X96002438Y-24700642D02*
X96097676Y-24605404D01*
X96097676Y-24605404D02*
X96192914Y-24557785D01*
X96192914Y-24557785D02*
X96383390Y-24510166D01*
X96383390Y-24510166D02*
X96526247Y-24510166D01*
X96526247Y-24510166D02*
X96716723Y-24557785D01*
X96716723Y-24557785D02*
X96811961Y-24605404D01*
X96811961Y-24605404D02*
X96907200Y-24700642D01*
X96907200Y-24700642D02*
X96954819Y-24843499D01*
X96954819Y-24843499D02*
X96954819Y-25081594D01*
X108054819Y-46395880D02*
X108054819Y-46205404D01*
X108054819Y-46205404D02*
X108102438Y-46110166D01*
X108102438Y-46110166D02*
X108197676Y-46014928D01*
X108197676Y-46014928D02*
X108388152Y-45967309D01*
X108388152Y-45967309D02*
X108721485Y-45967309D01*
X108721485Y-45967309D02*
X108911961Y-46014928D01*
X108911961Y-46014928D02*
X109007200Y-46110166D01*
X109007200Y-46110166D02*
X109054819Y-46205404D01*
X109054819Y-46205404D02*
X109054819Y-46395880D01*
X109054819Y-46395880D02*
X109007200Y-46491118D01*
X109007200Y-46491118D02*
X108911961Y-46586356D01*
X108911961Y-46586356D02*
X108721485Y-46633975D01*
X108721485Y-46633975D02*
X108388152Y-46633975D01*
X108388152Y-46633975D02*
X108197676Y-46586356D01*
X108197676Y-46586356D02*
X108102438Y-46491118D01*
X108102438Y-46491118D02*
X108054819Y-46395880D01*
X108388152Y-45110166D02*
X109054819Y-45110166D01*
X108388152Y-45538737D02*
X108911961Y-45538737D01*
X108911961Y-45538737D02*
X109007200Y-45491118D01*
X109007200Y-45491118D02*
X109054819Y-45395880D01*
X109054819Y-45395880D02*
X109054819Y-45253023D01*
X109054819Y-45253023D02*
X109007200Y-45157785D01*
X109007200Y-45157785D02*
X108959580Y-45110166D01*
X108388152Y-44776832D02*
X108388152Y-44395880D01*
X108054819Y-44633975D02*
X108911961Y-44633975D01*
X108911961Y-44633975D02*
X109007200Y-44586356D01*
X109007200Y-44586356D02*
X109054819Y-44491118D01*
X109054819Y-44491118D02*
X109054819Y-44395880D01*
X108673866Y-44062546D02*
X108673866Y-43300642D01*
X109054819Y-43681594D02*
X108292914Y-43681594D01*
X105554819Y-25886357D02*
X105554819Y-26362547D01*
X105554819Y-26362547D02*
X106031009Y-26410166D01*
X106031009Y-26410166D02*
X105983390Y-26362547D01*
X105983390Y-26362547D02*
X105935771Y-26267309D01*
X105935771Y-26267309D02*
X105935771Y-26029214D01*
X105935771Y-26029214D02*
X105983390Y-25933976D01*
X105983390Y-25933976D02*
X106031009Y-25886357D01*
X106031009Y-25886357D02*
X106126247Y-25838738D01*
X106126247Y-25838738D02*
X106364342Y-25838738D01*
X106364342Y-25838738D02*
X106459580Y-25886357D01*
X106459580Y-25886357D02*
X106507200Y-25933976D01*
X106507200Y-25933976D02*
X106554819Y-26029214D01*
X106554819Y-26029214D02*
X106554819Y-26267309D01*
X106554819Y-26267309D02*
X106507200Y-26362547D01*
X106507200Y-26362547D02*
X106459580Y-26410166D01*
X105888152Y-25505404D02*
X106554819Y-25267309D01*
X106554819Y-25267309D02*
X105888152Y-25029214D01*
X108673866Y-28324451D02*
X108673866Y-27562547D01*
X109054819Y-27943499D02*
X108292914Y-27943499D01*
D12*
X84309523Y-123786080D02*
X84309523Y-124786080D01*
X84309523Y-124786080D02*
X83976190Y-124071795D01*
X83976190Y-124071795D02*
X83642857Y-124786080D01*
X83642857Y-124786080D02*
X83642857Y-123786080D01*
X82642857Y-123786080D02*
X83214285Y-123786080D01*
X82928571Y-123786080D02*
X82928571Y-124786080D01*
X82928571Y-124786080D02*
X83023809Y-124643223D01*
X83023809Y-124643223D02*
X83119047Y-124547985D01*
X83119047Y-124547985D02*
X83214285Y-124500366D01*
X91308306Y-110243461D02*
X91403544Y-110291080D01*
X91403544Y-110291080D02*
X91546401Y-110291080D01*
X91546401Y-110291080D02*
X91689258Y-110243461D01*
X91689258Y-110243461D02*
X91784496Y-110148223D01*
X91784496Y-110148223D02*
X91832115Y-110052985D01*
X91832115Y-110052985D02*
X91879734Y-109862509D01*
X91879734Y-109862509D02*
X91879734Y-109719652D01*
X91879734Y-109719652D02*
X91832115Y-109529176D01*
X91832115Y-109529176D02*
X91784496Y-109433938D01*
X91784496Y-109433938D02*
X91689258Y-109338700D01*
X91689258Y-109338700D02*
X91546401Y-109291080D01*
X91546401Y-109291080D02*
X91451163Y-109291080D01*
X91451163Y-109291080D02*
X91308306Y-109338700D01*
X91308306Y-109338700D02*
X91260687Y-109386319D01*
X91260687Y-109386319D02*
X91260687Y-109719652D01*
X91260687Y-109719652D02*
X91451163Y-109719652D01*
X90832115Y-109291080D02*
X90832115Y-110291080D01*
X90832115Y-110291080D02*
X90260687Y-109291080D01*
X90260687Y-109291080D02*
X90260687Y-110291080D01*
X89784496Y-109291080D02*
X89784496Y-110291080D01*
X89784496Y-110291080D02*
X89546401Y-110291080D01*
X89546401Y-110291080D02*
X89403544Y-110243461D01*
X89403544Y-110243461D02*
X89308306Y-110148223D01*
X89308306Y-110148223D02*
X89260687Y-110052985D01*
X89260687Y-110052985D02*
X89213068Y-109862509D01*
X89213068Y-109862509D02*
X89213068Y-109719652D01*
X89213068Y-109719652D02*
X89260687Y-109529176D01*
X89260687Y-109529176D02*
X89308306Y-109433938D01*
X89308306Y-109433938D02*
X89403544Y-109338700D01*
X89403544Y-109338700D02*
X89546401Y-109291080D01*
X89546401Y-109291080D02*
X89784496Y-109291080D01*
X78163734Y-104258700D02*
X78020877Y-104211080D01*
X78020877Y-104211080D02*
X77782782Y-104211080D01*
X77782782Y-104211080D02*
X77687544Y-104258700D01*
X77687544Y-104258700D02*
X77639925Y-104306319D01*
X77639925Y-104306319D02*
X77592306Y-104401557D01*
X77592306Y-104401557D02*
X77592306Y-104496795D01*
X77592306Y-104496795D02*
X77639925Y-104592033D01*
X77639925Y-104592033D02*
X77687544Y-104639652D01*
X77687544Y-104639652D02*
X77782782Y-104687271D01*
X77782782Y-104687271D02*
X77973258Y-104734890D01*
X77973258Y-104734890D02*
X78068496Y-104782509D01*
X78068496Y-104782509D02*
X78116115Y-104830128D01*
X78116115Y-104830128D02*
X78163734Y-104925366D01*
X78163734Y-104925366D02*
X78163734Y-105020604D01*
X78163734Y-105020604D02*
X78116115Y-105115842D01*
X78116115Y-105115842D02*
X78068496Y-105163461D01*
X78068496Y-105163461D02*
X77973258Y-105211080D01*
X77973258Y-105211080D02*
X77735163Y-105211080D01*
X77735163Y-105211080D02*
X77592306Y-105163461D01*
X76592306Y-104306319D02*
X76639925Y-104258700D01*
X76639925Y-104258700D02*
X76782782Y-104211080D01*
X76782782Y-104211080D02*
X76878020Y-104211080D01*
X76878020Y-104211080D02*
X77020877Y-104258700D01*
X77020877Y-104258700D02*
X77116115Y-104353938D01*
X77116115Y-104353938D02*
X77163734Y-104449176D01*
X77163734Y-104449176D02*
X77211353Y-104639652D01*
X77211353Y-104639652D02*
X77211353Y-104782509D01*
X77211353Y-104782509D02*
X77163734Y-104972985D01*
X77163734Y-104972985D02*
X77116115Y-105068223D01*
X77116115Y-105068223D02*
X77020877Y-105163461D01*
X77020877Y-105163461D02*
X76878020Y-105211080D01*
X76878020Y-105211080D02*
X76782782Y-105211080D01*
X76782782Y-105211080D02*
X76639925Y-105163461D01*
X76639925Y-105163461D02*
X76592306Y-105115842D01*
X76163734Y-104211080D02*
X76163734Y-105211080D01*
X75592306Y-104211080D02*
X76020877Y-104782509D01*
X75592306Y-105211080D02*
X76163734Y-104639652D01*
X78211353Y-107751080D02*
X77973258Y-106751080D01*
X77973258Y-106751080D02*
X77782782Y-107465366D01*
X77782782Y-107465366D02*
X77592306Y-106751080D01*
X77592306Y-106751080D02*
X77354211Y-107751080D01*
X77020877Y-106798700D02*
X76878020Y-106751080D01*
X76878020Y-106751080D02*
X76639925Y-106751080D01*
X76639925Y-106751080D02*
X76544687Y-106798700D01*
X76544687Y-106798700D02*
X76497068Y-106846319D01*
X76497068Y-106846319D02*
X76449449Y-106941557D01*
X76449449Y-106941557D02*
X76449449Y-107036795D01*
X76449449Y-107036795D02*
X76497068Y-107132033D01*
X76497068Y-107132033D02*
X76544687Y-107179652D01*
X76544687Y-107179652D02*
X76639925Y-107227271D01*
X76639925Y-107227271D02*
X76830401Y-107274890D01*
X76830401Y-107274890D02*
X76925639Y-107322509D01*
X76925639Y-107322509D02*
X76973258Y-107370128D01*
X76973258Y-107370128D02*
X77020877Y-107465366D01*
X77020877Y-107465366D02*
X77020877Y-107560604D01*
X77020877Y-107560604D02*
X76973258Y-107655842D01*
X76973258Y-107655842D02*
X76925639Y-107703461D01*
X76925639Y-107703461D02*
X76830401Y-107751080D01*
X76830401Y-107751080D02*
X76592306Y-107751080D01*
X76592306Y-107751080D02*
X76449449Y-107703461D01*
X91974972Y-107751080D02*
X91641639Y-106751080D01*
X91641639Y-106751080D02*
X91308306Y-107751080D01*
X90974972Y-106751080D02*
X90974972Y-107751080D01*
X90974972Y-107751080D02*
X90736877Y-107751080D01*
X90736877Y-107751080D02*
X90594020Y-107703461D01*
X90594020Y-107703461D02*
X90498782Y-107608223D01*
X90498782Y-107608223D02*
X90451163Y-107512985D01*
X90451163Y-107512985D02*
X90403544Y-107322509D01*
X90403544Y-107322509D02*
X90403544Y-107179652D01*
X90403544Y-107179652D02*
X90451163Y-106989176D01*
X90451163Y-106989176D02*
X90498782Y-106893938D01*
X90498782Y-106893938D02*
X90594020Y-106798700D01*
X90594020Y-106798700D02*
X90736877Y-106751080D01*
X90736877Y-106751080D02*
X90974972Y-106751080D01*
X89974972Y-106751080D02*
X89974972Y-107751080D01*
X89974972Y-107751080D02*
X89736877Y-107751080D01*
X89736877Y-107751080D02*
X89594020Y-107703461D01*
X89594020Y-107703461D02*
X89498782Y-107608223D01*
X89498782Y-107608223D02*
X89451163Y-107512985D01*
X89451163Y-107512985D02*
X89403544Y-107322509D01*
X89403544Y-107322509D02*
X89403544Y-107179652D01*
X89403544Y-107179652D02*
X89451163Y-106989176D01*
X89451163Y-106989176D02*
X89498782Y-106893938D01*
X89498782Y-106893938D02*
X89594020Y-106798700D01*
X89594020Y-106798700D02*
X89736877Y-106751080D01*
X89736877Y-106751080D02*
X89974972Y-106751080D01*
X77639925Y-109291080D02*
X78116115Y-109291080D01*
X78116115Y-109291080D02*
X78116115Y-110291080D01*
X76592306Y-110338700D02*
X77449448Y-109052985D01*
X75687544Y-109291080D02*
X76020877Y-109767271D01*
X76258972Y-109291080D02*
X76258972Y-110291080D01*
X76258972Y-110291080D02*
X75878020Y-110291080D01*
X75878020Y-110291080D02*
X75782782Y-110243461D01*
X75782782Y-110243461D02*
X75735163Y-110195842D01*
X75735163Y-110195842D02*
X75687544Y-110100604D01*
X75687544Y-110100604D02*
X75687544Y-109957747D01*
X75687544Y-109957747D02*
X75735163Y-109862509D01*
X75735163Y-109862509D02*
X75782782Y-109814890D01*
X75782782Y-109814890D02*
X75878020Y-109767271D01*
X75878020Y-109767271D02*
X76258972Y-109767271D01*
X90863734Y-104258700D02*
X90720877Y-104211080D01*
X90720877Y-104211080D02*
X90482782Y-104211080D01*
X90482782Y-104211080D02*
X90387544Y-104258700D01*
X90387544Y-104258700D02*
X90339925Y-104306319D01*
X90339925Y-104306319D02*
X90292306Y-104401557D01*
X90292306Y-104401557D02*
X90292306Y-104496795D01*
X90292306Y-104496795D02*
X90339925Y-104592033D01*
X90339925Y-104592033D02*
X90387544Y-104639652D01*
X90387544Y-104639652D02*
X90482782Y-104687271D01*
X90482782Y-104687271D02*
X90673258Y-104734890D01*
X90673258Y-104734890D02*
X90768496Y-104782509D01*
X90768496Y-104782509D02*
X90816115Y-104830128D01*
X90816115Y-104830128D02*
X90863734Y-104925366D01*
X90863734Y-104925366D02*
X90863734Y-105020604D01*
X90863734Y-105020604D02*
X90816115Y-105115842D01*
X90816115Y-105115842D02*
X90768496Y-105163461D01*
X90768496Y-105163461D02*
X90673258Y-105211080D01*
X90673258Y-105211080D02*
X90435163Y-105211080D01*
X90435163Y-105211080D02*
X90292306Y-105163461D01*
X89863734Y-104211080D02*
X89863734Y-105211080D01*
X89863734Y-105211080D02*
X89625639Y-105211080D01*
X89625639Y-105211080D02*
X89482782Y-105163461D01*
X89482782Y-105163461D02*
X89387544Y-105068223D01*
X89387544Y-105068223D02*
X89339925Y-104972985D01*
X89339925Y-104972985D02*
X89292306Y-104782509D01*
X89292306Y-104782509D02*
X89292306Y-104639652D01*
X89292306Y-104639652D02*
X89339925Y-104449176D01*
X89339925Y-104449176D02*
X89387544Y-104353938D01*
X89387544Y-104353938D02*
X89482782Y-104258700D01*
X89482782Y-104258700D02*
X89625639Y-104211080D01*
X89625639Y-104211080D02*
X89863734Y-104211080D01*
D11*
X102226667Y-102075700D02*
X102369524Y-102123319D01*
X102369524Y-102123319D02*
X102607619Y-102123319D01*
X102607619Y-102123319D02*
X102702857Y-102075700D01*
X102702857Y-102075700D02*
X102750476Y-102028080D01*
X102750476Y-102028080D02*
X102798095Y-101932842D01*
X102798095Y-101932842D02*
X102798095Y-101837604D01*
X102798095Y-101837604D02*
X102750476Y-101742366D01*
X102750476Y-101742366D02*
X102702857Y-101694747D01*
X102702857Y-101694747D02*
X102607619Y-101647128D01*
X102607619Y-101647128D02*
X102417143Y-101599509D01*
X102417143Y-101599509D02*
X102321905Y-101551890D01*
X102321905Y-101551890D02*
X102274286Y-101504271D01*
X102274286Y-101504271D02*
X102226667Y-101409033D01*
X102226667Y-101409033D02*
X102226667Y-101313795D01*
X102226667Y-101313795D02*
X102274286Y-101218557D01*
X102274286Y-101218557D02*
X102321905Y-101170938D01*
X102321905Y-101170938D02*
X102417143Y-101123319D01*
X102417143Y-101123319D02*
X102655238Y-101123319D01*
X102655238Y-101123319D02*
X102798095Y-101170938D01*
X103131429Y-101123319D02*
X103369524Y-102123319D01*
X103369524Y-102123319D02*
X103560000Y-101409033D01*
X103560000Y-101409033D02*
X103750476Y-102123319D01*
X103750476Y-102123319D02*
X103988572Y-101123319D01*
X104321905Y-101218557D02*
X104369524Y-101170938D01*
X104369524Y-101170938D02*
X104464762Y-101123319D01*
X104464762Y-101123319D02*
X104702857Y-101123319D01*
X104702857Y-101123319D02*
X104798095Y-101170938D01*
X104798095Y-101170938D02*
X104845714Y-101218557D01*
X104845714Y-101218557D02*
X104893333Y-101313795D01*
X104893333Y-101313795D02*
X104893333Y-101409033D01*
X104893333Y-101409033D02*
X104845714Y-101551890D01*
X104845714Y-101551890D02*
X104274286Y-102123319D01*
X104274286Y-102123319D02*
X104893333Y-102123319D01*
X102226667Y-108075700D02*
X102369524Y-108123319D01*
X102369524Y-108123319D02*
X102607619Y-108123319D01*
X102607619Y-108123319D02*
X102702857Y-108075700D01*
X102702857Y-108075700D02*
X102750476Y-108028080D01*
X102750476Y-108028080D02*
X102798095Y-107932842D01*
X102798095Y-107932842D02*
X102798095Y-107837604D01*
X102798095Y-107837604D02*
X102750476Y-107742366D01*
X102750476Y-107742366D02*
X102702857Y-107694747D01*
X102702857Y-107694747D02*
X102607619Y-107647128D01*
X102607619Y-107647128D02*
X102417143Y-107599509D01*
X102417143Y-107599509D02*
X102321905Y-107551890D01*
X102321905Y-107551890D02*
X102274286Y-107504271D01*
X102274286Y-107504271D02*
X102226667Y-107409033D01*
X102226667Y-107409033D02*
X102226667Y-107313795D01*
X102226667Y-107313795D02*
X102274286Y-107218557D01*
X102274286Y-107218557D02*
X102321905Y-107170938D01*
X102321905Y-107170938D02*
X102417143Y-107123319D01*
X102417143Y-107123319D02*
X102655238Y-107123319D01*
X102655238Y-107123319D02*
X102798095Y-107170938D01*
X103131429Y-107123319D02*
X103369524Y-108123319D01*
X103369524Y-108123319D02*
X103560000Y-107409033D01*
X103560000Y-107409033D02*
X103750476Y-108123319D01*
X103750476Y-108123319D02*
X103988572Y-107123319D01*
X104274286Y-107123319D02*
X104893333Y-107123319D01*
X104893333Y-107123319D02*
X104560000Y-107504271D01*
X104560000Y-107504271D02*
X104702857Y-107504271D01*
X104702857Y-107504271D02*
X104798095Y-107551890D01*
X104798095Y-107551890D02*
X104845714Y-107599509D01*
X104845714Y-107599509D02*
X104893333Y-107694747D01*
X104893333Y-107694747D02*
X104893333Y-107932842D01*
X104893333Y-107932842D02*
X104845714Y-108028080D01*
X104845714Y-108028080D02*
X104798095Y-108075700D01*
X104798095Y-108075700D02*
X104702857Y-108123319D01*
X104702857Y-108123319D02*
X104417143Y-108123319D01*
X104417143Y-108123319D02*
X104321905Y-108075700D01*
X104321905Y-108075700D02*
X104274286Y-108028080D01*
%TO.C,TP1*%
X73900000Y-24043500D02*
X91700000Y-24043500D01*
X73900000Y-52443500D02*
X73900000Y-24043500D01*
X76000000Y-52443500D02*
X73900000Y-52443500D01*
X76300000Y-50143500D02*
X76300000Y-50443500D01*
X76300000Y-50343500D02*
X76300000Y-52443500D01*
X76300000Y-52443500D02*
X76000000Y-52443500D01*
X80700000Y-24443500D02*
X84400000Y-24443500D01*
X80700000Y-26943500D02*
X80700000Y-24443500D01*
X84500000Y-24443500D02*
X84500000Y-26943500D01*
X84500000Y-26943500D02*
X80700000Y-26943500D01*
X89200000Y-50143500D02*
X76300000Y-50143500D01*
X89200000Y-52443500D02*
X89200000Y-50143500D01*
X91700000Y-24043500D02*
X91700000Y-50343500D01*
X91700000Y-50343500D02*
X91700000Y-52443500D01*
X91700000Y-52443500D02*
X89200000Y-52443500D01*
D14*
%TO.C,C2*%
X61380000Y-98873500D02*
X68620000Y-98873500D01*
X61380000Y-103613500D02*
X61380000Y-98873500D01*
X68620000Y-98873500D02*
X68620000Y-103613500D01*
X68620000Y-103613500D02*
X61380000Y-103613500D01*
D15*
%TO.C,U1*%
X43270000Y-24268500D02*
X71780000Y-24268500D01*
X43270000Y-75218500D02*
X43270000Y-24268500D01*
X43270000Y-75218500D02*
X43270000Y-24268500D01*
X48720000Y-24268500D02*
X43270000Y-24268500D01*
X54000000Y-75218500D02*
X43270000Y-75218500D01*
X60711000Y-75218500D02*
X54000000Y-75218500D01*
X66410000Y-24268500D02*
X48720000Y-24268500D01*
X71780000Y-24268500D02*
X66410000Y-24268500D01*
X71780000Y-24268500D02*
X71780000Y-75218500D01*
X71780000Y-24268500D02*
X71780000Y-75218500D01*
X71780000Y-75218500D02*
X43270000Y-75218500D01*
X71780000Y-75218500D02*
X60711000Y-75218500D01*
D10*
X72450000Y-65258500D02*
G75*
G02*
X72250000Y-65258500I-100000J0D01*
G01*
X72250000Y-65258500D02*
G75*
G02*
X72450000Y-65258500I100000J0D01*
G01*
D14*
%TO.C,11*%
X91900000Y-54943500D02*
X91900000Y-89943500D01*
X91900000Y-89943500D02*
X92900000Y-90943500D01*
X92900000Y-53943500D02*
X91900000Y-54943500D01*
X92900000Y-53943500D02*
X107900000Y-53943500D01*
X92900000Y-90943500D02*
X107900000Y-90943500D01*
X107900000Y-53943500D02*
X108900000Y-54943500D01*
X107900000Y-90943500D02*
X108900000Y-89943500D01*
X108900000Y-54943500D02*
X108900000Y-89943500D01*
%TO.C,SW1*%
X99810000Y-97018500D02*
X99810000Y-98518500D01*
X101060000Y-101018500D02*
X105560000Y-101018500D01*
X105560000Y-94518500D02*
X101060000Y-94518500D01*
X106810000Y-98518500D02*
X106810000Y-97018500D01*
%TO.C,LS1*%
D12*
X45400000Y-85743500D02*
X43400000Y-85743500D01*
X43400000Y-89743500D01*
X45400000Y-89743500D01*
X45400000Y-85743500D01*
D14*
%TO.C,C1*%
X53380000Y-98873500D02*
X60620000Y-98873500D01*
X53380000Y-103613500D02*
X53380000Y-98873500D01*
X60620000Y-98873500D02*
X60620000Y-103613500D01*
X60620000Y-103613500D02*
X53380000Y-103613500D01*
%TO.C,1*%
X74400000Y-55443500D02*
X74400000Y-90443500D01*
X74400000Y-90443500D02*
X75400000Y-91443500D01*
X75400000Y-54443500D02*
X74400000Y-55443500D01*
X75400000Y-54443500D02*
X90400000Y-54443500D01*
X75400000Y-91443500D02*
X90400000Y-91443500D01*
X90400000Y-54443500D02*
X91400000Y-55443500D01*
X90400000Y-91443500D02*
X91400000Y-90443500D01*
X91400000Y-55443500D02*
X91400000Y-90443500D01*
D16*
%TO.C,U3*%
X50900000Y-84543500D02*
X50900000Y-91543500D01*
X50900000Y-91543500D02*
X52300000Y-91543500D01*
D17*
X50944000Y-94293500D02*
X50944000Y-81593500D01*
D16*
X52300000Y-84543500D02*
X50900000Y-84543500D01*
X52300000Y-84543500D02*
X52300000Y-91543500D01*
X52300000Y-91543500D02*
X57900000Y-91543500D01*
D17*
X53484000Y-79053500D02*
X67454000Y-79053500D01*
X53547000Y-96823500D02*
X67517000Y-96823500D01*
D16*
X57900000Y-84543500D02*
X52300000Y-84543500D01*
X57900000Y-91543500D02*
X57900000Y-84543500D01*
D17*
X69994000Y-81593500D02*
X69994000Y-94293500D01*
X50944000Y-81593500D02*
G75*
G02*
X53484000Y-79053500I2540000J0D01*
G01*
X53500452Y-96820738D02*
G75*
G02*
X50960452Y-94280738I1J2540001D01*
G01*
X67454000Y-79053500D02*
G75*
G02*
X69994000Y-81593500I0J-2540000D01*
G01*
X69994000Y-94293500D02*
G75*
G02*
X67454000Y-96833500I-2540001J1D01*
G01*
D16*
X55484000Y-81593500D02*
G75*
G02*
X51484000Y-81593500I-2000000J0D01*
G01*
X51484000Y-81593500D02*
G75*
G02*
X55484000Y-81593500I2000000J0D01*
G01*
X55484000Y-94293500D02*
G75*
G02*
X51484000Y-94293500I-2000000J0D01*
G01*
X51484000Y-94293500D02*
G75*
G02*
X55484000Y-94293500I2000000J0D01*
G01*
D11*
%TO.C,TP2*%
X110200000Y-52443500D02*
X107700000Y-52443500D01*
X110200000Y-50343500D02*
X110200000Y-52443500D01*
X110200000Y-24043500D02*
X110200000Y-50343500D01*
X107700000Y-52443500D02*
X107700000Y-50143500D01*
X107700000Y-50143500D02*
X94800000Y-50143500D01*
X103000000Y-26943500D02*
X99200000Y-26943500D01*
X103000000Y-24443500D02*
X103000000Y-26943500D01*
X99200000Y-26943500D02*
X99200000Y-24443500D01*
X99200000Y-24443500D02*
X102900000Y-24443500D01*
X94800000Y-52443500D02*
X94500000Y-52443500D01*
X94800000Y-50343500D02*
X94800000Y-52443500D01*
X94800000Y-50143500D02*
X94800000Y-50443500D01*
X94500000Y-52443500D02*
X92400000Y-52443500D01*
X92400000Y-52443500D02*
X92400000Y-24043500D01*
X92400000Y-24043500D02*
X110200000Y-24043500D01*
D12*
%TO.C,M1*%
X97580128Y-107243500D02*
G75*
G02*
X69419872Y-107243500I-14080128J0D01*
G01*
X69419872Y-107243500D02*
G75*
G02*
X97580128Y-107243500I14080128J0D01*
G01*
D14*
%TO.C,SW2*%
X98710000Y-102818500D02*
X98710000Y-107018500D01*
X98710000Y-107018500D02*
X99910000Y-107018500D01*
X99060000Y-102818500D02*
X98710000Y-102818500D01*
X106710000Y-102818500D02*
X107910000Y-102818500D01*
X107910000Y-102818500D02*
X107910000Y-107018500D01*
X107910000Y-107018500D02*
X106710000Y-107018500D01*
X99810000Y-102818500D02*
X99330000Y-102818500D01*
X99810000Y-102338500D01*
X99810000Y-102818500D01*
G36*
X99810000Y-102818500D02*
G01*
X99330000Y-102818500D01*
X99810000Y-102338500D01*
X99810000Y-102818500D01*
G37*
%TO.C,SW3*%
X98710000Y-108818500D02*
X98710000Y-113018500D01*
X98710000Y-113018500D02*
X99910000Y-113018500D01*
X99060000Y-108818500D02*
X98710000Y-108818500D01*
X106710000Y-108818500D02*
X107910000Y-108818500D01*
X107910000Y-108818500D02*
X107910000Y-113018500D01*
X107910000Y-113018500D02*
X106710000Y-113018500D01*
X99810000Y-108818500D02*
X99330000Y-108818500D01*
X99810000Y-108338500D01*
X99810000Y-108818500D01*
G36*
X99810000Y-108818500D02*
G01*
X99330000Y-108818500D01*
X99810000Y-108338500D01*
X99810000Y-108818500D01*
G37*
%TD*%
M02*
