%TF.GenerationSoftware,KiCad,Pcbnew,9.0.6*%
%TF.CreationDate,2026-08-25T01:39:25+06:00*%
%TF.ProjectId,Walkie talkie,57616c6b-6965-4207-9461-6c6b69652e6b,3*%
%TF.SameCoordinates,Original*%
%TF.FileFunction,Legend,Bot*%
%TF.FilePolarity,Positive*%
%FSLAX46Y46*%
G04 Gerber Fmt 4.6, Leading zero omitted, Abs format (unit mm)*
G04 Created by KiCad (PCBNEW 9.0.6) date 2026-08-25 01:39:25*
%MOMM*%
%LPD*%
G01*
G04 APERTURE LIST*
%ADD10C,0.150000*%
%ADD11C,0.120000*%
G04 APERTURE END LIST*
D10*
X131656009Y-101412785D02*
X131703628Y-101555642D01*
X131703628Y-101555642D02*
X131751247Y-101603261D01*
X131751247Y-101603261D02*
X131846485Y-101650880D01*
X131846485Y-101650880D02*
X131989342Y-101650880D01*
X131989342Y-101650880D02*
X132084580Y-101603261D01*
X132084580Y-101603261D02*
X132132200Y-101555642D01*
X132132200Y-101555642D02*
X132179819Y-101460404D01*
X132179819Y-101460404D02*
X132179819Y-101079452D01*
X132179819Y-101079452D02*
X131179819Y-101079452D01*
X131179819Y-101079452D02*
X131179819Y-101412785D01*
X131179819Y-101412785D02*
X131227438Y-101508023D01*
X131227438Y-101508023D02*
X131275057Y-101555642D01*
X131275057Y-101555642D02*
X131370295Y-101603261D01*
X131370295Y-101603261D02*
X131465533Y-101603261D01*
X131465533Y-101603261D02*
X131560771Y-101555642D01*
X131560771Y-101555642D02*
X131608390Y-101508023D01*
X131608390Y-101508023D02*
X131656009Y-101412785D01*
X131656009Y-101412785D02*
X131656009Y-101079452D01*
X131179819Y-101936595D02*
X131179819Y-102508023D01*
X132179819Y-102222309D02*
X131179819Y-102222309D01*
X131275057Y-102793738D02*
X131227438Y-102841357D01*
X131227438Y-102841357D02*
X131179819Y-102936595D01*
X131179819Y-102936595D02*
X131179819Y-103174690D01*
X131179819Y-103174690D02*
X131227438Y-103269928D01*
X131227438Y-103269928D02*
X131275057Y-103317547D01*
X131275057Y-103317547D02*
X131370295Y-103365166D01*
X131370295Y-103365166D02*
X131465533Y-103365166D01*
X131465533Y-103365166D02*
X131608390Y-103317547D01*
X131608390Y-103317547D02*
X132179819Y-102746119D01*
X132179819Y-102746119D02*
X132179819Y-103365166D01*
X143737200Y-25600642D02*
X143737200Y-27886357D01*
X144880057Y-26743499D02*
X142594342Y-26743499D01*
X111531009Y-62962785D02*
X111578628Y-63105642D01*
X111578628Y-63105642D02*
X111626247Y-63153261D01*
X111626247Y-63153261D02*
X111721485Y-63200880D01*
X111721485Y-63200880D02*
X111864342Y-63200880D01*
X111864342Y-63200880D02*
X111959580Y-63153261D01*
X111959580Y-63153261D02*
X112007200Y-63105642D01*
X112007200Y-63105642D02*
X112054819Y-63010404D01*
X112054819Y-63010404D02*
X112054819Y-62629452D01*
X112054819Y-62629452D02*
X111054819Y-62629452D01*
X111054819Y-62629452D02*
X111054819Y-62962785D01*
X111054819Y-62962785D02*
X111102438Y-63058023D01*
X111102438Y-63058023D02*
X111150057Y-63105642D01*
X111150057Y-63105642D02*
X111245295Y-63153261D01*
X111245295Y-63153261D02*
X111340533Y-63153261D01*
X111340533Y-63153261D02*
X111435771Y-63105642D01*
X111435771Y-63105642D02*
X111483390Y-63058023D01*
X111483390Y-63058023D02*
X111531009Y-62962785D01*
X111531009Y-62962785D02*
X111531009Y-62629452D01*
X111054819Y-63486595D02*
X111054819Y-64058023D01*
X112054819Y-63772309D02*
X111054819Y-63772309D01*
X112054819Y-64915166D02*
X112054819Y-64343738D01*
X112054819Y-64629452D02*
X111054819Y-64629452D01*
X111054819Y-64629452D02*
X111197676Y-64534214D01*
X111197676Y-64534214D02*
X111292914Y-64438976D01*
X111292914Y-64438976D02*
X111340533Y-64343738D01*
X120237200Y-25100642D02*
X120237200Y-27386357D01*
X121380057Y-26243499D02*
X119094342Y-26243499D01*
D11*
%TO.C,BT2*%
X157560000Y-103208500D02*
X157560000Y-24288500D01*
X157560000Y-24288500D02*
X135440000Y-24288500D01*
X135440000Y-103208500D02*
X157560000Y-103208500D01*
X135440000Y-24288500D02*
X135440000Y-103208500D01*
%TO.C,BT1*%
X134560000Y-103208500D02*
X134560000Y-24288500D01*
X134560000Y-24288500D02*
X112440000Y-24288500D01*
X112440000Y-103208500D02*
X134560000Y-103208500D01*
X112440000Y-24288500D02*
X112440000Y-103208500D01*
%TD*%
M02*
